ply
format ascii 1.0
comment VCGLIB generated
element vertex 80
property float x
property float y
property float z
property float nx
property float ny
property float nz
property uchar red
property uchar green
property uchar blue
property uchar alpha
element face 296
property list uchar int vertex_indices
end_header
1.082867e-15 0.3976504 -0.1067448 2.158654e-07 0.7354705 0.6775568 209 123 85 255 
-0.07547994 0.3976504 -0.07547994 0.4791048 0.7354709 0.4791047 209 123 85 255 
3.609557e-16 0.4761904 -0.1301765 8.870279e-08 0.8749645 0.4841872 212 130 89 255 
-0.09204871 0.4761904 -0.09204871 0.3423717 0.8749647 0.3423717 212 130 89 255 
0.09204871 0.4761904 -0.09204871 -0.3423718 0.8749647 0.3423717 212 130 89 255 
0.1301765 0.4761904 0 -0.4841873 0.8749644 8.870281e-08 212 130 89 255 
0.07547994 0.3976504 -0.07547994 -0.4791048 0.7354709 0.4791046 209 123 85 255 
0.1067448 0.3976504 7.219114e-16 -0.6775568 0.7354705 2.158654e-07 209 123 85 255 
-0.07547994 0.3976504 0.07547994 0.4791046 0.735471 -0.4791046 209 123 85 255 
1.082867e-15 0.3976504 0.1067448 -2.158654e-07 0.7354705 -0.6775568 209 123 85 255 
-0.09204871 0.4761904 0.09204871 0.3423718 0.8749647 -0.3423718 212 130 89 255 
3.609557e-16 0.4761904 0.1301765 -9.147477e-08 0.8749644 -0.4841873 212 130 89 255 
3.609557e-16 0 0.19516 4.278844e-08 -0.7520002 0.6591629 192 93 67 255 
-0.137999 0 0.137999 -0.4660987 -0.7520001 0.4660986 192 93 67 255 
3.609557e-16 0.1388889 0.24395 3.243984e-08 -0.1616934 0.9868411 199 106 74 255 
-0.1724987 0.1388889 0.1724987 -0.6978021 -0.1616934 0.697802 199 106 74 255 
0.09204871 0.4761904 0.09204871 -0.3423717 0.8749647 -0.3423718 212 130 89 255 
0.07547994 0.3976504 0.07547994 -0.4791046 0.7354708 -0.4791049 209 123 85 255 
0.19516 0.4761904 0 0.6591629 0.7520002 -2.633134e-08 212 130 89 255 
0.24395 0.3373015 0 0.9868411 0.1616934 -1.081328e-08 206 119 82 255 
0.137999 0.4761904 0.137999 0.4660987 0.7520001 0.4660986 212 130 89 255 
0.1724987 0.3373015 0.1724987 0.697802 0.1616934 0.6978021 206 119 82 255 
-0.1301765 0.4761904 0 0.4841873 0.8749644 9.979065e-08 212 130 89 255 
-0.1067448 0.3976504 7.219114e-16 0.6775568 0.7354705 2.091196e-07 209 123 85 255 
0.1724987 0.3373015 -0.1724987 0.697802 0.1616934 -0.6978021 206 119 82 255 
0.137999 0.4761904 -0.137999 0.4660986 0.752 -0.4660988 212 130 89 255 
0.1724987 0.1388889 -0.1724987 0.6978021 -0.1616934 -0.697802 199 106 74 255 
0.24395 0.1388889 0 0.9868411 -0.1616934 5.406639e-08 199 106 74 255 
-0.1724987 0.1388889 -0.1724987 -0.6978019 -0.1616934 -0.6978021 199 106 74 255 
-0.1724987 0.3373015 -0.1724987 -0.697802 0.1616934 -0.697802 206 119 82 255 
-0.24395 0.1388889 0 -0.9868411 -0.1616934 -1.081328e-08 199 106 74 255 
-0.24395 0.3373015 0 -0.9868411 0.1616934 5.406639e-08 206 119 82 255 
-0.137999 0 -0.137999 -0.4660986 -0.752 -0.4660988 192 93 67 255 
3.609557e-16 0 -0.19516 -4.607985e-08 -0.7520002 -0.6591629 192 93 67 255 
3.609557e-16 0.1388889 -0.24395 -3.243984e-08 -0.1616934 -0.9868411 199 106 74 255 
-0.1724987 0.3373015 0.1724987 -0.697802 0.1616934 0.697802 206 119 82 255 
3.609557e-16 0.3373015 -0.24395 3.243983e-08 0.1616934 -0.9868411 206 119 82 255 
3.609557e-16 0.4761904 -0.19516 4.607985e-08 0.7520002 -0.6591629 212 130 89 255 
3.609557e-16 0.3373015 0.24395 -3.243983e-08 0.1616934 0.9868411 206 119 82 255 
3.609557e-16 0.4761904 0.19516 -4.278844e-08 0.7520002 0.6591629 212 130 89 255 
-0.19516 0.4761904 0 -0.6591629 0.7520002 6.582836e-08 212 130 89 255 
-0.137999 0.4761904 0.137999 -0.4660987 0.7520001 0.4660987 212 130 89 255 
-0.137999 0.4761904 -0.137999 -0.4660987 0.7520001 -0.4660986 212 130 89 255 
0.137999 0 0.137999 0.4660987 -0.752 0.4660987 192 93 67 255 
0.1724987 0.1388889 0.1724987 0.697802 -0.1616934 0.697802 199 106 74 255 
0.137999 0 -0.137999 0.4660986 -0.752 -0.4660986 192 93 67 255 
-0.19516 0 0 -0.6591629 -0.7520002 -2.633134e-08 192 93 67 255 
0.19516 0 0 0.6591629 -0.7520002 6.582836e-08 192 93 67 255 
-0.1830087 0.2861111 -0.1830087 -0.5489851 -0.6302625 -0.5489851 163 170 204 255 
0 0.2861111 -0.2588134 1.594375e-08 -0.6302625 -0.7763821 163 170 204 255 
-0.1830087 0.3821428 -0.1830087 -0.5489851 0.6302625 -0.548985 172 180 216 255 
0 0.3821428 -0.2588134 -1.395078e-08 0.6302626 -0.7763821 172 180 216 255 
0.1830087 0.2861111 -0.1830087 0.548985 -0.6302626 -0.548985 163 170 204 255 
0.1830087 0.3821428 -0.1830087 0.5489851 0.6302625 -0.5489851 172 180 216 255 
-0.2588134 0.2861111 0 -0.7763821 -0.6302624 -3.985937e-09 163 170 204 255 
-0.2588134 0.3821428 0 -0.7763821 0.6302625 0 172 180 216 255 
-0.1830087 0.2861111 0.1830087 -0.5489851 -0.6302626 0.5489851 163 170 204 255 
-0.1830087 0.3821428 0.1830087 -0.5489851 0.6302625 0.5489851 172 180 216 255 
0.2588134 0.0940476 0 0.7763821 -0.6302625 0 141 148 177 255 
0.1830087 0.0940476 -0.1830087 0.548985 -0.6302626 -0.548985 141 148 177 255 
0.1830087 0.0940476 0.1830087 0.5489851 -0.6302625 0.5489851 141 148 177 255 
0 0.0940476 0.2588134 0 -0.6302626 0.7763821 141 148 177 255 
0 0.0940476 -0.2588134 0 -0.6302625 -0.7763821 141 148 177 255 
-0.1830087 0.0940476 0.1830087 -0.5489851 -0.6302625 0.5489851 141 148 177 255 
-0.1830087 0.0940476 -0.1830087 -0.5489851 -0.6302625 -0.5489851 141 148 177 255 
-0.2588134 0.0940476 0 -0.7763821 -0.6302624 0 141 148 177 255 
0.1830087 0.2861111 0.1830087 0.5489851 -0.6302625 0.5489851 163 170 204 255 
0 0.2861111 0.2588134 -1.594375e-08 -0.6302626 0.7763821 163 170 204 255 
0.1830087 0.3821428 0.1830087 0.5489851 0.6302626 0.548985 172 180 216 255 
0 0.3821428 0.2588134 1.395078e-08 0.6302625 0.7763821 172 180 216 255 
0.2588134 0.1900793 0 0.7763821 0.6302625 0 151 158 190 255 
0.1830087 0.1900793 0.1830087 0.548985 0.6302626 0.548985 151 158 190 255 
0.1830087 0.1900793 -0.1830087 0.5489851 0.6302625 -0.5489851 151 158 190 255 
0 0.1900793 -0.2588134 0 0.6302626 -0.7763821 151 158 190 255 
0 0.1900793 0.2588134 0 0.6302625 0.7763821 151 158 190 255 
-0.1830087 0.1900793 -0.1830087 -0.5489851 0.6302625 -0.5489851 151 158 190 255 
-0.1830087 0.1900793 0.1830087 -0.5489851 0.6302625 0.5489851 151 158 190 255 
-0.2588134 0.1900793 0 -0.7763821 0.6302625 0 151 158 190 255 
0.2588134 0.2861111 0 0.7763821 -0.6302625 0 163 170 204 255 
0.2588134 0.3821428 0 0.7763821 0.6302625 -1.992969e-09 172 180 216 255 
3 2 1 0 
3 1 2 3 
3 6 5 4 
3 5 6 7 
3 10 9 8 
3 9 10 11 
3 14 13 12 
3 13 14 15 
3 7 16 5 
3 16 7 17 
3 20 19 18 
3 19 20 21 
3 10 23 22 
3 23 10 8 
3 6 17 7 
3 17 6 0 
3 17 0 9 
3 9 0 1 
3 9 1 8 
3 8 1 23 
3 25 19 24 
3 19 25 18 
3 19 26 24 
3 26 19 27 
3 30 29 28 
3 29 30 31 
3 28 33 32 
3 33 28 34 
3 15 31 30 
3 31 15 35 
3 37 24 36 
3 24 37 25 
3 20 38 21 
3 38 20 39 
3 35 40 31 
3 40 35 41 
3 42 36 29 
3 36 42 37 
3 36 26 34 
3 26 36 24 
3 22 1 3 
3 1 22 23 
3 44 12 43 
3 12 44 14 
3 34 45 33 
3 45 34 26 
3 25 20 18 
3 20 25 5 
3 5 25 4 
3 16 20 5 
3 4 25 37 
3 4 37 2 
3 20 16 39 
3 39 16 11 
3 39 11 10 
3 2 37 42 
3 39 10 41 
3 2 42 3 
3 41 10 22 
3 3 42 22 
3 41 22 42 
3 41 42 40 
3 11 17 9 
3 17 11 16 
3 39 35 38 
3 35 39 41 
3 29 34 28 
3 34 29 36 
3 13 30 46 
3 30 13 15 
3 44 47 27 
3 47 44 43 
3 38 15 14 
3 15 38 35 
3 43 45 47 
3 45 43 12 
3 45 12 33 
3 33 12 13 
3 33 13 32 
3 32 13 46 
3 31 42 29 
3 42 31 40 
3 27 45 26 
3 45 27 47 
3 32 30 28 
3 30 32 46 
3 21 27 19 
3 27 21 44 
3 21 14 44 
3 14 21 38 
3 4 0 6 
3 0 4 2 
3 50 49 48 
3 49 50 51 
3 51 52 49 
3 52 51 53 
3 56 55 54 
3 55 56 57 
3 60 59 58 
3 59 60 61 
3 59 61 62 
3 62 61 63 
3 62 63 64 
3 64 63 65 
3 54 50 48 
3 50 54 55 
3 68 67 66 
3 67 68 69 
3 72 71 70 
3 71 72 73 
3 71 73 74 
3 74 73 75 
3 74 75 76 
3 76 75 77 
3 69 56 67 
3 56 69 57 
3 63 77 65 
3 77 63 76 
3 71 61 60 
3 61 71 74 
3 74 63 61 
3 63 74 76 
3 58 71 60 
3 71 58 70 
3 59 70 58 
3 70 59 72 
3 65 75 64 
3 75 65 77 
3 75 62 64 
3 62 75 73 
3 73 59 62 
3 59 73 72 
3 78 68 66 
3 68 78 79 
3 52 79 78 
3 79 52 53 
3 53 68 79 
3 68 53 51 
3 68 51 69 
3 69 51 50 
3 69 50 57 
3 57 50 55 
3 66 52 78 
3 52 66 67 
3 52 67 49 
3 49 67 56 
3 49 56 48 
3 48 56 54 
3 2 1 0 
3 1 2 3 
3 6 5 4 
3 5 6 7 
3 10 9 8 
3 9 10 11 
3 14 13 12 
3 13 14 15 
3 7 16 5 
3 16 7 17 
3 20 19 18 
3 19 20 21 
3 10 23 22 
3 23 10 8 
3 6 17 7 
3 17 6 0 
3 17 0 9 
3 9 0 1 
3 9 1 8 
3 8 1 23 
3 25 19 24 
3 19 25 18 
3 19 26 24 
3 26 19 27 
3 30 29 28 
3 29 30 31 
3 28 33 32 
3 33 28 34 
3 15 31 30 
3 31 15 35 
3 37 24 36 
3 24 37 25 
3 20 38 21 
3 38 20 39 
3 35 40 31 
3 40 35 41 
3 42 36 29 
3 36 42 37 
3 36 26 34 
3 26 36 24 
3 22 1 3 
3 1 22 23 
3 44 12 43 
3 12 44 14 
3 34 45 33 
3 45 34 26 
3 25 20 18 
3 20 25 5 
3 5 25 4 
3 16 20 5 
3 4 25 37 
3 4 37 2 
3 20 16 39 
3 39 16 11 
3 39 11 10 
3 2 37 42 
3 39 10 41 
3 2 42 3 
3 41 10 22 
3 3 42 22 
3 41 22 42 
3 41 42 40 
3 11 17 9 
3 17 11 16 
3 39 35 38 
3 35 39 41 
3 29 34 28 
3 34 29 36 
3 13 30 46 
3 30 13 15 
3 44 47 27 
3 47 44 43 
3 38 15 14 
3 15 38 35 
3 43 45 47 
3 45 43 12 
3 45 12 33 
3 33 12 13 
3 33 13 32 
3 32 13 46 
3 31 42 29 
3 42 31 40 
3 27 45 26 
3 45 27 47 
3 32 30 28 
3 30 32 46 
3 21 27 19 
3 27 21 44 
3 21 14 44 
3 14 21 38 
3 4 0 6 
3 0 4 2 
3 50 49 48 
3 49 50 51 
3 51 52 49 
3 52 51 53 
3 56 55 54 
3 55 56 57 
3 60 59 58 
3 59 60 61 
3 59 61 62 
3 62 61 63 
3 62 63 64 
3 64 63 65 
3 54 50 48 
3 50 54 55 
3 68 67 66 
3 67 68 69 
3 72 71 70 
3 71 72 73 
3 71 73 74 
3 74 73 75 
3 74 75 76 
3 76 75 77 
3 69 56 67 
3 56 69 57 
3 63 77 65 
3 77 63 76 
3 71 61 60 
3 61 71 74 
3 74 63 61 
3 63 74 76 
3 58 71 60 
3 71 58 70 
3 59 70 58 
3 70 59 72 
3 65 75 64 
3 75 65 77 
3 75 62 64 
3 62 75 73 
3 73 59 62 
3 59 73 72 
3 78 68 66 
3 68 78 79 
3 52 79 78 
3 79 52 53 
3 53 68 79 
3 68 53 51 
3 68 51 69 
3 69 51 50 
3 69 50 57 
3 57 50 55 
3 66 52 78 
3 52 66 67 
3 52 67 49 
3 49 67 56 
3 49 56 48 
3 48 56 54 
