ply
format ascii 1.0
comment VCGLIB generated
element vertex 8
property float x
property float y
property float z
property float nx
property float ny
property float nz
property uchar red
property uchar green
property uchar blue
property uchar alpha
element face 24
property list uchar int vertex_indices
end_header
-0.5 0 -0.5 -0.5773503 -0.5773503 -0.5773503 54 54 58 255 
-0.5 0.9 -0.5 -0.5773503 0.5773503 -0.5773503 69 69 79 255 
-0.5 0 0.5 -0.5773503 -0.5773503 0.5773503 54 54 58 255 
-0.5 0.9 0.5 -0.5773503 0.5773503 0.5773503 69 69 79 255 
0.5 0.9 -0.5 0.5773503 0.5773503 -0.5773503 69 69 79 255 
0.5 0 -0.5 0.5773503 -0.5773503 -0.5773503 54 54 58 255 
0.5 0.9 0.5 0.5773503 0.5773503 0.5773503 69 69 79 255 
0.5 0 0.5 0.5773503 -0.5773503 0.5773503 54 54 58 255 
3 2 1 0 
3 1 2 3 
3 6 5 4 
3 5 6 7 
3 1 6 4 
3 6 1 3 
3 6 2 7 
3 2 6 3 
3 7 0 5 
3 0 7 2 
3 1 5 0 
3 5 1 4 
3 2 1 0 
3 1 2 3 
3 6 5 4 
3 5 6 7 
3 1 6 4 
3 6 1 3 
3 6 2 7 
3 2 6 3 
3 7 0 5 
3 0 7 2 
3 1 5 0 
3 5 1 4 
