ply
format ascii 1.0
comment VCGLIB generated
element vertex 32
property float x
property float y
property float z
property float nx
property float ny
property float nz
property uchar red
property uchar green
property uchar blue
property uchar alpha
element face 88
property list uchar int vertex_indices
end_header
0.5 0.8 -0.4 0 1 0 250 102 63 255 
0.5 0.8 -0.3 0 0.7518399 0.6593457 250 102 63 255 
-0.5 0.8 -0.4 0 1 0 250 102 63 255 
-0.5 0.8 -0.3 0 0.7518399 0.6593457 250 102 63 255 
0.5 0.6964723 -0.2863703 0 0.1305264 0.9914449 246 98 63 255 
-0.5 0.6964723 -0.2863703 0 0.1305264 0.9914448 246 98 63 255 
0.5 0.01362967 0.3964724 0 0.9914449 0.1305262 90 96 120 255 
0.5 0 0.5 0.5373015 -0.05515775 0.8415847 90 96 120 255 
-0.5 0.01362967 0.3964724 0 0.9914449 0.1305262 90 96 120 255 
-0.5 0 0.5 -0.5373016 -0.05516021 0.8415845 90 96 120 255 
0.5 0 -0.5 0.5773503 -0.5773503 -0.5773503 90 96 120 255 
-0.5 0 -0.5 -0.5773503 -0.5773503 -0.5773503 90 96 120 255 
0.5 0.8 -0.5 0.5773503 0.5773503 -0.5773503 129 134 156 255 
0.5 0.8 -0.4 0.8944272 0.4472136 0 129 134 156 255 
-0.5 0.8 -0.5 -0.5773221 0.5773644 -0.5773643 129 134 156 255 
-0.5 0.8 -0.4 -0.8944272 0.4472135 0 129 134 156 255 
-0.5 0.8 -0.3 -1 0 0 129 134 156 255 
-0.5 0.6964723 -0.2863703 -0.8944271 0.05837288 0.4433877 182 191 228 255 
-0.5 0.5929447 -0.2727407 -0.7377003 0.1747361 0.652124 172 180 216 255 
-0.5 0.4 -0.1928203 -0.7376906 0.3375696 0.5846874 161 168 202 255 
-0.5 0.2343146 -0.06568542 -0.737707 0.4773827 0.4773827 143 149 179 255 
-0.5 0.1071797 0.1 -0.7377003 0.5846783 0.3375643 134 140 168 255 
-0.5 0.02725934 0.2929448 -0.7377002 0.652124 0.1747361 128 134 160 255 
-0.5 0.01362967 0.3964724 0 0.9914449 0.1305262 128 134 160 255 
0.5 0.4 -0.1928203 0.7377003 0.3375643 0.5846783 161 168 202 255 
0.5 0.5929447 -0.2727407 0.7377003 0.1747361 0.6521239 172 180 216 255 
0.5 0.6964723 -0.2863703 0.8944271 0.0583729 0.4433879 182 191 228 255 
0.5 0.8 -0.3 1 0 0 129 134 156 255 
0.5 0.2343146 -0.06568542 0.7377003 0.4773879 0.4773879 143 149 179 255 
0.5 0.1071797 0.1 0.7377003 0.5846783 0.3375642 134 140 168 255 
0.5 0.02725934 0.2929448 0.7377003 0.6521239 0.1747361 128 134 160 255 
0.5 0.01362967 0.3964724 0 0.9914449 0.1305262 128 134 160 255 
3 2 1 0 
3 1 2 3 
3 1 5 4 
3 5 1 3 
3 8 7 6 
3 7 8 9 
3 9 10 7 
3 10 9 11 
3 14 13 12 
3 13 14 15 
3 15 17 16 
3 15 18 17 
3 15 19 18 
3 14 19 15 
3 14 20 19 
3 11 20 14 
3 20 11 21 
3 21 11 22 
3 22 11 9 
3 22 9 23 
3 14 10 11 
3 10 14 12 
3 13 10 12 
3 10 13 24 
3 24 13 25 
3 25 13 26 
3 26 13 27 
3 10 24 28 
3 10 28 29 
3 10 29 30 
3 10 30 7 
3 7 30 31 
3 22 31 30 
3 31 22 23 
3 25 19 24 
3 19 25 18 
3 20 29 28 
3 29 20 21 
3 26 18 25 
3 18 26 17 
3 21 30 29 
3 30 21 22 
3 24 20 28 
3 20 24 19 
3 2 1 0 
3 1 2 3 
3 1 5 4 
3 5 1 3 
3 8 7 6 
3 7 8 9 
3 9 10 7 
3 10 9 11 
3 14 13 12 
3 13 14 15 
3 15 17 16 
3 15 18 17 
3 15 19 18 
3 14 19 15 
3 14 20 19 
3 11 20 14 
3 20 11 21 
3 21 11 22 
3 22 11 9 
3 22 9 23 
3 14 10 11 
3 10 14 12 
3 13 10 12 
3 10 13 24 
3 24 13 25 
3 25 13 26 
3 26 13 27 
3 10 24 28 
3 10 28 29 
3 10 29 30 
3 10 30 7 
3 7 30 31 
3 22 31 30 
3 31 22 23 
3 25 19 24 
3 19 25 18 
3 20 29 28 
3 29 20 21 
3 26 18 25 
3 18 26 17 
3 21 30 29 
3 30 21 22 
3 24 20 28 
3 20 24 19 
