ply
format ascii 1.0
comment VCGLIB generated
element vertex 86
property float x
property float y
property float z
property float nx
property float ny
property float nz
property uchar red
property uchar green
property uchar blue
property uchar alpha
element face 272
property list uchar int vertex_indices
end_header
0.2964724 0.6964723 -0.2595754 0.2566047 0.1305266 0.9576622 128 128 128 255 
0.1068148 0.6964723 -0.1810167 0.4957224 0.1305263 0.8586165 128 128 128 255 
0.2929448 0.8 -0.2727407 0.1620236 0.7798139 0.6046806 128 128 128 255 
0.1 0.8 -0.1928203 0.3130059 0.7798137 0.5421419 128 128 128 255 
-0.2727407 0.8 0.2929448 0.6046807 0.7798139 0.1620236 128 128 128 255 
-0.2595754 0.6964723 0.2964724 0.9576622 0.1305266 0.2566047 128 128 128 255 
-0.3 0.8 0.5 0.6238962 0.7771789 0.08213748 128 128 128 255 
-0.2863703 0.6964723 0.5 0.9831056 0.1294285 0.1294283 128 128 128 255 
-0.05604779 0.6964723 -0.05604779 0.7010574 0.1305259 0.7010574 128 128 128 255 
-0.06568542 0.8 -0.06568542 0.442657 0.7798138 0.442657 128 128 128 255 
-0.1928203 0.8 0.1 0.542142 0.7798137 0.3130059 128 128 128 255 
-0.1810167 0.6964723 0.1068148 0.8586164 0.1305263 0.4957224 128 128 128 255 
0.5 0.8 -0.4 0 1 0 128 128 128 255 
0.5 0.8 -0.3 0.08213747 0.7771789 0.6238962 128 128 128 255 
0.2670629 0.8 -0.3693332 0 1 0 128 128 128 255 
0.05 0.8 -0.2794228 0 1 0 128 128 128 255 
-0.1363961 0.8 -0.1363961 0 1 0 128 128 128 255 
-0.2794228 0.8 0.05 0 1 0 128 128 128 255 
-0.3693332 0.8 0.2670629 0 1 0 128 128 128 255 
-0.4 0.8 0.5 0 1 0 128 128 128 255 
0.5 0.6964723 -0.2863703 0.1294283 0.1294285 0.9831056 128 128 128 255 
0.4 0.01362967 0.4732051 0.1260786 0.9914449 0.03378277 128 128 128 255 
0.5 0 0.5 0.7052245 -0.07291827 0.7052244 128 128 128 255 
0.3964724 0.01362967 0.5 0.130507 0.9912985 0.01718154 128 128 128 255 
0.4482362 0.01362967 0.4103425 0.06526305 0.9914449 0.1130391 128 128 128 255 
0.4267949 0.01362967 0.4267949 0.09229592 0.9914449 0.09229592 128 128 128 255 
0.4103425 0.01362967 0.4482362 0.1130391 0.9914449 0.06526305 128 128 128 255 
0.5 0.01362967 0.3964724 0.01718154 0.9912985 0.130507 128 128 128 255 
0.4732051 0.01362967 0.4 0.03378277 0.9914449 0.1260786 128 128 128 255 
0.5 0.6964723 -0.2863703 0.9081755 0.05463681 0.4150085 128 128 128 255 
0.5 0.8 -0.3 1 0 0 128 128 128 255 
0.5 0.5929447 -0.2727407 0.7784821 0.1607749 0.6067265 128 128 128 255 
0.5 0.8 -0.5 0.5773503 0.5773503 -0.5773503 128 128 128 255 
0.5 0.8 -0.4 0.879292 0.4762833 0 128 128 128 255 
-0.5 0.8 -0.5 -0.5773499 0.5773511 -0.5773499 128 128 128 255 
0.2670629 0.8 -0.3693332 0 1 0 128 128 128 255 
-0.3693332 0.8 0.2670629 0 1 0 128 128 128 255 
-0.4 0.8 0.5 0 0.4762833 0.8792919 128 128 128 255 
-0.5 0.8 0.5 -0.5773644 0.5773644 0.5773222 128 128 128 255 
-0.5 0 -0.5 -0.5773503 -0.5773503 -0.5773503 128 128 128 255 
0.5 0 -0.5 0.5773503 -0.5773503 -0.5773503 128 128 128 255 
-0.2863703 0.6964723 0.5 0.4150085 0.05463682 0.9081755 128 128 128 255 
-0.3 0.8 0.5 0 0 1 128 128 128 255 
-0.2727407 0.5929447 0.5 0.6067264 0.1607749 0.7784821 128 128 128 255 
-0.1928203 0.4 0.5 0.5494759 0.3133305 0.7745323 128 128 128 255 
-0.06568542 0.2343146 0.5 0.4561526 0.4492764 0.7681637 128 128 128 255 
-0.5 0 0.5 -0.5773492 -0.5773492 0.5773523 128 128 128 255 
0.1 0.1071797 0.5 0.3304182 0.5601555 0.7596379 128 128 128 255 
0.2929448 0.02725934 0.5 0.178038 0.6376891 0.7494366 128 128 128 255 
0.3964724 0.01362967 0.5 0.06168434 0.468539 0.8812867 128 128 128 255 
0.5 0.4 -0.1928203 0.7745403 0.3133256 0.5494674 128 128 128 255 
0.5 0.2343146 -0.06568542 0.7681579 0.4492813 0.4561576 128 128 128 255 
0.5 0.1071797 0.1 0.7596379 0.5601555 0.3304182 128 128 128 255 
0.5 0.02725934 0.2929448 0.7494366 0.6376891 0.178038 128 128 128 255 
0.5 0.01362967 0.3964724 0.01718151 0.9912986 0.130507 128 128 128 255 
0.4732051 0.01362967 0.4 0.03378247 0.9914449 0.1260787 128 128 128 255 
0.4464101 0.02725934 0.3 0.06959873 0.9631656 0.2597459 128 128 128 255 
0.3535898 0.2343146 -0.04641016 0.1843973 0.7017165 0.68818 128 128 128 255 
0.2171573 0.2343146 0.01010205 0.3562281 0.7017165 0.6170053 128 128 128 255 
0.3206849 0.4 -0.169213 0.2248334 0.4953572 0.8390896 128 128 128 255 
0.1535898 0.4 -0.1 0.4343447 0.4953571 0.7523071 128 128 128 255 
-0.2464101 0.5929447 0.3 0.9337004 0.2561472 0.2501844 128 128 128 255 
-0.169213 0.4 0.3206849 0.8390896 0.4953572 0.2248334 128 128 128 255 
0.4482362 0.01362967 0.4103424 0.065263 0.9914449 0.1130391 128 128 128 255 
0.3964724 0.02725934 0.3206849 0.1344542 0.9631657 0.2328818 128 128 128 255 
-0.04641016 0.5929447 -0.04641016 0.6835161 0.2561473 0.6835161 128 128 128 255 
0.01010205 0.4 0.01010205 0.6142562 0.4953571 0.6142562 128 128 128 255 
-0.169213 0.5929447 0.1136297 0.8371329 0.2561474 0.4833187 128 128 128 255 
-0.1 0.4 0.1535898 0.7523072 0.4953571 0.4343447 128 128 128 255 
-0.04641016 0.2343146 0.3535898 0.68818 0.7017165 0.1843973 128 128 128 255 
0.4267949 0.01362967 0.4267949 0.09229595 0.9914449 0.092296 128 128 128 255 
0.4103424 0.01362967 0.4482362 0.1130392 0.9914449 0.06526297 128 128 128 255 
0.3535898 0.02725934 0.3535898 0.1901472 0.9631656 0.1901472 128 128 128 255 
0.3206849 0.02725934 0.3964724 0.2328817 0.9631657 0.1344543 128 128 128 255 
0.3964724 0.1071797 0.1136297 0.1314968 0.8613188 0.4907531 128 128 128 255 
0.3 0.1071797 0.1535898 0.2540325 0.8613188 0.4399972 128 128 128 255 
0.3 0.5929447 -0.2464101 0.2501844 0.2561472 0.9337004 128 128 128 255 
0.1136297 0.5929447 -0.169213 0.4833187 0.2561474 0.8371329 128 128 128 255 
0.4 0.01362967 0.4732051 0.1260787 0.9914449 0.03378258 128 128 128 255 
0.3 0.02725934 0.4464101 0.2597459 0.9631657 0.0695987 128 128 128 255 
0.01010205 0.2343146 0.2171573 0.6170053 0.7017165 0.3562281 128 128 128 255 
0.1535898 0.1071797 0.3 0.4399973 0.8613187 0.2540325 128 128 128 255 
0.1136297 0.1071797 0.3964724 0.4907531 0.8613188 0.1314968 128 128 128 255 
0.1 0.2343146 0.1 0.5037827 0.7017166 0.5037826 128 128 128 255 
-0.0560478 0.6964723 -0.0560478 0.7010574 0.1305263 0.7010574 128 128 128 255 
0.2171573 0.1071797 0.2171573 0.3592562 0.8613187 0.3592562 128 128 128 255 
3 2 1 0 
3 1 2 3 
3 6 5 4 
3 5 6 7 
3 3 8 1 
3 8 3 9 
3 4 11 10 
3 11 4 5 
3 14 13 12 
3 13 14 2 
3 2 14 3 
3 3 14 15 
3 3 15 9 
3 9 15 16 
3 9 16 10 
3 10 16 17 
3 10 17 4 
3 4 17 6 
3 6 17 18 
3 6 18 19 
3 13 0 20 
3 0 13 2 
3 10 8 9 
3 8 10 11 
3 23 22 21 
3 25 22 24 
3 21 22 26 
3 26 22 25 
3 28 22 27 
3 24 22 28 
3 31 30 29 
3 34 33 32 
3 33 34 35 
3 35 34 15 
3 15 34 16 
3 16 34 17 
3 17 34 36 
3 36 34 37 
3 37 34 38 
3 34 40 39 
3 40 34 32 
3 42 37 41 
3 38 41 37 
3 38 43 41 
3 38 44 43 
3 38 45 44 
3 46 45 38 
3 46 47 45 
3 46 48 47 
3 46 49 48 
3 49 46 22 
3 33 40 32 
3 40 33 50 
3 50 33 31 
3 31 33 30 
3 40 50 51 
3 40 51 52 
3 40 52 53 
3 40 53 22 
3 22 53 54 
3 46 40 22 
3 40 46 39 
3 46 34 39 
3 34 46 38 
3 53 55 54 
3 55 53 56 
3 59 58 57 
3 58 59 60 
3 43 62 61 
3 62 43 44 
3 41 61 5 
3 61 41 43 
3 56 63 55 
3 63 56 64 
3 67 66 65 
3 66 67 68 
3 44 69 62 
3 69 44 45 
3 72 71 70 
3 71 72 73 
3 57 75 74 
3 75 57 58 
3 50 57 51 
3 57 50 59 
3 76 60 59 
3 60 76 77 
3 73 78 71 
3 78 73 79 
3 31 59 50 
3 59 31 76 
3 62 80 68 
3 80 62 69 
3 81 79 73 
3 79 81 82 
3 60 83 58 
3 83 60 66 
3 69 47 82 
3 47 69 45 
3 77 66 60 
3 66 77 65 
3 0 77 76 
3 77 0 1 
3 29 76 31 
3 76 29 0 
3 11 65 84 
3 65 11 67 
3 58 85 75 
3 85 58 83 
3 82 48 79 
3 48 82 47 
3 80 82 81 
3 82 80 69 
3 79 49 78 
3 49 79 48 
3 57 52 51 
3 52 57 74 
3 85 73 72 
3 73 85 81 
3 75 72 64 
3 72 75 85 
3 64 70 63 
3 70 64 72 
3 68 83 66 
3 83 68 80 
3 83 81 85 
3 81 83 80 
3 1 65 77 
3 65 1 84 
3 61 68 67 
3 68 61 62 
3 74 64 56 
3 64 74 75 
3 74 53 52 
3 53 74 56 
3 5 67 11 
3 67 5 61 
3 2 1 0 
3 1 2 3 
3 6 5 4 
3 5 6 7 
3 3 8 1 
3 8 3 9 
3 4 11 10 
3 11 4 5 
3 14 13 12 
3 13 14 2 
3 2 14 3 
3 3 14 15 
3 3 15 9 
3 9 15 16 
3 9 16 10 
3 10 16 17 
3 10 17 4 
3 4 17 6 
3 6 17 18 
3 6 18 19 
3 13 0 20 
3 0 13 2 
3 10 8 9 
3 8 10 11 
3 23 22 21 
3 25 22 24 
3 21 22 26 
3 26 22 25 
3 28 22 27 
3 24 22 28 
3 31 30 29 
3 34 33 32 
3 33 34 35 
3 35 34 15 
3 15 34 16 
3 16 34 17 
3 17 34 36 
3 36 34 37 
3 37 34 38 
3 34 40 39 
3 40 34 32 
3 42 37 41 
3 38 41 37 
3 38 43 41 
3 38 44 43 
3 38 45 44 
3 46 45 38 
3 46 47 45 
3 46 48 47 
3 46 49 48 
3 49 46 22 
3 33 40 32 
3 40 33 50 
3 50 33 31 
3 31 33 30 
3 40 50 51 
3 40 51 52 
3 40 52 53 
3 40 53 22 
3 22 53 54 
3 46 40 22 
3 40 46 39 
3 46 34 39 
3 34 46 38 
3 53 55 54 
3 55 53 56 
3 59 58 57 
3 58 59 60 
3 43 62 61 
3 62 43 44 
3 41 61 5 
3 61 41 43 
3 56 63 55 
3 63 56 64 
3 67 66 65 
3 66 67 68 
3 44 69 62 
3 69 44 45 
3 72 71 70 
3 71 72 73 
3 57 75 74 
3 75 57 58 
3 50 57 51 
3 57 50 59 
3 76 60 59 
3 60 76 77 
3 73 78 71 
3 78 73 79 
3 31 59 50 
3 59 31 76 
3 62 80 68 
3 80 62 69 
3 81 79 73 
3 79 81 82 
3 60 83 58 
3 83 60 66 
3 69 47 82 
3 47 69 45 
3 77 66 60 
3 66 77 65 
3 0 77 76 
3 77 0 1 
3 29 76 31 
3 76 29 0 
3 11 65 84 
3 65 11 67 
3 58 85 75 
3 85 58 83 
3 82 48 79 
3 48 82 47 
3 80 82 81 
3 82 80 69 
3 79 49 78 
3 49 79 48 
3 57 52 51 
3 52 57 74 
3 85 73 72 
3 73 85 81 
3 75 72 64 
3 72 75 85 
3 64 70 63 
3 70 64 72 
3 68 83 66 
3 83 68 80 
3 83 81 85 
3 81 83 80 
3 1 65 77 
3 65 1 84 
3 61 68 67 
3 68 61 62 
3 74 64 56 
3 64 74 75 
3 74 53 52 
3 53 74 56 
3 5 67 11 
3 67 5 61 
