ply
format ascii 1.0
comment VCGLIB generated
element vertex 74
property float x
property float y
property float z
property float nx
property float ny
property float nz
property uchar red
property uchar green
property uchar blue
property uchar alpha
element face 280
property list uchar int vertex_indices
end_header
0.5 0 -0.5 0.1194611 0.990547 -0.0674222 90 96 120 255 
0.5 0 0.5 0 1 0 214 134 91 255 
0.4659258 0 -0.241181 0.05792907 0.9982001 0.01552205 90 96 120 255 
0.3660254 0 0 0 1 0 214 134 91 255 
0.2071068 0 0.2071068 0.04240701 0.9982001 0.04240701 90 96 120 255 
-1.263345e-14 0 0.3660254 0.02998628 0.9982001 0.05193777 90 96 120 255 
-0.241181 0 0.4659258 0.01552205 0.9982001 0.05792907 90 96 120 255 
-0.5 0 0.5 -0.06742219 0.990547 0.1194611 90 96 120 255 
-0.3267949 0.8 -0.4 0.5960472 0.7254675 0.3441289 250 102 63 255 
-0.3149913 0.6964723 -0.3931851 0.8586165 0.1305265 0.4957223 182 191 228 255 
-0.3585787 0.8 -0.3585787 0.4866702 0.7254683 0.4866702 250 102 63 255 
-0.348941 0.6964723 -0.348941 0.7010574 0.1305267 0.7010573 182 191 228 255 
-0.4447086 0.6964723 -0.2936496 0.2566049 0.130526 0.9576622 182 191 228 255 
-0.5 0.6964723 -0.2863703 -0.6597616 0.09808678 0.745046 182 191 228 255 
-0.4482362 0.8 -0.3068148 0.1781339 0.7254673 0.6648049 250 102 63 255 
-0.5 0.8 -0.3 -0.5506535 0.6055731 0.5745103 129 134 156 255 
-0.3931851 0.6964723 -0.3149913 0.4957223 0.1305265 0.8586165 182 191 228 255 
-0.4 0.8 -0.3267949 0.3441288 0.7254676 0.5960471 250 102 63 255 
-0.3068148 0.8 -0.4482362 0.6648046 0.7254676 0.1781338 250 102 63 255 
-0.2936496 0.6964723 -0.4447086 0.9576622 0.130526 0.2566049 182 191 228 255 
-0.3 0.8 -0.5 0.5745105 0.6055728 -0.5506536 129 134 156 255 
-0.2863703 0.6964723 -0.5 0.745046 0.09808678 -0.6597616 182 191 228 255 
-0.4 0.8 -0.5 0 1 0 129 134 156 255 
-0.4034074 0.8 -0.4741181 0 1 0 129 134 156 255 
-0.4133974 0.8 -0.45 0 1 0 129 134 156 255 
-0.4292893 0.8 -0.4292893 0 1 0 129 134 156 255 
-0.45 0.8 -0.4133974 0 1 0 129 134 156 255 
-0.4741181 0.8 -0.4034074 0 1 0 129 134 156 255 
-0.5 0.8 -0.4 -0.7071068 0.7071067 0 129 134 156 255 
0.3660254 0 1.227249e-14 0.113039 0.9914449 0.06526308 90 96 120 255 
0.3659258 0.01362967 -0.2679759 0.1260786 0.9914449 0.03378268 128 134 160 255 
0.2763678 0.01362967 -0.05176381 0.113039 0.9914449 0.06526309 128 134 160 255 
-0.2679759 0.01362967 0.3659258 0.03378268 0.9914449 0.1260786 128 134 160 255 
-0.5 0.01362967 0.3964724 0.0171816 0.9912986 0.1305069 128 134 160 255 
-0.05176381 0.01362967 0.2763678 0.0652631 0.9914449 0.113039 128 134 160 255 
0.1339017 0.01362967 0.1339017 0.09229595 0.9914449 0.09229595 128 134 160 255 
0.3964724 0.01362967 -0.5 0.1305069 0.9912985 0.01718159 128 134 160 255 
0.2929448 0.02725934 -0.5 0.1708165 0.6654947 -0.7265938 128 134 160 255 
-0.5 0 -0.5 -0.7071068 0 -0.7071068 90 96 120 255 
0.1 0.1071797 -0.5 0.3435256 0.60826 -0.7155488 134 140 168 255 
-0.06568542 0.2343146 -0.5 0.4969529 0.5047339 -0.7058905 143 149 179 255 
-0.5 0.8 -0.5 -0.5773644 0.5773644 -0.5773222 129 134 156 255 
-0.1928203 0.4 -0.5 0.6178839 0.3612834 -0.6983508 161 168 202 255 
-0.2727407 0.5929447 -0.5 0.6952871 0.1884285 -0.6935925 172 180 216 255 
-0.5 0.4 -0.1928203 -0.6983623 0.3612778 0.6178743 161 168 202 255 
-0.5 0.5929447 -0.2727407 -0.6935925 0.1884285 0.695287 172 180 216 255 
-0.5 0.2343146 -0.06568542 -0.7058828 0.5047394 0.4969584 143 149 179 255 
-0.5 0.1071797 0.1 -0.7155488 0.60826 0.3435256 134 140 168 255 
-0.5 0.02725934 0.2929448 -0.7265939 0.6654947 0.1708165 128 134 160 255 
0.1867103 0.02725934 -0.1035276 0.2153086 0.9686019 0.1243084 128 134 160 255 
0.06069662 0.02725934 0.06069662 0.1757987 0.9686019 0.1757987 128 134 160 255 
0.01961524 0.1071797 -0.2 0.4258772 0.8707305 0.2458802 134 140 168 255 
-0.07573593 0.1071797 -0.07573593 0.3477272 0.8707305 0.3477272 134 140 168 255 
-0.420496 0.4 -0.2032872 0.2234288 0.5047581 0.8338459 161 168 202 255 
-0.441181 0.5929447 -0.2804843 0.2498072 0.2615728 0.9322961 172 180 216 255 
-0.2828427 0.2343146 -0.1238725 0.3507964 0.7125781 0.6075972 143 149 179 255 
-0.3875911 0.2343146 -0.08048434 0.1815855 0.7125781 0.6776868 143 149 179 255 
-0.3464102 0.4 -0.2339746 0.4316307 0.5047581 0.7476057 161 168 202 255 
0.0795555 0.1071797 -0.3447086 0.4750042 0.8707305 0.127277 134 140 168 255 
-0.08048434 0.2343146 -0.3875911 0.6776868 0.7125781 0.1815856 143 149 179 255 
-0.1238725 0.2343146 -0.2828427 0.6075972 0.7125781 0.3507964 143 149 179 255 
-0.2947708 0.02725934 0.2659258 0.06434682 0.9686019 0.2401455 128 134 160 255 
-0.3447086 0.1071797 0.0795555 0.127277 0.8707305 0.4750042 134 140 168 255 
-0.1035276 0.02725934 0.1867103 0.1243085 0.9686019 0.2153086 128 134 160 255 
-0.2 0.1071797 0.01961524 0.2458802 0.8707306 0.4258771 134 140 168 255 
-0.1928932 0.2343146 -0.1928932 0.496101 0.7125781 0.4961011 143 149 179 255 
-0.3863703 0.5929447 -0.3031876 0.4825923 0.2615725 0.8358735 172 180 216 255 
0.2659258 0.02725934 -0.2947708 0.2401455 0.9686019 0.06434681 128 134 160 255 
-0.2827912 0.4 -0.2827912 0.6104175 0.5047582 0.6104175 161 168 202 255 
-0.3031876 0.5929447 -0.3863703 0.8358735 0.2615725 0.4825924 172 180 216 255 
-0.2339746 0.4 -0.3464102 0.7476056 0.5047581 0.4316307 161 168 202 255 
-0.3393034 0.5929447 -0.3393034 0.6824881 0.2615721 0.6824881 172 180 216 255 
-0.2032872 0.4 -0.420496 0.8338459 0.5047581 0.2234287 161 168 202 255 
-0.2804843 0.5929447 -0.441181 0.9322961 0.2615728 0.2498073 172 180 216 255 
3 2 1 0 
3 1 2 3 
3 1 3 4 
3 1 4 5 
3 1 5 6 
3 1 6 7 
3 10 9 8 
3 9 10 11 
3 14 13 12 
3 13 14 15 
3 10 16 11 
3 16 10 17 
3 17 12 16 
3 12 17 14 
3 8 19 18 
3 19 8 9 
3 18 21 20 
3 21 18 19 
3 22 18 20 
3 18 22 8 
3 8 22 10 
3 10 22 17 
3 17 22 23 
3 17 23 14 
3 14 23 24 
3 14 24 25 
3 14 25 26 
3 14 26 15 
3 15 26 27 
3 15 27 28 
3 30 29 2 
3 29 30 31 
3 32 7 6 
3 7 32 33 
3 34 6 5 
3 6 34 32 
3 31 4 29 
3 4 31 35 
3 35 5 4 
3 5 35 34 
3 36 2 0 
3 2 36 30 
3 0 37 36 
3 38 37 0 
3 37 38 39 
3 39 38 40 
3 40 38 41 
3 40 41 42 
3 42 41 43 
3 43 41 21 
3 21 41 20 
3 20 41 22 
3 38 28 41 
3 28 38 44 
3 28 44 45 
3 28 45 13 
3 28 13 15 
3 44 38 46 
3 46 38 47 
3 47 38 48 
3 48 38 7 
3 48 7 33 
3 41 23 22 
3 23 41 24 
3 24 41 25 
3 25 41 26 
3 26 41 27 
3 27 41 28 
3 51 50 49 
3 50 51 52 
3 54 44 53 
3 44 54 45 
3 57 56 55 
3 56 57 53 
3 59 51 58 
3 51 59 60 
3 62 48 61 
3 48 62 47 
3 52 63 50 
3 63 52 64 
3 65 64 52 
3 64 65 55 
3 55 62 64 
3 62 55 56 
3 53 46 56 
3 46 53 44 
3 66 53 57 
3 53 66 54 
3 56 47 62 
3 47 56 46 
3 60 52 51 
3 52 60 65 
3 64 61 63 
3 61 64 62 
3 37 30 36 
3 30 37 67 
3 67 31 30 
3 31 67 49 
3 58 49 67 
3 49 58 51 
3 68 55 65 
3 55 68 57 
3 50 34 35 
3 34 50 63 
3 63 32 34 
3 32 63 61 
3 71 70 69 
3 70 71 68 
3 71 57 68 
3 57 71 66 
3 68 60 70 
3 60 68 65 
3 61 33 32 
3 33 61 48 
3 49 35 31 
3 35 49 50 
3 39 67 37 
3 67 39 58 
3 70 59 72 
3 59 70 60 
3 40 58 39 
3 58 40 59 
3 69 72 73 
3 72 69 70 
3 73 42 43 
3 42 73 72 
3 72 40 42 
3 40 72 59 
3 9 73 19 
3 73 9 69 
3 16 54 66 
3 54 16 12 
3 19 43 21 
3 43 19 73 
3 12 45 54 
3 45 12 13 
3 11 69 9 
3 69 11 71 
3 11 66 71 
3 66 11 16 
3 2 1 0 
3 1 2 3 
3 1 3 4 
3 1 4 5 
3 1 5 6 
3 1 6 7 
3 10 9 8 
3 9 10 11 
3 14 13 12 
3 13 14 15 
3 10 16 11 
3 16 10 17 
3 17 12 16 
3 12 17 14 
3 8 19 18 
3 19 8 9 
3 18 21 20 
3 21 18 19 
3 22 18 20 
3 18 22 8 
3 8 22 10 
3 10 22 17 
3 17 22 23 
3 17 23 14 
3 14 23 24 
3 14 24 25 
3 14 25 26 
3 14 26 15 
3 15 26 27 
3 15 27 28 
3 30 29 2 
3 29 30 31 
3 32 7 6 
3 7 32 33 
3 34 6 5 
3 6 34 32 
3 31 4 29 
3 4 31 35 
3 35 5 4 
3 5 35 34 
3 36 2 0 
3 2 36 30 
3 0 37 36 
3 38 37 0 
3 37 38 39 
3 39 38 40 
3 40 38 41 
3 40 41 42 
3 42 41 43 
3 43 41 21 
3 21 41 20 
3 20 41 22 
3 38 28 41 
3 28 38 44 
3 28 44 45 
3 28 45 13 
3 28 13 15 
3 44 38 46 
3 46 38 47 
3 47 38 48 
3 48 38 7 
3 48 7 33 
3 41 23 22 
3 23 41 24 
3 24 41 25 
3 25 41 26 
3 26 41 27 
3 27 41 28 
3 51 50 49 
3 50 51 52 
3 54 44 53 
3 44 54 45 
3 57 56 55 
3 56 57 53 
3 59 51 58 
3 51 59 60 
3 62 48 61 
3 48 62 47 
3 52 63 50 
3 63 52 64 
3 65 64 52 
3 64 65 55 
3 55 62 64 
3 62 55 56 
3 53 46 56 
3 46 53 44 
3 66 53 57 
3 53 66 54 
3 56 47 62 
3 47 56 46 
3 60 52 51 
3 52 60 65 
3 64 61 63 
3 61 64 62 
3 37 30 36 
3 30 37 67 
3 67 31 30 
3 31 67 49 
3 58 49 67 
3 49 58 51 
3 68 55 65 
3 55 68 57 
3 50 34 35 
3 34 50 63 
3 63 32 34 
3 32 63 61 
3 71 70 69 
3 70 71 68 
3 71 57 68 
3 57 71 66 
3 68 60 70 
3 60 68 65 
3 61 33 32 
3 33 61 48 
3 49 35 31 
3 35 49 50 
3 39 67 37 
3 67 39 58 
3 70 59 72 
3 59 70 60 
3 40 58 39 
3 58 40 59 
3 69 72 73 
3 72 69 70 
3 73 42 43 
3 42 73 72 
3 72 40 42 
3 40 72 59 
3 9 73 19 
3 73 9 69 
3 16 54 66 
3 54 16 12 
3 19 43 21 
3 43 19 73 
3 12 45 54 
3 45 12 13 
3 11 69 9 
3 69 11 71 
3 11 66 71 
3 66 11 16 
