ply
format ascii 1.0
comment VCGLIB generated
element vertex 40
property float x
property float y
property float z
property float nx
property float ny
property float nz
property uchar red
property uchar green
property uchar blue
property uchar alpha
element face 128
property list uchar int vertex_indices
end_header
0.25 1.1 0.2 0.7172836 0.6302625 0.2971086 172 180 216 255 
0.25 0.9 0.2 0.7172836 -0.6302625 0.2971086 141 148 177 255 
0.2 1.1 0.25 0.2971086 0.6302625 0.7172836 172 180 216 255 
0.2 0.9 0.25 0.2971086 -0.6302626 0.7172835 141 148 177 255 
0.2 1.1 -0.25 0.2971086 0.6302626 -0.7172835 172 180 216 255 
0.2 0.9 -0.25 0.2971086 -0.6302625 -0.7172836 141 148 177 255 
0.25 1.1 -0.2 0.7172836 0.6302625 -0.2971086 172 180 216 255 
0.25 0.9 -0.2 0.7172836 -0.6302625 -0.2971086 141 148 177 255 
-0.25 0.9 0.2 -0.7172836 -0.6302625 0.2971086 141 148 177 255 
-0.25 1.1 0.2 -0.7172836 0.6302625 0.2971086 172 180 216 255 
-0.2 0.9 0.25 -0.2971086 -0.6302625 0.7172836 141 148 177 255 
-0.2 1.1 0.25 -0.2971086 0.6302625 0.7172836 172 180 216 255 
-0.2 0.9 -0.25 -0.2971086 -0.6302625 -0.7172836 141 148 177 255 
-0.25 0.9 -0.2 -0.7172836 -0.6302625 -0.2971086 141 148 177 255 
-0.2 1.1 -0.25 -0.2971086 0.6302625 -0.7172836 172 180 216 255 
-0.25 1.1 -0.2 -0.7172836 0.6302625 -0.2971086 172 180 216 255 
0.25 0.2 0.2 0.7172836 0.6302625 0.2971086 172 180 216 255 
0.25 1.602965e-31 0.2 0.7172836 -0.6302625 0.2971087 141 148 177 255 
0.2 0.2 0.25 0.2971086 0.6302625 0.7172836 172 180 216 255 
0.2 1.602965e-31 0.25 0.2971086 -0.6302626 0.7172835 141 148 177 255 
0.2 0.2 -0.25 0.2971086 0.6302626 -0.7172835 172 180 216 255 
0.2 0 -0.25 0.2971087 -0.6302625 -0.7172836 141 148 177 255 
0.25 0.2 -0.2 0.7172836 0.6302625 -0.2971087 172 180 216 255 
0.25 0 -0.2 0.7172836 -0.6302625 -0.2971086 141 148 177 255 
-0.2 0.2 -0.25 -0.2971087 0.6302625 -0.7172836 172 180 216 255 
-0.2 0.2 0.25 -0.2971086 0.6302625 0.7172836 172 180 216 255 
-0.25 0.2 -0.2 -0.7172836 0.6302625 -0.2971086 172 180 216 255 
-0.25 0.2 0.2 -0.7172836 0.6302625 0.2971087 172 180 216 255 
-0.25 1.602965e-31 0.2 -0.7172836 -0.6302625 0.2971086 141 148 177 255 
-0.2 1.602965e-31 0.25 -0.2971087 -0.6302625 0.7172836 141 148 177 255 
-0.2 0 -0.25 -0.2971086 -0.6302625 -0.7172836 141 148 177 255 
-0.25 0 -0.2 -0.7172836 -0.6302625 -0.2971087 141 148 177 255 
-0.1575 0.2 -0.1575 -0.7066653 -0.03533326 -0.7066653 118 123 147 255 
0.1575 0.2 -0.1575 0.7066653 -0.03533326 -0.7066653 118 123 147 255 
-0.175 0.9 -0.175 -0.7066653 -0.03533326 -0.7066653 101 107 130 255 
0.175 0.9 -0.175 0.7066653 -0.03533326 -0.7066653 101 107 130 255 
-0.175 0.9 0.175 -0.7066653 -0.03533326 0.7066653 101 107 130 255 
-0.1575 0.2 0.1575 -0.7066653 -0.03533326 0.7066652 118 123 147 255 
0.1575 0.2 0.1575 0.7066653 -0.03533326 0.7066653 118 123 147 255 
0.175 0.9 0.175 0.7066652 -0.03533326 0.7066653 101 107 130 255 
3 2 1 0 
3 1 2 3 
3 6 5 4 
3 5 6 7 
3 10 9 8 
3 9 10 11 
3 3 7 1 
3 7 3 5 
3 5 3 10 
3 5 10 12 
3 12 10 8 
3 12 8 13 
3 13 14 12 
3 14 13 15 
3 8 15 13 
3 15 8 9 
3 14 5 12 
3 5 14 4 
3 0 7 6 
3 7 0 1 
3 2 10 3 
3 10 2 11 
3 4 0 6 
3 0 4 2 
3 2 4 14 
3 2 14 11 
3 11 14 15 
3 11 15 9 
3 18 17 16 
3 17 18 19 
3 22 21 20 
3 21 22 23 
3 16 23 22 
3 23 16 17 
3 20 16 22 
3 16 20 18 
3 18 20 24 
3 18 24 25 
3 25 24 26 
3 25 26 27 
3 29 27 28 
3 27 29 25 
3 24 21 30 
3 21 24 20 
3 28 26 31 
3 26 28 27 
3 18 29 19 
3 29 18 25 
3 19 23 17 
3 23 19 21 
3 21 19 29 
3 21 29 30 
3 30 29 28 
3 30 28 31 
3 31 24 30 
3 24 31 26 
3 34 33 32 
3 33 34 35 
3 32 36 34 
3 36 32 37 
3 39 37 38 
3 37 39 36 
3 39 33 35 
3 33 39 38 
3 2 1 0 
3 1 2 3 
3 6 5 4 
3 5 6 7 
3 10 9 8 
3 9 10 11 
3 3 7 1 
3 7 3 5 
3 5 3 10 
3 5 10 12 
3 12 10 8 
3 12 8 13 
3 13 14 12 
3 14 13 15 
3 8 15 13 
3 15 8 9 
3 14 5 12 
3 5 14 4 
3 0 7 6 
3 7 0 1 
3 2 10 3 
3 10 2 11 
3 4 0 6 
3 0 4 2 
3 2 4 14 
3 2 14 11 
3 11 14 15 
3 11 15 9 
3 18 17 16 
3 17 18 19 
3 22 21 20 
3 21 22 23 
3 16 23 22 
3 23 16 17 
3 20 16 22 
3 16 20 18 
3 18 20 24 
3 18 24 25 
3 25 24 26 
3 25 26 27 
3 29 27 28 
3 27 29 25 
3 24 21 30 
3 21 24 20 
3 28 26 31 
3 26 28 27 
3 18 29 19 
3 29 18 25 
3 19 23 17 
3 23 19 21 
3 21 19 29 
3 21 29 30 
3 30 29 28 
3 30 28 31 
3 31 24 30 
3 24 31 26 
3 34 33 32 
3 33 34 35 
3 32 36 34 
3 36 32 37 
3 39 37 38 
3 37 39 36 
3 39 33 35 
3 33 39 38 
