ply
format ascii 1.0
comment VCGLIB generated
element vertex 84
property float x
property float y
property float z
property float nx
property float ny
property float nz
property uchar red
property uchar green
property uchar blue
property uchar alpha
element face 204
property list uchar int vertex_indices
end_header
0.5 0 -0.5 0 1 0 126 132 158 255 
0.5 0 0.5 0 1 0 126 132 158 255 
-0.5 0 -0.5 0 1 0 126 132 158 255 
-0.5 0 0.5 0 1 0 126 132 158 255 
-0.1716288 0.025 0.1277654 0.4247963 0.7994349 -0.4247964 141 148 177 255 
-0.1716288 0.025 0.2027654 0.4247964 0.7994347 0.4247966 141 148 177 255 
-0.2466288 0.025 0.1277654 -0.4247963 0.7994349 -0.4247964 141 148 177 255 
-0.2466288 0.025 0.2027654 -0.4247963 0.7994348 0.4247966 141 148 177 255 
-0.1591288 0 0.1152654 0.5773503 0.5773504 -0.5773502 126 132 158 255 
-0.1591288 0 0.2152654 0.5773504 0.5773501 0.5773503 126 132 158 255 
-0.2591288 0 0.1152654 -0.5773503 0.5773504 -0.5773503 126 132 158 255 
-0.2591288 0 0.2152654 -0.5773504 0.5773501 0.5773503 126 132 158 255 
0.04905942 0 -0.1486915 -0.6666666 0.3333338 -0.6666666 126 132 158 255 
0.05530943 0.025 -0.1424415 -0.5033764 0.7022994 -0.5033764 141 148 177 255 
0.04905942 0 -0.09869151 -0.6666667 0.3333334 0.6666666 126 132 158 255 
0.05530943 0.025 -0.1049415 -0.5033763 0.7022993 0.5033766 141 148 177 255 
0.09280942 0.025 -0.1424415 0.5033763 0.7022995 -0.5033764 141 148 177 255 
0.09280942 0.025 -0.1049415 0.5033762 0.7022994 0.5033767 141 148 177 255 
0.09905943 0 -0.1486915 0.6666666 0.3333339 -0.6666665 126 132 158 255 
0.09905943 0 -0.09869151 0.6666667 0.3333336 0.6666666 126 132 158 255 
0.221285 0 0.02210614 0.5000002 0.8164964 0.2886752 126 132 158 255 
0.1246925 0 0.04798805 -0.2886749 0.8164964 0.5000004 126 132 158 255 
0.2059757 0.0125 0.01326731 0.367661 0.9054101 0.2122691 131 137 165 255 
0.1335313 0.0125 0.03267874 -0.2122698 0.9054099 0.3676608 131 137 165 255 
0.1954031 0 -0.07448643 0.2886753 0.8164962 -0.5000005 126 132 158 255 
0.1865643 0.0125 -0.05917713 0.2122698 0.9054098 -0.3676611 131 137 165 255 
0.09881055 0 -0.04860453 -0.4999996 0.816497 -0.2886747 126 132 158 255 
0.1141199 0.0125 -0.0397657 -0.3676604 0.9054102 -0.2122691 131 137 165 255 
0.3461725 0 0.1087051 0.7071054 0.5773528 -0.4082472 126 132 158 255 
0.3202906 0 0.2052977 0.4082489 0.5773506 0.7071062 126 132 158 255 
0.3308631 0.025 0.117544 0.5202661 0.799436 -0.3003753 141 148 177 255 
0.3114517 0.025 0.1899884 0.3003759 0.7994349 0.5202675 141 148 177 255 
0.223698 0 0.1794158 -0.7071072 0.5773495 0.4082488 126 132 158 255 
0.2390073 0.025 0.170577 -0.5202673 0.7994345 0.3003771 141 148 177 255 
0.2495799 0 0.08282322 -0.4082483 0.57735 -0.7071071 126 132 158 255 
0.2584187 0.025 0.09813253 -0.3003769 0.7994347 -0.5202672 141 148 177 255 
-0.09755582 0 0.1312122 -0.7071066 0.5773504 -0.4082484 126 132 158 255 
-0.0669372 0.05 0.1488899 -0.5202672 0.7994349 -0.3003763 157 164 197 255 
-0.04579201 0 0.3243974 -0.4082484 0.5773501 0.7071069 126 132 158 255 
-0.02811434 0.05 0.2937788 -0.3003763 0.7994346 0.5202677 157 164 197 255 
0.09562934 0 0.07944845 0.4082483 0.5773506 -0.7071065 126 132 158 255 
0.07795167 0.05 0.1100671 0.3003765 0.799435 -0.5202669 157 164 197 255 
0.1167745 0.05 0.2549559 0.5202668 0.7994353 0.3003762 157 164 197 255 
0.1473932 0 0.2726336 0.7071062 0.5773513 0.4082479 126 132 158 255 
0.02125099 0 -0.2467517 0.3692745 0.904534 -0.2132007 126 132 158 255 
-0.05639472 0 0.04302604 0.2132008 0.9045341 0.3692744 126 132 158 255 
-0.02467694 0.025 -0.2202352 0.2734134 0.9488555 -0.1578553 141 148 177 255 
-0.08291122 0.025 -0.002901896 0.1578553 0.9488556 0.2734133 141 148 177 255 
-0.2420103 0.025 -0.2784695 -0.1578554 0.9488555 -0.2734135 141 148 177 255 
-0.3002445 0.025 -0.06113618 -0.273413 0.9488556 0.1578554 141 148 177 255 
-0.2685268 0 -0.3243974 -0.2132009 0.9045339 -0.3692746 126 132 158 255 
-0.3461725 0 -0.03461968 -0.3692741 0.9045342 0.2132005 126 132 158 255 
-0.3173944 0 0.2461565 0.2886753 0.8164961 -0.5000008 126 132 158 255 
-0.3262332 0.0125 0.2614658 0.2122696 0.9054098 -0.3676612 131 137 165 255 
-0.4139869 0 0.2720384 -0.5000003 0.8164963 -0.2886756 126 132 158 255 
-0.3986776 0.0125 0.2808772 -0.3676607 0.9054099 -0.2122701 131 137 165 255 
-0.3068218 0.0125 0.3339102 0.3676611 0.9054102 0.212268 131 137 165 255 
-0.3792662 0.0125 0.3533217 -0.212268 0.9054102 0.3676612 131 137 165 255 
-0.3881051 0 0.368631 -0.2886751 0.8164971 0.4999993 126 132 158 255 
-0.2915125 0 0.3427491 0.4999993 0.816497 0.2886752 126 132 158 255 
0.3027503 0.025 -0.2265656 0.5475273 0.7994352 0.2472193 141 148 177 255 
0.232592 0.025 -0.200055 -0.2472188 0.799435 0.5475277 141 148 177 255 
0.2762398 0.025 -0.2967239 0.2472193 0.7994348 -0.5475277 141 148 177 255 
0.2060814 0.025 -0.2702133 -0.5475289 0.7994342 -0.2472189 141 148 177 255 
0.2835144 0 -0.3128354 0.3360003 0.57735 -0.7441578 126 132 158 255 
0.3188618 0 -0.219291 0.7441574 0.5773507 0.336 126 132 158 255 
0.18997 0 -0.2774879 -0.7441586 0.5773485 -0.336001 126 132 158 255 
0.2253174 0 -0.1839435 -0.3360001 0.5773503 0.7441577 126 132 158 255 
0.3462609 0 0.349198 -0.7071084 0.5773477 -0.4082492 126 132 158 255 
0.3945572 0 0.336257 0.4082498 0.5773478 -0.707108 126 132 158 255 
0.3539155 0.0125 0.3536174 -0.5202683 0.7994339 -0.300377 131 137 165 255 
0.3901378 0.0125 0.3439116 0.3003762 0.7994334 -0.5202696 131 137 165 255 
0.4074981 0 0.3845533 0.707108 0.5773476 0.40825 126 132 158 255 
0.3592018 0 0.3974943 -0.4082482 0.5773525 0.7071051 126 132 158 255 
0.3998435 0.0125 0.3801339 0.520269 0.7994336 0.3003764 131 137 165 255 
0.3636213 0.0125 0.3898396 -0.3003735 0.7994364 0.5202665 131 137 165 255 
-0.184333 0 -0.4429926 0.4082489 0.5773491 -0.7071074 126 132 158 255 
-0.1713921 0 -0.3946964 0.7071105 0.5773457 0.4082484 126 132 158 255 
-0.1887524 0.0125 -0.435338 0.3003764 0.7994339 -0.5202688 131 137 165 255 
-0.1790467 0.0125 -0.3991157 0.5202681 0.7994332 0.3003794 131 137 165 255 
-0.2196883 0 -0.3817554 -0.4082496 0.577347 0.7071087 126 132 158 255 
-0.2152689 0.0125 -0.38941 -0.3003767 0.7994335 0.5202692 131 137 165 255 
-0.2326293 0 -0.4300517 -0.7071041 0.5773538 -0.4082482 126 132 158 255 
-0.2249746 0.0125 -0.4256322 -0.5202665 0.7994361 -0.3003744 131 137 165 255 
3 2 1 0 
3 1 2 3 
3 6 5 4 
3 5 6 7 
3 4 9 8 
3 9 4 5 
3 6 8 10 
3 8 6 4 
3 5 11 9 
3 11 5 7 
3 11 6 10 
3 6 11 7 
3 14 13 12 
3 13 14 15 
3 13 17 16 
3 17 13 15 
3 13 18 12 
3 18 13 16 
3 17 14 19 
3 14 17 15 
3 16 19 18 
3 19 16 17 
3 22 21 20 
3 21 22 23 
3 26 25 24 
3 25 26 27 
3 25 23 22 
3 23 25 27 
3 27 21 23 
3 21 27 26 
3 24 22 20 
3 22 24 25 
3 30 29 28 
3 29 30 31 
3 31 32 29 
3 32 31 33 
3 35 28 34 
3 28 35 30 
3 32 35 34 
3 35 32 33 
3 35 31 30 
3 31 35 33 
3 38 37 36 
3 37 38 39 
3 37 40 36 
3 40 37 41 
3 41 39 42 
3 39 41 37 
3 41 43 40 
3 43 41 42 
3 42 38 43 
3 38 42 39 
3 46 45 44 
3 45 46 47 
3 48 47 46 
3 47 48 49 
3 50 46 44 
3 46 50 48 
3 47 51 45 
3 51 47 49 
3 50 49 48 
3 49 50 51 
3 54 53 52 
3 53 54 55 
3 53 57 56 
3 57 53 55 
3 55 58 57 
3 58 55 54 
3 56 58 59 
3 58 56 57 
3 52 56 59 
3 56 52 53 
3 62 61 60 
3 61 62 63 
3 62 65 64 
3 65 62 60 
3 67 63 66 
3 63 67 61 
3 63 64 66 
3 64 63 62 
3 60 67 65 
3 67 60 61 
3 70 69 68 
3 69 70 71 
3 74 73 72 
3 73 74 75 
3 71 75 74 
3 75 71 70 
3 71 72 69 
3 72 71 74 
3 73 70 68 
3 70 73 75 
3 78 77 76 
3 77 78 79 
3 79 80 77 
3 80 79 81 
3 80 83 82 
3 83 80 81 
3 78 81 79 
3 81 78 83 
3 83 76 82 
3 76 83 78 
3 2 1 0 
3 1 2 3 
3 6 5 4 
3 5 6 7 
3 4 9 8 
3 9 4 5 
3 6 8 10 
3 8 6 4 
3 5 11 9 
3 11 5 7 
3 11 6 10 
3 6 11 7 
3 14 13 12 
3 13 14 15 
3 13 17 16 
3 17 13 15 
3 13 18 12 
3 18 13 16 
3 17 14 19 
3 14 17 15 
3 16 19 18 
3 19 16 17 
3 22 21 20 
3 21 22 23 
3 26 25 24 
3 25 26 27 
3 25 23 22 
3 23 25 27 
3 27 21 23 
3 21 27 26 
3 24 22 20 
3 22 24 25 
3 30 29 28 
3 29 30 31 
3 31 32 29 
3 32 31 33 
3 35 28 34 
3 28 35 30 
3 32 35 34 
3 35 32 33 
3 35 31 30 
3 31 35 33 
3 38 37 36 
3 37 38 39 
3 37 40 36 
3 40 37 41 
3 41 39 42 
3 39 41 37 
3 41 43 40 
3 43 41 42 
3 42 38 43 
3 38 42 39 
3 46 45 44 
3 45 46 47 
3 48 47 46 
3 47 48 49 
3 50 46 44 
3 46 50 48 
3 47 51 45 
3 51 47 49 
3 50 49 48 
3 49 50 51 
3 54 53 52 
3 53 54 55 
3 53 57 56 
3 57 53 55 
3 55 58 57 
3 58 55 54 
3 56 58 59 
3 58 56 57 
3 52 56 59 
3 56 52 53 
3 62 61 60 
3 61 62 63 
3 62 65 64 
3 65 62 60 
3 67 63 66 
3 63 67 61 
3 63 64 66 
3 64 63 62 
3 60 67 65 
3 67 60 61 
3 70 69 68 
3 69 70 71 
3 74 73 72 
3 73 74 75 
3 71 75 74 
3 75 71 70 
3 71 72 69 
3 72 71 74 
3 73 70 68 
3 70 73 75 
3 78 77 76 
3 77 78 79 
3 79 80 77 
3 80 79 81 
3 80 83 82 
3 83 80 81 
3 78 81 79 
3 81 78 83 
3 83 76 82 
3 76 83 78 
