ply
format ascii 1.0
comment VCGLIB generated
element vertex 88
property float x
property float y
property float z
property float nx
property float ny
property float nz
property uchar red
property uchar green
property uchar blue
property uchar alpha
element face 296
property list uchar int vertex_indices
end_header
0.31875 8.014827e-32 0.06375 0.6267932 -0.462883 -0.6267932 90 96 120 255 
0.31875 8.014827e-32 0.31875 0.6267931 -0.462883 0.6267932 90 96 120 255 
0.299625 0.085 0.082875 0.5112879 0.6907746 -0.5112879 131 136 158 255 
0.299625 0.085 0.299625 0.5112879 0.6907744 0.5112879 131 136 158 255 
0.06375 8.014827e-32 0.31875 -0.6267932 -0.462883 0.6267932 90 96 120 255 
0.082875 0.085 0.299625 -0.5112879 0.6907745 0.5112879 131 136 158 255 
0.06375 8.014827e-32 0.06375 -0.6267933 -0.4628828 -0.6267933 90 96 120 255 
0.082875 0.085 0.082875 -0.5112879 0.6907745 -0.5112879 131 136 158 255 
0.2514035 0.085 0.1310965 -0.177374 0.9680274 0.1773741 146 153 183 255 
0.2514035 0.085 0.2514035 -0.1773741 0.9680273 -0.1773741 146 153 183 255 
0.1310965 0.085 0.1310965 0.1773741 0.9680274 0.1773741 146 153 183 255 
0.1310965 0.085 0.2514035 0.177374 0.9680274 -0.1773741 146 153 183 255 
0.2514035 -9.002736e-18 0.2514035 -0.3015113 -0.904534 -0.3015113 54 54 58 255 
0.2514035 -9.002736e-18 0.1310965 -0.3015113 -0.904534 0.3015113 54 54 58 255 
0.1310965 -9.002736e-18 0.2514035 0.3015113 -0.904534 -0.3015113 54 54 58 255 
0.1310965 -9.002736e-18 0.1310965 0.3015113 -0.9045341 0.3015113 54 54 58 255 
0.3170496 3.38396e-17 -0.3132588 0.6267932 -0.462883 -0.6267931 90 96 120 255 
0.3170496 3.38396e-17 -0.05825885 0.6267931 -0.4628831 0.6267932 90 96 120 255 
0.2979246 0.085 -0.2941338 0.5112879 0.6907745 -0.5112879 131 136 158 255 
0.2979246 0.085 -0.07738385 0.5112879 0.6907745 0.5112879 131 136 158 255 
0.06204963 3.38396e-17 -0.05825885 -0.6267931 -0.462883 0.6267933 90 96 120 255 
0.08117463 0.085 -0.07738385 -0.5112879 0.6907745 0.5112879 131 136 158 255 
0.06204963 3.38396e-17 -0.3132588 -0.6267931 -0.4628833 -0.6267931 90 96 120 255 
0.08117463 0.085 -0.2941338 -0.5112879 0.6907746 -0.5112879 131 136 158 255 
0.2497031 0.085 -0.2459124 -0.3015113 0.9045341 0.3015113 69 69 79 255 
0.2497031 0.085 -0.1256053 -0.3015114 0.904534 -0.3015114 69 69 79 255 
0.1293961 0.085 -0.2459124 0.3015113 0.904534 0.3015113 69 69 79 255 
0.1293961 0.085 -0.1256053 0.3015113 0.9045341 -0.3015113 69 69 79 255 
0.2497031 2.483686e-17 -0.1256053 -0.3015113 -0.9045341 -0.3015113 54 54 58 255 
0.2497031 2.483686e-17 -0.2459124 -0.3015113 -0.904534 0.3015113 54 54 58 255 
0.1293961 2.483686e-17 -0.1256053 0.3015113 -0.904534 -0.3015113 54 54 58 255 
0.1293961 2.483686e-17 -0.2459124 0.3015113 -0.9045341 0.3015113 54 54 58 255 
-0.06375 9.002736e-18 0.05825885 0.6267931 -0.462883 -0.6267932 90 96 120 255 
-0.06375 9.002736e-18 0.3132588 0.6267933 -0.4628829 0.6267932 90 96 120 255 
-0.082875 0.085 0.07738385 0.5112879 0.6907746 -0.5112878 131 136 158 255 
-0.082875 0.085 0.2941338 0.5112879 0.6907745 0.5112879 131 136 158 255 
-0.31875 9.002736e-18 0.3132588 -0.6267932 -0.4628831 0.6267931 90 96 120 255 
-0.299625 0.085 0.2941338 -0.5112879 0.6907746 0.5112879 131 136 158 255 
-0.31875 9.002736e-18 0.05825885 -0.626793 -0.4628831 -0.6267932 90 96 120 255 
-0.299625 0.085 0.07738385 -0.5112879 0.6907745 -0.5112879 131 136 158 255 
-0.1310965 0.085 0.1256053 -0.177374 0.9680274 0.1773741 146 153 183 255 
-0.1310965 0.085 0.2459124 -0.1773741 0.9680274 -0.1773741 146 153 183 255 
-0.2514035 0.085 0.1256053 0.1773741 0.9680274 0.1773741 146 153 183 255 
-0.2514035 0.085 0.2459124 0.1773741 0.9680274 -0.1773741 146 153 183 255 
-0.1310965 0 0.2459124 -0.3015113 -0.9045341 -0.3015113 54 54 58 255 
-0.1310965 0 0.1256053 -0.3015113 -0.904534 0.3015113 54 54 58 255 
-0.2514035 0 0.2459124 0.3015113 -0.904534 -0.3015113 54 54 58 255 
-0.2514035 0 0.1256053 0.3015113 -0.9045341 0.3015113 54 54 58 255 
-0.06545039 4.284233e-17 -0.31875 0.6267933 -0.4628829 -0.6267932 90 96 120 255 
-0.06545039 4.284233e-17 -0.06375 0.6267932 -0.4628829 0.6267933 90 96 120 255 
-0.08457538 0.085 -0.299625 0.5112879 0.6907745 -0.5112879 131 136 158 255 
-0.08457538 0.085 -0.082875 0.5112879 0.6907745 0.5112879 131 136 158 255 
-0.3204504 4.284233e-17 -0.06375 -0.6267932 -0.462883 0.6267932 90 96 120 255 
-0.3013254 0.085 -0.082875 -0.5112879 0.6907745 0.5112879 131 136 158 255 
-0.3204504 4.284233e-17 -0.31875 -0.6267932 -0.4628829 -0.6267932 90 96 120 255 
-0.3013254 0.085 -0.299625 -0.5112879 0.6907744 -0.5112879 131 136 158 255 
-0.1327969 0.085 -0.2514035 -0.3015113 0.9045341 0.3015113 69 69 79 255 
-0.1327969 0.085 -0.1310965 -0.3015113 0.904534 -0.3015113 69 69 79 255 
-0.2531039 0.085 -0.2514035 0.3015113 0.904534 0.3015113 69 69 79 255 
-0.2531039 0.085 -0.1310965 0.3015113 0.9045341 -0.3015113 69 69 79 255 
-0.1327969 3.383959e-17 -0.1310965 -0.3015113 -0.9045341 -0.3015113 54 54 58 255 
-0.1327969 3.383959e-17 -0.2514035 -0.3015113 -0.904534 0.3015113 54 54 58 255 
-0.2531039 3.383959e-17 -0.1310965 0.3015113 -0.904534 -0.3015113 54 54 58 255 
-0.2531039 3.383959e-17 -0.2514035 0.3015113 -0.9045341 0.3015113 54 54 58 255 
0.2095968 0.255 0.1729032 0.5046705 0.7004395 -0.5046706 189 198 237 255 
0.2095968 0.255 0.2095968 0.5046705 0.7004395 0.5046705 189 198 237 255 
0.1729032 0.255 0.2095968 -0.5046706 0.7004395 0.5046705 189 198 237 255 
0.1729032 0.255 0.1729032 -0.5046706 0.7004395 -0.5046705 189 198 237 255 
-0.1310965 0.085 -0.2514035 0.6678685 0.3284869 -0.6678684 146 153 183 255 
-0.1310965 0.085 -0.1310965 0.6678683 0.3284868 0.6678686 146 153 183 255 
-0.1729032 0.255 -0.2095968 0.5046706 0.7004395 -0.5046705 189 198 237 255 
-0.1729032 0.255 -0.1729032 0.5046706 0.7004395 0.5046704 189 198 237 255 
-0.2514035 0.085 -0.1310965 -0.6678684 0.3284868 0.6678684 146 153 183 255 
-0.2095968 0.255 -0.1729032 -0.5046705 0.7004395 0.5046706 189 198 237 255 
-0.2514035 0.085 -0.2514035 -0.6678684 0.3284869 -0.6678684 146 153 183 255 
-0.2095968 0.255 -0.2095968 -0.5046705 0.7004395 -0.5046705 189 198 237 255 
-0.1729032 0.255 0.167412 0.5046705 0.7004395 -0.5046706 189 198 237 255 
-0.1729032 0.255 0.2041057 0.5046706 0.7004395 0.5046704 189 198 237 255 
-0.2095968 0.255 0.2041057 -0.5046704 0.7004395 0.5046705 189 198 237 255 
-0.2095968 0.255 0.167412 -0.5046705 0.7004395 -0.5046706 189 198 237 255 
0.2497031 0.085 -0.2459124 0.6678686 0.3284868 -0.6678683 146 153 183 255 
0.2497031 0.085 -0.1256053 0.6678683 0.3284868 0.6678686 146 153 183 255 
0.2078964 0.255 -0.2041057 0.5046705 0.7004395 -0.5046706 189 198 237 255 
0.2078964 0.255 -0.167412 0.5046706 0.7004395 0.5046704 189 198 237 255 
0.1293961 0.085 -0.2459124 -0.6678684 0.3284867 -0.6678684 146 153 183 255 
0.1712028 0.255 -0.2041057 -0.5046705 0.7004395 -0.5046704 189 198 237 255 
0.1293961 0.085 -0.1256053 -0.6678684 0.3284868 0.6678684 146 153 183 255 
0.1712028 0.255 -0.167412 -0.5046705 0.7004394 0.5046705 189 198 237 255 
3 2 1 0 
3 1 2 3 
3 3 4 1 
3 4 3 5 
3 7 0 6 
3 0 7 2 
3 4 7 6 
3 7 4 5 
3 2 8 3 
3 8 2 7 
3 9 3 8 
3 8 7 10 
3 3 9 5 
3 10 7 11 
3 5 9 11 
3 5 11 7 
3 1 12 0 
3 12 1 4 
3 13 0 12 
3 12 4 14 
3 0 13 6 
3 14 4 15 
3 6 13 15 
3 6 15 4 
3 18 17 16 
3 17 18 19 
3 19 20 17 
3 20 19 21 
3 23 16 22 
3 16 23 18 
3 20 23 22 
3 23 20 21 
3 18 24 19 
3 24 18 23 
3 25 19 24 
3 24 23 26 
3 19 25 21 
3 26 23 27 
3 21 25 27 
3 21 27 23 
3 17 28 16 
3 28 17 20 
3 29 16 28 
3 28 20 30 
3 16 29 22 
3 30 20 31 
3 22 29 31 
3 22 31 20 
3 34 33 32 
3 33 34 35 
3 35 36 33 
3 36 35 37 
3 39 32 38 
3 32 39 34 
3 36 39 38 
3 39 36 37 
3 34 40 35 
3 40 34 39 
3 41 35 40 
3 40 39 42 
3 35 41 37 
3 42 39 43 
3 37 41 43 
3 37 43 39 
3 33 44 32 
3 44 33 36 
3 45 32 44 
3 44 36 46 
3 32 45 38 
3 46 36 47 
3 38 45 47 
3 38 47 36 
3 50 49 48 
3 49 50 51 
3 51 52 49 
3 52 51 53 
3 55 48 54 
3 48 55 50 
3 52 55 54 
3 55 52 53 
3 50 56 51 
3 56 50 55 
3 57 51 56 
3 56 55 58 
3 51 57 53 
3 58 55 59 
3 53 57 59 
3 53 59 55 
3 49 60 48 
3 60 49 52 
3 61 48 60 
3 60 52 62 
3 48 61 54 
3 62 52 63 
3 54 61 63 
3 54 63 52 
3 8 15 13 
3 15 8 10 
3 11 15 10 
3 15 11 14 
3 11 12 14 
3 12 11 9 
3 12 8 13 
3 8 12 9 
3 24 31 29 
3 31 24 26 
3 27 31 26 
3 31 27 30 
3 27 28 30 
3 28 27 25 
3 28 24 29 
3 24 28 25 
3 40 47 45 
3 47 40 42 
3 43 47 42 
3 47 43 46 
3 43 44 46 
3 44 43 41 
3 44 40 45 
3 40 44 41 
3 56 63 61 
3 63 56 58 
3 59 63 58 
3 63 59 62 
3 59 60 62 
3 60 59 57 
3 60 56 61 
3 56 60 57 
3 2 1 0 
3 1 2 3 
3 3 4 1 
3 4 3 5 
3 7 0 6 
3 0 7 2 
3 4 7 6 
3 7 4 5 
3 2 8 3 
3 8 2 7 
3 9 3 8 
3 8 7 10 
3 3 9 5 
3 10 7 11 
3 5 9 11 
3 5 11 7 
3 1 12 0 
3 12 1 4 
3 13 0 12 
3 12 4 14 
3 0 13 6 
3 14 4 15 
3 6 13 15 
3 6 15 4 
3 18 17 16 
3 17 18 19 
3 19 20 17 
3 20 19 21 
3 23 16 22 
3 16 23 18 
3 20 23 22 
3 23 20 21 
3 18 24 19 
3 24 18 23 
3 25 19 24 
3 24 23 26 
3 19 25 21 
3 26 23 27 
3 21 25 27 
3 21 27 23 
3 17 28 16 
3 28 17 20 
3 29 16 28 
3 28 20 30 
3 16 29 22 
3 30 20 31 
3 22 29 31 
3 22 31 20 
3 34 33 32 
3 33 34 35 
3 35 36 33 
3 36 35 37 
3 39 32 38 
3 32 39 34 
3 36 39 38 
3 39 36 37 
3 34 40 35 
3 40 34 39 
3 41 35 40 
3 40 39 42 
3 35 41 37 
3 42 39 43 
3 37 41 43 
3 37 43 39 
3 33 44 32 
3 44 33 36 
3 45 32 44 
3 44 36 46 
3 32 45 38 
3 46 36 47 
3 38 45 47 
3 38 47 36 
3 50 49 48 
3 49 50 51 
3 51 52 49 
3 52 51 53 
3 55 48 54 
3 48 55 50 
3 52 55 54 
3 55 52 53 
3 50 56 51 
3 56 50 55 
3 57 51 56 
3 56 55 58 
3 51 57 53 
3 58 55 59 
3 53 57 59 
3 53 59 55 
3 49 60 48 
3 60 49 52 
3 61 48 60 
3 60 52 62 
3 48 61 54 
3 62 52 63 
3 54 61 63 
3 54 63 52 
3 8 15 13 
3 15 8 10 
3 11 15 10 
3 15 11 14 
3 11 12 14 
3 12 11 9 
3 12 8 13 
3 8 12 9 
3 24 31 29 
3 31 24 26 
3 27 31 26 
3 31 27 30 
3 27 28 30 
3 28 27 25 
3 28 24 29 
3 24 28 25 
3 40 47 45 
3 47 40 42 
3 43 47 42 
3 47 43 46 
3 43 44 46 
3 44 43 41 
3 44 40 45 
3 40 44 41 
3 56 63 61 
3 63 56 58 
3 59 63 58 
3 63 59 62 
3 59 60 62 
3 60 59 57 
3 60 56 61 
3 56 60 57 
3 64 9 8 
3 9 64 65 
3 65 11 9 
3 11 65 66 
3 11 67 10 
3 67 11 66 
3 67 8 10 
3 8 67 64 
3 67 65 64 
3 65 67 66 
3 70 69 68 
3 69 70 71 
3 71 72 69 
3 72 71 73 
3 75 68 74 
3 68 75 70 
3 72 75 74 
3 75 72 73 
3 75 71 70 
3 71 75 73 
3 76 41 40 
3 41 76 77 
3 77 43 41 
3 43 77 78 
3 79 77 76 
3 77 79 78 
3 79 40 42 
3 40 79 76 
3 43 79 42 
3 79 43 78 
3 82 81 80 
3 81 82 83 
3 85 80 84 
3 80 85 82 
3 83 86 81 
3 86 83 87 
3 85 83 82 
3 83 85 87 
3 86 85 84 
3 85 86 87 
