ply
format ascii 1.0
comment VCGLIB generated
element vertex 106
property float x
property float y
property float z
property float nx
property float ny
property float nz
property uchar red
property uchar green
property uchar blue
property uchar alpha
element face 300
property list uchar int vertex_indices
end_header
-0.5 0 -0.5 -0.7071068 0 -0.7071068 54 54 58 255 
0.5 0 -0.5 0.7071067 0 -0.7071068 54 54 58 255 
-0.5 0.9 -0.5 -0.5773503 0.5773503 -0.5773503 69 69 79 255 
0.5 0.9 -0.5 0.5773503 0.5773503 -0.5773503 69 69 79 255 
-0.5 0.9 -7.450574e-09 -0.7071068 0.7071068 0 69 69 79 255 
0.5 0.9 -7.450573e-09 0.7071067 0.7071068 0 69 69 79 255 
0.5 0 -7.450573e-09 1 0 0 54 54 58 255 
-0.5 0 -7.450574e-09 -1 0 0 54 54 58 255 
-0.5 0.9 0.3 -0.9701425 0.2425356 0 183 192 230 255 
-0.5 0.9 -1.490116e-08 -0.7071067 0.7071068 0 69 69 79 255 
0.5 0.9 0.3 0.9701425 0.2425356 0 183 192 230 255 
0.5 0.9 -1.490116e-08 0.7071068 0.7071068 0 69 69 79 255 
0.5 0 0.3 1 0 0 126 132 158 255 
0.5 0 -1.490116e-08 1 0 0 54 54 58 255 
-0.5 0 0.3 -1 0 0 126 132 158 255 
-0.5 0 -1.490116e-08 -1 0 0 54 54 58 255 
-0.05323037 0.9 -0.1129115 -0.2440173 0.3333327 -0.9106838 61 61 68 255 
0.01085551 0.9 -0.07591151 0.9106837 0.3333332 -0.244017 61 61 68 255 
-0.04984463 0.937 -0.1002758 -0.1842485 0.702299 -0.6876253 69 69 79 255 
-0.001780221 0.937 -0.07252575 0.6876252 0.7022993 -0.1842479 69 69 79 255 
-0.09023036 0.9 -0.04882562 -0.9106836 0.3333333 0.2440171 61 61 68 255 
-0.07759463 0.937 -0.05221136 -0.6876252 0.7022992 0.1842486 69 69 79 255 
-0.02953022 0.937 -0.02446136 0.1842486 0.7022992 0.6876251 69 69 79 255 
-0.02614449 0.9 -0.01182562 0.2440168 0.3333334 0.9106836 61 61 68 255 
-0.3255301 0.9 0.1122049 0.9106833 0.3333345 0.2440165 61 61 68 255 
-0.3381659 0.937 0.1088192 0.6876246 0.7022997 0.1842492 69 69 79 255 
-0.3625301 0.9 0.04811902 0.2440176 0.3333338 -0.9106833 61 61 68 255 
-0.3659159 0.937 0.06075475 0.1842484 0.7022992 -0.6876252 69 69 79 255 
-0.389616 0.9 0.1492049 -0.2440169 0.3333325 0.9106839 61 61 68 255 
-0.3862303 0.937 0.1365692 -0.1842486 0.7022988 0.6876255 69 69 79 255 
-0.426616 0.9 0.08511902 -0.9106838 0.3333326 -0.2440171 61 61 68 255 
-0.4139803 0.937 0.08850475 -0.6876253 0.702299 -0.1842488 69 69 79 255 
0.3165098 0.9 0.1597562 0.7071064 0.5773509 0.4082482 61 61 68 255 
0.293852 0.937 0.1466747 0.520267 0.7994351 0.3003763 69 69 79 255 
0.2782046 0.9 0.01679915 0.4082485 0.5773504 -0.7071066 61 61 68 255 
0.2651231 0.937 0.03945693 0.3003763 0.7994349 -0.5202672 69 69 79 255 
0.1735528 0.9 0.1980614 -0.4082478 0.5773501 0.7071072 61 61 68 255 
0.1352475 0.9 0.05510437 -0.7071068 0.5773503 -0.4082482 61 61 68 255 
0.1866342 0.937 0.1754036 -0.3003769 0.7994348 0.5202669 69 69 79 255 
0.1579053 0.937 0.06818585 -0.5202671 0.7994349 -0.3003764 69 69 79 255 
-0.2144184 0.937 0.07749929 -0.6165086 0.7022986 0.3559408 69 69 79 255 
-0.2000539 0.937 0.02389041 -0.355941 0.7022991 -0.6165079 69 69 79 255 
-0.1608095 0.937 0.09186375 0.3559403 0.7022993 0.6165081 69 69 79 255 
-0.146445 0.937 0.03825486 0.6165078 0.7022993 -0.3559409 69 69 79 255 
-0.2257472 0.9 0.08404003 -0.8164969 0.3333315 0.4714052 61 61 68 255 
-0.2065946 0.9 0.01256152 -0.4714043 0.3333326 -0.816497 61 61 68 255 
-0.1351161 0.9 0.03171413 0.8164966 0.3333339 -0.4714042 61 61 68 255 
-0.1542687 0.9 0.1031926 0.4714054 0.3333333 0.8164961 61 61 68 255 
0.3762485 0.9 0.08765954 -0.8164964 0.333334 -0.4714045 61 61 68 255 
0.447727 0.9 0.06850693 0.4714045 0.3333332 -0.8164967 61 61 68 255 
0.3875774 0.937 0.09420028 -0.6165078 0.7022994 -0.3559408 69 69 79 255 
0.4411863 0.937 0.07983582 0.3559419 0.7022989 -0.6165076 69 69 79 255 
0.4019419 0.937 0.1478092 -0.35594 0.7022994 0.6165082 69 69 79 255 
0.4555507 0.937 0.1334447 0.6165079 0.7022992 0.3559409 69 69 79 255 
0.4668796 0.9 0.1399854 0.816497 0.3333332 0.4714038 61 61 68 255 
0.3954011 0.9 0.1591381 -0.4714046 0.3333341 0.8164963 61 61 68 255 
0.5 0 0.5 0.7071068 0 0.7071068 126 132 158 255 
0.5 0.9499999 0.5 0.6302626 0.2971084 0.7172837 186 195 233 255 
0.5 1 0.45 0.6302624 0.7172835 0.2971088 189 198 237 255 
0.5 1 0.25 0.5773503 0.5773503 -0.5773503 189 198 237 255 
0.5 0.9 0.25 0.7071068 0 -0.7071068 183 192 230 255 
0.4 0 0.5 -0.5773502 0.5773504 0.5773503 126 132 158 255 
0.4 0.9499999 0.5 -0.6302626 0.2971084 0.7172836 186 195 233 255 
-0.5 0.9 0.25 -0.7071068 0 -0.7071068 183 192 230 255 
-0.5 1 0.25 -0.5773503 0.5773503 -0.5773503 189 198 237 255 
-0.5 1 0.45 -0.6302624 0.7172835 0.2971088 189 198 237 255 
-0.5 0 0.5 -0.7071067 0 0.7071068 126 132 158 255 
-0.5 0.9499999 0.5 -0.6302626 0.2971084 0.7172836 186 195 233 255 
-0.4 1 0.25 0.5773503 0.5773503 -0.5773503 189 198 237 255 
-0.4 1 0.45 0.6302624 0.7172835 0.2971088 189 198 237 255 
0.4 1 0.45 -0.6302623 0.7172836 0.2971089 189 198 237 255 
0.4 1 0.25 -0.5773503 0.5773503 -0.5773503 189 198 237 255 
0.4 0.9 0.25 -0.7071068 0 -0.7071068 183 192 230 255 
0.4 0.9 0.3 -0.8944272 0.4472137 0 183 192 230 255 
0.4 0.9 0.4 -0.8102876 0.5300863 0.2498851 183 192 230 255 
0.4 0 0.4 -0.5773502 0.5773503 0.5773503 90 96 120 255 
0.4 0.7 0.4 0.3693979 -0.2612038 0.8918059 118 123 147 255 
-0.4 0.7 0.4 -0.369398 -0.2612038 0.8918059 118 123 147 255 
-0.35 0.7 0.45 -0.2971085 -0.6302626 0.7172835 169 177 213 255 
0.35 0.7 0.45 0.2971085 -0.6302626 0.7172836 169 177 213 255 
-0.4 0 0.5 0.5773503 0.5773503 0.5773503 126 132 158 255 
-0.4 0 0.4 0.5773501 0.5773503 0.5773504 90 96 120 255 
0.35 0.9 0.45 0.2971085 0.6302626 0.7172836 183 192 230 255 
-0.35 0.9 0.45 -0.2971085 0.6302626 0.7172835 183 192 230 255 
-0.4 0.9 0.25 0.7071068 0 -0.7071068 183 192 230 255 
-0.4 0.9499999 0.5 0.6302626 0.2971084 0.7172837 186 195 233 255 
-0.4 0.9 0.4 0.8102877 0.5300862 0.2498851 183 192 230 255 
-0.4 0.9 0.3 0.8944272 0.4472136 0 183 192 230 255 
-0.2 0.95 0.45 -0.7172836 0.6302626 0.2971085 189 198 237 255 
-0.2 0.95 0.3 -0.7172836 0.6302626 -0.2971086 189 198 237 255 
-0.15 0.95 0.5 -0.2971087 0.6302624 0.7172835 189 198 237 255 
-0.15 0.95 0.25 -0.2971086 0.6302625 -0.7172835 189 198 237 255 
0.15 0.95 0.5 0.2971087 0.6302626 0.7172835 189 198 237 255 
0.15 0.95 0.25 0.2971087 0.6302624 -0.7172835 189 198 237 255 
0.2 0.95 0.45 0.7172836 0.6302626 0.2971085 189 198 237 255 
0.2 0.95 0.3 0.7172836 0.6302626 -0.2971086 189 198 237 255 
-0.2 0.7 0.45 -0.6324556 -0.4472136 0.6324555 126 132 158 255 
-0.15 0.7 0.5 -0.2971086 -0.6302625 0.7172835 126 132 158 255 
0.2 0.7 0.45 0.6324556 -0.4472137 0.6324554 126 132 158 255 
0.15 0.7 0.5 0.2971087 -0.6302624 0.7172836 126 132 158 255 
0.2 0.8 0.45 1 0 0 151 158 190 255 
0.2 0.8 0.3 0.9238796 0 -0.3826834 151 158 190 255 
0.15 0.8 0.25 0.3826835 0 -0.9238795 151 158 190 255 
-0.15 0.8 0.25 -0.3826835 0 -0.9238795 151 158 190 255 
-0.2 0.8 0.3 -0.9238796 0 -0.3826834 151 158 190 255 
-0.2 0.8 0.45 -1 0 1.897275e-08 151 158 190 255 
3 2 1 0 
3 1 2 3 
3 5 2 4 
3 2 5 3 
3 1 5 6 
3 5 1 3 
3 2 7 4 
3 7 2 0 
3 10 9 8 
3 9 10 11 
3 13 10 12 
3 10 13 11 
3 9 14 8 
3 14 9 15 
3 18 17 16 
3 17 18 19 
3 21 16 20 
3 16 21 18 
3 22 18 21 
3 18 22 19 
3 17 22 23 
3 22 17 19 
3 22 20 23 
3 20 22 21 
3 26 25 24 
3 25 26 27 
3 25 28 24 
3 28 25 29 
3 29 30 28 
3 30 29 31 
3 29 27 31 
3 27 29 25 
3 31 26 30 
3 26 31 27 
3 34 33 32 
3 33 34 35 
3 38 37 36 
3 37 38 39 
3 39 34 37 
3 34 39 35 
3 38 35 39 
3 35 38 33 
3 33 36 32 
3 36 33 38 
3 42 41 40 
3 41 42 43 
3 40 45 44 
3 45 40 41 
3 41 46 45 
3 46 41 43 
3 46 42 47 
3 42 46 43 
3 42 44 47 
3 44 42 40 
3 50 49 48 
3 49 50 51 
3 52 51 50 
3 51 52 53 
3 49 53 54 
3 53 49 51 
3 52 48 55 
3 48 52 50 
3 53 55 54 
3 55 53 52 
3 12 57 56 
3 57 12 58 
3 58 12 10 
3 58 10 59 
3 59 10 60 
3 57 61 56 
3 61 57 62 
3 8 64 63 
3 64 8 65 
3 14 65 8 
3 66 65 14 
3 65 66 67 
3 65 68 64 
3 68 65 69 
3 58 71 70 
3 71 58 59 
3 73 71 72 
3 74 71 73 
3 71 74 70 
3 75 70 74 
3 75 74 76 
3 61 70 75 
3 70 61 62 
3 76 78 77 
3 78 76 79 
3 61 81 80 
3 81 61 75 
3 82 78 79 
3 78 82 83 
3 71 60 72 
3 60 71 59 
3 64 84 63 
3 84 64 68 
3 81 85 80 
3 85 81 69 
3 69 81 86 
3 86 81 77 
3 69 86 68 
3 68 86 87 
3 68 87 84 
3 85 66 80 
3 66 85 67 
3 69 67 85 
3 67 69 65 
3 58 62 57 
3 62 58 70 
3 86 73 87 
3 73 86 83 
3 73 83 82 
3 73 82 74 
3 86 78 83 
3 78 86 77 
3 76 82 79 
3 82 76 74 
3 90 89 88 
3 89 90 91 
3 91 90 92 
3 91 92 93 
3 93 92 94 
3 93 94 95 
3 98 97 96 
3 97 98 99 
3 100 95 94 
3 95 100 101 
3 102 95 101 
3 95 102 93 
3 91 102 103 
3 102 91 93 
3 91 104 89 
3 104 91 103 
3 89 105 88 
3 105 89 104 
3 88 97 90 
3 97 88 96 
3 96 88 105 
3 92 97 99 
3 97 92 90 
3 98 92 99 
3 92 98 94 
3 94 98 100 
3 105 98 96 
3 98 105 100 
3 96 98 105 
3 100 105 98 
3 76 81 75 
3 81 76 77 
3 2 1 0 
3 1 2 3 
3 5 2 4 
3 2 5 3 
3 1 5 6 
3 5 1 3 
3 2 7 4 
3 7 2 0 
3 10 9 8 
3 9 10 11 
3 13 10 12 
3 10 13 11 
3 9 14 8 
3 14 9 15 
3 18 17 16 
3 17 18 19 
3 21 16 20 
3 16 21 18 
3 22 18 21 
3 18 22 19 
3 17 22 23 
3 22 17 19 
3 22 20 23 
3 20 22 21 
3 26 25 24 
3 25 26 27 
3 25 28 24 
3 28 25 29 
3 29 30 28 
3 30 29 31 
3 29 27 31 
3 27 29 25 
3 31 26 30 
3 26 31 27 
3 34 33 32 
3 33 34 35 
3 38 37 36 
3 37 38 39 
3 39 34 37 
3 34 39 35 
3 38 35 39 
3 35 38 33 
3 33 36 32 
3 36 33 38 
3 42 41 40 
3 41 42 43 
3 40 45 44 
3 45 40 41 
3 41 46 45 
3 46 41 43 
3 46 42 47 
3 42 46 43 
3 42 44 47 
3 44 42 40 
3 50 49 48 
3 49 50 51 
3 52 51 50 
3 51 52 53 
3 49 53 54 
3 53 49 51 
3 52 48 55 
3 48 52 50 
3 53 55 54 
3 55 53 52 
3 12 57 56 
3 57 12 58 
3 58 12 10 
3 58 10 59 
3 59 10 60 
3 57 61 56 
3 61 57 62 
3 8 64 63 
3 64 8 65 
3 14 65 8 
3 66 65 14 
3 65 66 67 
3 65 68 64 
3 68 65 69 
3 58 71 70 
3 71 58 59 
3 73 71 72 
3 74 71 73 
3 71 74 70 
3 75 70 74 
3 75 74 76 
3 61 70 75 
3 70 61 62 
3 76 78 77 
3 78 76 79 
3 61 81 80 
3 81 61 75 
3 82 78 79 
3 78 82 83 
3 71 60 72 
3 60 71 59 
3 64 84 63 
3 84 64 68 
3 81 85 80 
3 85 81 69 
3 69 81 86 
3 86 81 77 
3 69 86 68 
3 68 86 87 
3 68 87 84 
3 85 66 80 
3 66 85 67 
3 69 67 85 
3 67 69 65 
3 58 62 57 
3 62 58 70 
3 86 73 87 
3 73 86 83 
3 73 83 82 
3 73 82 74 
3 86 78 83 
3 78 86 77 
3 76 82 79 
3 82 76 74 
3 90 89 88 
3 89 90 91 
3 91 90 92 
3 91 92 93 
3 93 92 94 
3 93 94 95 
3 98 97 96 
3 97 98 99 
3 100 95 94 
3 95 100 101 
3 102 95 101 
3 95 102 93 
3 91 102 103 
3 102 91 93 
3 91 104 89 
3 104 91 103 
3 89 105 88 
3 105 89 104 
3 88 97 90 
3 97 88 96 
3 96 88 105 
3 92 97 99 
3 97 92 90 
3 98 92 99 
3 92 98 94 
3 94 98 100 
3 105 98 96 
3 98 105 100 
3 96 98 105 
3 100 105 98 
3 76 81 75 
3 81 76 77 
