ply
format ascii 1.0
comment VCGLIB generated
element vertex 91
property float x
property float y
property float z
property float nx
property float ny
property float nz
property uchar red
property uchar green
property uchar blue
property uchar alpha
element face 324
property list uchar int vertex_indices
end_header
0.04 0.8 -0.475 0 0 0 232 80 62 255 
-0.04 0.8 -0.475 0 0 0 232 80 62 255 
0.04 0.7403893 -0.475 0 0 0 229 76 62 255 
-0.04 0.7403893 -0.475 0 0 0 229 76 62 255 
0.12 0.7403893 -0.475 0 0 0 229 76 62 255 
-0.12 0.7403893 -0.475 0 0 0 229 76 62 255 
-0.12 0.3840638 -0.475 0 0 0 224 69 62 255 
0.12 0.3840638 -0.475 0 0 1 224 69 62 255 
3.292566e-10 0.3060638 -0.475 0 0 0 211 53 61 255 
-0.12 0.8 -0.475 0 0 0 250 103 63 255 
-0.2 0.8 -0.475 0 0 -1 250 103 63 255 
-0.12 0.7403894 -0.475 0 0 0 247 98 63 255 
-0.2 0.3406489 -0.475 0 0 -1 220 64 62 255 
3.292605e-10 0.3060638 -0.475 0 0 -1 217 60 61 255 
3.292605e-10 0.2106489 -0.475 0 0 0 211 53 61 255 
0.2 0.3406489 -0.475 0 0 -1 220 64 62 255 
0.2 0.8 -0.475 0 0 0 250 103 63 255 
0.12 0.7403894 -0.475 0 0 -1 247 98 63 255 
0.12 0.8 -0.475 0 0 0 250 103 63 255 
-0.2 0.8 -0.52 -0.6302626 -0.2971081 -0.7172837 222 67 62 255 
-0.12 0.8 -0.52 0.6302627 -0.2971081 -0.7172837 222 67 62 255 
-0.2 0.85 -0.52 -0.6302625 0.2971086 -0.7172835 235 84 62 255 
-0.12 0.85 -0.52 0.6302625 0.2971086 -0.7172836 235 84 62 255 
-0.12 0.87 -0.5 0.6302626 0.7172836 -0.2971086 241 90 63 255 
-0.12 0.87 -0.45 0.6302626 0.7172835 0.2971086 241 90 63 255 
-0.2 0.87 -0.5 -0.6302625 0.7172835 -0.2971086 241 90 63 255 
-0.2 0.87 -0.45 -0.6302626 0.7172835 0.2971086 241 90 63 255 
-0.12 0.78 -0.45 0.6302624 -0.7172835 0.2971092 222 67 62 255 
-0.12 0.78 -0.5 0.6302624 -0.7172834 -0.2971092 222 67 62 255 
-0.2 0.78 -0.45 -0.6302624 -0.7172834 0.2971092 222 67 62 255 
-0.2 0.78 -0.5 -0.6302624 -0.7172835 -0.2971092 222 67 62 255 
-0.2 0.8 -0.43 -0.6302626 -0.297108 0.7172837 222 67 62 255 
-0.2 0.85 -0.43 -0.6302625 0.2971086 0.7172836 235 84 62 255 
-0.12 0.8 -0.43 0.6302627 -0.2971081 0.7172837 222 67 62 255 
-0.12 0.85 -0.43 0.6302625 0.2971086 0.7172836 235 84 62 255 
0.12 0.8 -0.52 -0.6302626 -0.2971081 -0.7172837 222 67 62 255 
0.2 0.8 -0.52 0.6302627 -0.2971081 -0.7172837 222 67 62 255 
0.12 0.85 -0.52 -0.6302625 0.2971086 -0.7172835 235 84 62 255 
0.2 0.85 -0.52 0.6302625 0.2971086 -0.7172836 235 84 62 255 
0.2 0.87 -0.5 0.6302626 0.7172836 -0.2971086 241 90 63 255 
0.2 0.87 -0.45 0.6302626 0.7172835 0.2971086 241 90 63 255 
0.12 0.87 -0.5 -0.6302625 0.7172835 -0.2971086 241 90 63 255 
0.12 0.87 -0.45 -0.6302626 0.7172835 0.2971086 241 90 63 255 
0.2 0.78 -0.45 0.6302624 -0.7172835 0.2971092 222 67 62 255 
0.2 0.78 -0.5 0.6302624 -0.7172834 -0.2971092 222 67 62 255 
0.12 0.78 -0.45 -0.6302624 -0.7172834 0.2971092 222 67 62 255 
0.12 0.78 -0.5 -0.6302624 -0.7172835 -0.2971092 222 67 62 255 
0.12 0.8 -0.43 -0.6302626 -0.297108 0.7172837 222 67 62 255 
0.12 0.85 -0.43 -0.6302625 0.2971086 0.7172836 235 84 62 255 
0.2 0.8 -0.43 0.6302627 -0.2971081 0.7172837 222 67 62 255 
0.2 0.85 -0.43 0.6302625 0.2971086 0.7172836 235 84 62 255 
-0.04 0.8 -0.52 -0.6302626 -0.2971081 -0.7172837 222 67 62 255 
0.04 0.8 -0.52 0.6302626 -0.297108 -0.7172837 222 67 62 255 
-0.04 0.85 -0.52 -0.6302625 0.2971087 -0.7172836 235 84 62 255 
0.04 0.85 -0.52 0.6302625 0.2971086 -0.7172836 235 84 62 255 
0.04 0.87 -0.5 0.6302625 0.7172835 -0.2971086 241 90 63 255 
0.04 0.87 -0.45 0.6302626 0.7172835 0.2971086 241 90 63 255 
-0.04 0.87 -0.5 -0.6302625 0.7172836 -0.2971086 241 90 63 255 
-0.04 0.87 -0.45 -0.6302626 0.7172835 0.2971086 241 90 63 255 
0.04 0.78 -0.45 0.6302623 -0.7172834 0.2971092 222 67 62 255 
0.04 0.78 -0.5 0.6302623 -0.7172834 -0.2971092 222 67 62 255 
-0.04 0.78 -0.45 -0.6302623 -0.7172834 0.2971092 222 67 62 255 
-0.04 0.78 -0.5 -0.6302623 -0.7172834 -0.2971092 222 67 62 255 
-0.04 0.8 -0.43 -0.6302626 -0.2971081 0.7172837 222 67 62 255 
-0.04 0.85 -0.43 -0.6302625 0.2971086 0.7172836 235 84 62 255 
0.04 0.8 -0.43 0.6302626 -0.297108 0.7172837 222 67 62 255 
0.04 0.85 -0.43 0.6302625 0.2971087 0.7172836 235 84 62 255 
-0.3 0.85 -0.5 -0.7994345 0.4247969 -0.4247964 207 121 83 255 
-0.3 0.85 -0.45 -0.7994343 0.4247974 0.4247965 207 121 83 255 
-0.3 0.8 -0.5 -0.7994348 -0.4247962 -0.4247967 197 103 73 255 
-0.3 0.8 -0.45 -0.7994348 -0.4247962 0.4247966 197 103 73 255 
-0.2 0.85 -0.5000001 0.3517264 0.6619233 -0.661926 207 121 83 255 
-0.25 0.875 -0.525 -3.482108e-07 0.7071072 -0.7071065 212 130 89 255 
-0.2 0.8 -0.5 0.3517268 -0.661925 -0.6619242 197 103 73 255 
-0.25 0.775 -0.525 1.177772e-07 -0.7071069 -0.7071066 193 95 68 255 
-0.25 0.8749999 -0.425 -5.632811e-08 0.7071063 0.7071074 212 130 89 255 
-0.2 0.8 -0.45 0.3517275 -0.6619242 0.6619246 197 103 73 255 
-0.25 0.775 -0.425 1.02415e-07 -0.7071069 0.7071066 193 95 68 255 
-0.2 0.85 -0.45 0.3517267 0.6619247 0.6619245 207 121 83 255 
0.2 0.8 -0.45 -0.3517275 -0.6619242 0.6619245 197 103 73 255 
0.2 0.8 -0.5 -0.3517269 -0.661925 -0.6619242 197 103 73 255 
0.2 0.85 -0.5000001 -0.3517264 0.6619233 -0.661926 207 121 83 255 
0.2 0.85 -0.45 -0.3517271 0.6619245 0.6619245 207 121 83 255 
0.25 0.775 -0.425 -1.203376e-07 -0.7071069 0.7071066 193 95 68 255 
0.25 0.875 -0.425 -6.144894e-08 0.7071068 0.7071068 212 130 89 255 
0.3 0.8 -0.5000001 0.7994345 -0.4247961 -0.4247974 197 103 73 255 
0.3 0.8 -0.45 0.7994348 -0.4247962 0.4247966 197 103 73 255 
0.3 0.85 -0.5000001 0.7994342 0.4247965 -0.4247974 207 121 83 255 
0.3 0.85 -0.45 0.7994347 0.4247966 0.4247966 207 121 83 255 
0.25 0.875 -0.525 -2.713993e-07 0.7071071 -0.7071066 212 130 89 255 
0.25 0.775 -0.525 -5.120745e-07 -0.7071072 -0.7071064 193 95 68 255 
3 2 1 0 
3 1 2 3 
3 4 3 2 
3 4 5 3 
3 4 6 5 
3 7 6 4 
3 6 7 8 
3 0 1 2 
3 3 2 1 
3 2 3 4 
3 3 5 4 
3 5 6 4 
3 4 6 7 
3 8 7 6 
3 11 10 9 
3 6 10 11 
3 6 12 10 
3 13 12 6 
3 12 13 14 
3 13 15 14 
3 15 13 7 
3 15 7 16 
3 16 7 17 
3 16 17 18 
3 9 10 11 
3 11 10 6 
3 10 12 6 
3 6 12 13 
3 14 13 12 
3 14 15 13 
3 7 13 15 
3 16 7 15 
3 17 7 16 
3 18 17 16 
3 21 20 19 
3 20 21 22 
3 25 24 23 
3 24 25 26 
3 29 28 27 
3 28 29 30 
3 33 32 31 
3 32 33 34 
3 23 20 22 
3 20 23 28 
3 28 23 24 
3 28 24 27 
3 27 24 33 
3 33 24 34 
3 30 21 19 
3 21 30 25 
3 25 30 29 
3 25 29 26 
3 26 29 31 
3 26 31 32 
3 21 23 22 
3 23 21 25 
3 34 26 32 
3 26 34 24 
3 19 28 30 
3 28 19 20 
3 27 31 29 
3 31 27 33 
3 37 36 35 
3 36 37 38 
3 41 40 39 
3 40 41 42 
3 45 44 43 
3 44 45 46 
3 49 48 47 
3 48 49 50 
3 39 36 38 
3 36 39 44 
3 44 39 40 
3 44 40 43 
3 43 40 49 
3 49 40 50 
3 46 37 35 
3 37 46 41 
3 41 46 45 
3 41 45 42 
3 42 45 47 
3 42 47 48 
3 37 39 38 
3 39 37 41 
3 50 42 48 
3 42 50 40 
3 35 44 46 
3 44 35 36 
3 43 47 45 
3 47 43 49 
3 53 52 51 
3 52 53 54 
3 57 56 55 
3 56 57 58 
3 61 60 59 
3 60 61 62 
3 65 64 63 
3 64 65 66 
3 55 52 54 
3 52 55 60 
3 60 55 56 
3 60 56 59 
3 59 56 65 
3 65 56 66 
3 62 53 51 
3 53 62 57 
3 57 62 61 
3 57 61 58 
3 58 61 63 
3 58 63 64 
3 53 55 54 
3 55 53 57 
3 66 58 64 
3 58 66 56 
3 51 60 62 
3 60 51 52 
3 59 63 61 
3 63 59 65 
3 69 68 67 
3 68 69 70 
3 73 72 71 
3 72 73 74 
3 69 72 74 
3 72 69 67 
3 67 75 72 
3 75 67 68 
3 77 73 76 
3 73 77 74 
3 72 78 71 
3 78 72 75 
3 75 70 77 
3 70 75 68 
3 70 74 77 
3 74 70 69 
3 76 75 77 
3 75 76 78 
3 76 80 79 
3 80 76 73 
3 71 80 73 
3 80 71 81 
3 79 78 76 
3 78 79 82 
3 71 82 81 
3 82 71 78 
3 84 79 83 
3 79 84 82 
3 87 86 85 
3 86 87 88 
3 86 84 83 
3 84 86 88 
3 85 89 87 
3 89 85 90 
3 80 89 90 
3 89 80 81 
3 81 84 89 
3 84 81 82 
3 89 88 87 
3 88 89 84 
3 86 90 85 
3 90 86 83 
3 83 80 90 
3 80 83 79 
3 2 1 0 
3 1 2 3 
3 4 3 2 
3 4 5 3 
3 4 6 5 
3 7 6 4 
3 6 7 8 
3 0 1 2 
3 3 2 1 
3 2 3 4 
3 3 5 4 
3 5 6 4 
3 4 6 7 
3 8 7 6 
3 11 10 9 
3 6 10 11 
3 6 12 10 
3 13 12 6 
3 12 13 14 
3 13 15 14 
3 15 13 7 
3 15 7 16 
3 16 7 17 
3 16 17 18 
3 9 10 11 
3 11 10 6 
3 10 12 6 
3 6 12 13 
3 14 13 12 
3 14 15 13 
3 7 13 15 
3 16 7 15 
3 17 7 16 
3 18 17 16 
3 21 20 19 
3 20 21 22 
3 25 24 23 
3 24 25 26 
3 29 28 27 
3 28 29 30 
3 33 32 31 
3 32 33 34 
3 23 20 22 
3 20 23 28 
3 28 23 24 
3 28 24 27 
3 27 24 33 
3 33 24 34 
3 30 21 19 
3 21 30 25 
3 25 30 29 
3 25 29 26 
3 26 29 31 
3 26 31 32 
3 21 23 22 
3 23 21 25 
3 34 26 32 
3 26 34 24 
3 19 28 30 
3 28 19 20 
3 27 31 29 
3 31 27 33 
3 37 36 35 
3 36 37 38 
3 41 40 39 
3 40 41 42 
3 45 44 43 
3 44 45 46 
3 49 48 47 
3 48 49 50 
3 39 36 38 
3 36 39 44 
3 44 39 40 
3 44 40 43 
3 43 40 49 
3 49 40 50 
3 46 37 35 
3 37 46 41 
3 41 46 45 
3 41 45 42 
3 42 45 47 
3 42 47 48 
3 37 39 38 
3 39 37 41 
3 50 42 48 
3 42 50 40 
3 35 44 46 
3 44 35 36 
3 43 47 45 
3 47 43 49 
3 53 52 51 
3 52 53 54 
3 57 56 55 
3 56 57 58 
3 61 60 59 
3 60 61 62 
3 65 64 63 
3 64 65 66 
3 55 52 54 
3 52 55 60 
3 60 55 56 
3 60 56 59 
3 59 56 65 
3 65 56 66 
3 62 53 51 
3 53 62 57 
3 57 62 61 
3 57 61 58 
3 58 61 63 
3 58 63 64 
3 53 55 54 
3 55 53 57 
3 66 58 64 
3 58 66 56 
3 51 60 62 
3 60 51 52 
3 59 63 61 
3 63 59 65 
3 69 68 67 
3 68 69 70 
3 73 72 71 
3 72 73 74 
3 69 72 74 
3 72 69 67 
3 67 75 72 
3 75 67 68 
3 77 73 76 
3 73 77 74 
3 72 78 71 
3 78 72 75 
3 75 70 77 
3 70 75 68 
3 70 74 77 
3 74 70 69 
3 76 75 77 
3 75 76 78 
3 76 80 79 
3 80 76 73 
3 71 80 73 
3 80 71 81 
3 79 78 76 
3 78 79 82 
3 71 82 81 
3 82 71 78 
3 84 79 83 
3 79 84 82 
3 87 86 85 
3 86 87 88 
3 86 84 83 
3 84 86 88 
3 85 89 87 
3 89 85 90 
3 80 89 90 
3 89 80 81 
3 81 84 89 
3 84 81 82 
3 89 88 87 
3 88 89 84 
3 86 90 85 
3 90 86 83 
3 83 80 90 
3 80 83 79 
