ply
format ascii 1.0
comment VCGLIB generated
element vertex 118
property float x
property float y
property float z
property float nx
property float ny
property float nz
property uchar red
property uchar green
property uchar blue
property uchar alpha
element face 324
property list uchar int vertex_indices
end_header
0.125 0.1 -0.125 -0.5773503 0.5773503 0.5773503 61 61 68 255 
-0.125 0.1 -0.125 0.5773503 0.5773503 0.5773503 61 61 68 255 
0.125 0.2 -0.125 -0.3015113 0.9045341 0.3015113 197 103 73 255 
-0.125 0.2 -0.125 0.3015113 0.904534 0.3015113 197 103 73 255 
-0.125 0.2 0.125 0.3015113 0.9045341 -0.3015113 197 103 73 255 
-0.125 0.1 0.125 0.5773503 0.5773503 -0.5773503 61 61 68 255 
0.125 0.1 0.125 -0.5773503 0.5773503 -0.5773503 61 61 68 255 
0.125 0.2 0.125 -0.3015113 0.904534 -0.3015113 197 103 73 255 
0.25 0 0.25 0.5773503 -0.5773503 0.5773503 141 148 177 255 
0.25 0 0.15 0.5773503 -0.5773503 -0.5773503 141 148 177 255 
0.15 0 0.25 -0.5773503 -0.5773504 0.5773502 141 148 177 255 
0.2 0 0.15 0.3015113 -0.904534 -0.3015113 197 103 73 255 
0.2 0 -0.15 0.3015112 -0.9045342 0.3015112 197 103 73 255 
0.15 0 0.2 -0.3015113 -0.904534 0.3015113 197 103 73 255 
0.15 0 -0.25 -0.5773503 -0.5773503 -0.5773503 141 148 177 255 
0.25 0 -0.25 0.5773503 -0.5773503 -0.5773503 141 148 177 255 
0.25 0 -0.15 0.5773503 -0.5773503 0.5773503 141 148 177 255 
0.15 0 -0.2 -0.5773503 -0.5773503 -0.5773503 197 103 73 255 
-0.15 0 0.2 0.3015114 -0.904534 0.3015114 197 103 73 255 
-0.15 0 -0.2 0.3015113 -0.904534 -0.3015113 197 103 73 255 
-0.2 0 0.15 -0.3015112 -0.9045342 -0.3015112 197 103 73 255 
-0.15 0 -0.25 0.5773503 -0.5773503 -0.5773503 141 148 177 255 
-0.25 0 0.25 -0.5773503 -0.5773503 0.5773503 141 148 177 255 
-0.15 0 0.25 0.5773503 -0.5773503 0.5773503 141 148 177 255 
-0.25 0 0.15 -0.5773503 -0.5773503 -0.5773503 141 148 177 255 
-0.2 0 -0.15 -0.3015113 -0.9045341 0.3015113 197 103 73 255 
-0.25 0 -0.25 -0.5773503 -0.5773503 -0.5773503 141 148 177 255 
-0.25 0 -0.15 -0.5773503 -0.5773503 0.5773503 141 148 177 255 
-0.25 0.2 0.15 -0.5773503 0.5773503 -0.5773503 172 180 216 255 
-0.25 0.2 0.25 -0.5773503 0.5773503 0.5773503 172 180 216 255 
0.25 0.2 0.15 0.5773503 0.5773503 -0.5773503 172 180 216 255 
0.25 0.2 0.25 0.5773503 0.5773503 0.5773503 172 180 216 255 
0.2 0.2 0.15 0.3015114 0.904534 -0.3015114 197 103 73 255 
-0.2 0.2 0.15 -0.3015113 0.904534 -0.3015113 197 103 73 255 
-0.15 0.2 -0.25 0.6603606 0.2933912 -0.6912638 157 164 197 255 
-0.15 0.2 -0.2 0.4917346 0.7389716 -0.4605628 202 112 78 255 
-0.15 0.2 0.2 0.4917348 0.7389715 0.4605628 202 112 78 255 
-0.15 0.2 0.25 0.5773503 0.5773503 0.5773503 172 180 216 255 
0.15 0.2 -0.25 -0.6603606 0.2933911 -0.6912637 157 164 197 255 
0.25 0.2 -0.25 0.6603606 0.2933912 -0.6912638 157 164 197 255 
-0.25 0.2 -0.25 -0.6603606 0.2933911 -0.6912637 157 164 197 255 
0.25 0.2 -0.15 0.7361187 0.139821 0.6622532 157 164 197 255 
0.2 0.2 -0.15 0.478251 0.7160403 0.5084903 202 112 78 255 
-0.25 0.2 -0.15 -0.7361188 0.139821 0.6622532 157 164 197 255 
-0.2 0.2 -0.15 -0.478251 0.7160403 0.5084903 202 112 78 255 
0.15 0.2 0.2 -0.4917347 0.7389716 0.4605628 202 112 78 255 
0.15 0.2 0.25 -0.5773503 0.5773503 0.5773503 172 180 216 255 
0.15 0.2 -0.2 -0.4917347 0.7389715 -0.4605628 202 112 78 255 
-0.25 0.325 -0.2165063 -0.6532269 0.3785811 -0.6557218 172 180 216 255 
-0.25 0.4165064 -0.125 -0.6532267 0.6557219 -0.3785813 186 195 233 255 
-0.25 0.306066 -0.106066 -0.8041864 -0.4202881 0.4202881 172 180 216 255 
-0.25 0.45 0 -0.6532269 0.7571623 7.436102e-09 191 200 239 255 
-0.25 0.35 0 -0.8041865 -0.5943772 2.136068e-08 178 186 223 255 
-0.25 0.306066 0.106066 -0.8041865 -0.4202882 -0.420288 172 180 216 255 
-0.25 0.4165064 0.125 -0.6532267 0.6557219 0.3785813 186 195 233 255 
-0.25 0.2 0.15 -0.6008595 -0.6646392 -0.4440975 157 164 197 255 
-0.25 0.325 0.2165063 -0.6532269 0.378581 0.6557218 172 180 216 255 
-0.25 0.2 0.25 -0.5648184 -0.5023591 0.6546873 157 164 197 255 
0.25 0.2 0.25 0.5648184 -0.5023592 0.6546874 157 164 197 255 
0.15 0.2 0.25 -0.5648184 -0.5023591 0.6546873 157 164 197 255 
0.25 0.325 0.2165063 0.6532269 0.3785811 0.6557218 172 180 216 255 
0.15 0.325 0.2165063 -0.6532269 0.378581 0.6557218 172 180 216 255 
-0.15 0.45 0 0.6532269 0.7571623 -3.718051e-09 191 200 239 255 
-0.15 0.4165064 0.125 0.6532267 0.6557218 0.3785813 186 195 233 255 
-0.15 0.2 0.25 0.5648184 -0.5023592 0.6546874 157 164 197 255 
-0.15 0.325 0.2165063 0.6532269 0.3785811 0.6557218 172 180 216 255 
0.05 0.25 0.1866025 0.2381204 0.5076137 0.828026 204 115 80 255 
0.05 0.2 0.2 0.9928197 0.1185973 -0.01561366 202 112 78 255 
0.05 0.25 0.25 0.5773504 0.5773503 0.5773503 163 170 204 255 
0.05 0.15 0.2 0.5773503 -0.5773503 -0.5773503 157 164 197 255 
0.05 0.15 0.25 0.5773503 -0.5773503 0.5773503 157 164 197 255 
-0.05 0.15 0.2 -0.5773503 -0.5773503 -0.5773503 157 164 197 255 
-0.05 0.2 0.2 -0.9928197 0.1185975 -0.01561364 202 112 78 255 
-0.05 0.15 0.25 -0.5773503 -0.5773503 0.5773503 157 164 197 255 
-0.05 0.25 0.25 -0.5773503 0.5773503 0.5773503 163 170 204 255 
-0.05 0.25 0.1866025 -0.2381207 0.5076135 0.828026 204 115 80 255 
0.25 0.45 0 0.6532269 0.7571623 -3.718051e-09 191 200 239 255 
0.25 0.4165064 0.125 0.6532267 0.6557219 0.3785813 186 195 233 255 
0.15 0.45 0 -0.6532269 0.7571623 7.436102e-09 191 200 239 255 
0.15 0.4165064 0.125 -0.6532267 0.6557218 0.3785813 186 195 233 255 
0.15 0.325 -0.2165063 -0.6532269 0.3785811 -0.6557218 172 180 216 255 
0.25 0.325 -0.2165063 0.6532269 0.378581 -0.6557218 172 180 216 255 
-0.2 0.2 0.15 -0.3367412 -0.8453031 -0.414811 202 112 78 255 
-0.2 0.306066 0.106066 -0.6302626 -0.5489851 -0.548985 206 119 82 255 
-0.15 0.4165064 -0.125 0.6532267 0.6557218 -0.3785813 186 195 233 255 
-0.2 0.306066 -0.106066 -0.6302626 -0.5489852 0.548985 206 119 82 255 
-0.2 0.35 0 -0.6302624 -0.7763821 -3.18875e-08 209 123 85 255 
0.25 0.4165064 -0.125 0.6532267 0.6557219 -0.3785813 186 195 233 255 
0.15 0.4165064 -0.125 -0.6532267 0.6557218 -0.3785813 186 195 233 255 
-0.15 0.325 -0.2165063 0.6532269 0.3785811 -0.6557218 172 180 216 255 
0.25 0.35 0 0.8041865 -0.5943772 -2.44122e-08 178 186 223 255 
0.2 0.35 0 0.6302624 -0.7763821 3.18875e-08 209 123 85 255 
0.25 0.306066 0.106066 0.8041864 -0.4202881 -0.4202881 172 180 216 255 
0.2 0.306066 0.106066 0.6302626 -0.5489851 -0.5489849 206 119 82 255 
0.25 0.306066 -0.106066 0.8041865 -0.4202882 0.420288 172 180 216 255 
0.2 0.306066 -0.106066 0.6302625 -0.5489851 0.548985 206 119 82 255 
-0.15 0.3 -0.1732051 0.7702618 0.3188639 -0.5522885 206 119 82 255 
-0.15 0.3732051 -0.1 0.7702618 0.5522885 -0.3188638 209 123 85 255 
-0.15 0.4 0 0.7702618 0.6377278 -6.263136e-09 210 125 86 255 
-0.15 0.3732051 0.1 0.7702618 0.5522886 0.3188638 209 123 85 255 
-0.15 0.3 0.1732051 0.7702619 0.3188638 0.5522885 206 119 82 255 
0.2 0.2 0.15 0.3367411 -0.845303 -0.4148111 202 112 78 255 
0.25 0.2 0.15 0.6008596 -0.6646391 -0.4440975 157 164 197 255 
0.15 0.3 -0.1732051 -0.7702618 0.3188639 -0.5522885 206 119 82 255 
0.15 0.3732051 -0.1 -0.7702618 0.5522886 -0.3188638 209 123 85 255 
0.15 0.4 0 -0.7702618 0.6377279 6.263136e-09 210 125 86 255 
0.15 0.3732051 0.1 -0.7702618 0.5522885 0.3188638 209 123 85 255 
0.15 0.3 0.1732051 -0.7702618 0.3188638 0.5522885 206 119 82 255 
0.2 0.2 -0.15 0 -1 0 212 130 89 255 
0.15 0.2 -0.2 0 -1 0 193 95 68 255 
0.2 0.2 0.1500001 0 -1 0 212 130 89 255 
0.15 0.2 0.2 0 -1 0 193 95 68 255 
-0.15 0.2 -0.2 0 -1 0 212 130 89 255 
0.05 0.2 0.2 0 -1 0 199 106 74 255 
-0.05 0.2 0.2 0 -1 0 205 118 81 255 
-0.15 0.2 0.2 0 -1 0 212 130 89 255 
-0.2 0.2 -0.15 0 -1 0 212 130 89 255 
-0.2 0.2 0.1500001 0 -1 0 212 130 89 255 
3 2 1 0 
3 1 2 3 
3 4 1 3 
3 1 4 5 
3 0 5 6 
3 5 0 1 
3 6 2 0 
3 2 6 7 
3 4 6 5 
3 6 4 7 
3 10 9 8 
3 9 10 11 
3 11 10 12 
3 13 12 10 
3 14 12 13 
3 15 12 14 
3 12 15 16 
3 14 13 17 
3 18 17 13 
3 17 18 19 
3 18 20 19 
3 19 20 21 
3 18 22 20 
3 22 18 23 
3 20 22 24 
3 25 21 20 
3 21 25 26 
3 26 25 27 
3 22 28 24 
3 28 22 29 
3 31 9 30 
3 9 31 8 
3 32 9 11 
3 9 32 30 
3 28 20 24 
3 20 28 33 
3 35 21 34 
3 21 35 19 
3 37 18 36 
3 18 37 23 
3 38 15 14 
3 15 38 39 
3 37 22 23 
3 22 37 29 
3 40 21 26 
3 21 40 34 
3 41 15 39 
3 15 41 16 
3 41 12 16 
3 12 41 42 
3 27 40 26 
3 40 27 43 
3 44 27 25 
3 27 44 43 
3 10 45 13 
3 45 10 46 
3 17 38 14 
3 38 17 47 
3 31 10 8 
3 10 31 46 
3 36 29 37 
3 29 36 33 
3 29 33 28 
3 30 46 31 
3 46 30 32 
3 46 32 45 
3 34 44 35 
3 44 34 40 
3 44 40 43 
3 39 42 41 
3 42 39 38 
3 42 38 47 
3 45 18 13 
3 18 45 36 
3 20 44 25 
3 44 20 33 
3 32 12 42 
3 12 32 11 
3 35 17 19 
3 17 35 47 
3 33 35 44 
3 36 35 33 
3 3 35 36 
3 36 4 3 
3 2 35 3 
3 36 7 4 
3 2 47 35 
3 47 2 7 
3 45 7 36 
3 45 47 7 
3 45 42 47 
3 42 45 32 
3 2 1 0 
3 1 2 3 
3 4 1 3 
3 1 4 5 
3 0 5 6 
3 5 0 1 
3 6 2 0 
3 2 6 7 
3 4 6 5 
3 6 4 7 
3 10 9 8 
3 9 10 11 
3 11 10 12 
3 13 12 10 
3 14 12 13 
3 15 12 14 
3 12 15 16 
3 14 13 17 
3 18 17 13 
3 17 18 19 
3 18 20 19 
3 19 20 21 
3 18 22 20 
3 22 18 23 
3 20 22 24 
3 25 21 20 
3 21 25 26 
3 26 25 27 
3 22 28 24 
3 28 22 29 
3 31 9 30 
3 9 31 8 
3 32 9 11 
3 9 32 30 
3 28 20 24 
3 20 28 33 
3 35 21 34 
3 21 35 19 
3 37 18 36 
3 18 37 23 
3 38 15 14 
3 15 38 39 
3 37 22 23 
3 22 37 29 
3 40 21 26 
3 21 40 34 
3 41 15 39 
3 15 41 16 
3 41 12 16 
3 12 41 42 
3 27 40 26 
3 40 27 43 
3 44 27 25 
3 27 44 43 
3 10 45 13 
3 45 10 46 
3 17 38 14 
3 38 17 47 
3 31 10 8 
3 10 31 46 
3 36 29 37 
3 29 36 33 
3 29 33 28 
3 30 46 31 
3 46 30 32 
3 46 32 45 
3 34 44 35 
3 44 34 40 
3 44 40 43 
3 39 42 41 
3 42 39 38 
3 42 38 47 
3 45 18 13 
3 18 45 36 
3 20 44 25 
3 44 20 33 
3 32 12 42 
3 12 32 11 
3 35 17 19 
3 17 35 47 
3 33 35 44 
3 36 35 33 
3 3 35 36 
3 36 4 3 
3 2 35 3 
3 36 7 4 
3 2 47 35 
3 47 2 7 
3 45 7 36 
3 45 47 7 
3 45 42 47 
3 42 45 32 
3 43 48 40 
3 48 43 49 
3 49 43 50 
3 49 50 51 
3 51 50 52 
3 51 52 53 
3 51 53 54 
3 54 53 55 
3 54 55 56 
3 56 55 57 
3 60 59 58 
3 59 60 61 
3 51 63 62 
3 63 51 54 
3 65 57 64 
3 57 65 56 
3 68 67 66 
3 67 68 69 
3 69 68 70 
3 73 72 71 
3 74 72 73 
3 72 74 75 
3 78 77 76 
3 77 78 79 
3 77 61 60 
3 61 77 79 
3 80 39 38 
3 39 80 81 
3 53 82 55 
3 82 53 83 
3 68 73 70 
3 73 68 74 
3 72 69 71 
3 69 72 67 
3 49 62 84 
3 62 49 51 
3 75 68 66 
3 68 75 74 
3 86 50 85 
3 50 86 52 
3 88 76 87 
3 76 88 78 
3 49 89 48 
3 89 49 84 
3 92 91 90 
3 91 92 93 
3 94 42 41 
3 42 94 95 
3 90 95 94 
3 95 90 91 
3 70 71 69 
3 71 70 73 
3 89 35 34 
3 35 89 96 
3 96 89 84 
3 96 84 97 
3 97 84 62 
3 97 62 98 
3 98 62 63 
3 98 63 99 
3 99 63 100 
3 100 63 65 
3 100 65 36 
3 36 65 64 
3 63 56 65 
3 56 63 54 
3 48 34 40 
3 34 48 89 
3 93 102 101 
3 102 93 92 
3 47 80 38 
3 80 47 103 
3 80 103 88 
3 88 103 104 
3 88 104 78 
3 78 104 105 
3 78 105 106 
3 78 106 79 
3 79 106 107 
3 79 107 61 
3 61 107 45 
3 61 45 59 
3 81 41 39 
3 41 81 87 
3 41 87 94 
3 94 87 76 
3 94 76 90 
3 90 76 92 
3 92 76 77 
3 92 77 102 
3 102 77 60 
3 102 60 58 
3 83 52 86 
3 52 83 53 
3 85 43 44 
3 43 85 50 
3 88 81 80 
3 81 88 87 
3 64 82 36 
3 82 64 57 
3 82 57 55 
3 35 40 34 
3 40 35 44 
3 40 44 43 
3 41 38 39 
3 38 41 42 
3 38 42 47 
3 58 101 102 
3 101 58 59 
3 101 59 45 
3 35 103 47 
3 103 35 96 
3 107 67 45 
3 67 107 66 
3 66 107 75 
3 100 75 107 
3 36 75 100 
3 75 36 72 
3 97 105 104 
3 105 97 98 
3 98 106 105 
3 106 98 99 
3 106 100 107 
3 100 106 99 
3 96 104 103 
3 104 96 97 
3 95 101 42 
3 101 95 91 
3 101 91 93 
3 82 85 44 
3 85 82 86 
3 86 82 83 
3 110 109 108 
3 109 110 111 
3 109 111 112 
3 112 111 113 
3 112 113 114 
3 112 114 115 
3 112 115 116 
3 116 115 117 
