ply
format ascii 1.0
comment VCGLIB generated
element vertex 52
property float x
property float y
property float z
property float nx
property float ny
property float nz
property uchar red
property uchar green
property uchar blue
property uchar alpha
element face 76
property list uchar int vertex_indices
end_header
0.3 2.255973e-17 -8.940654e-09 -0.3015113 -0.904534 0.3015113 126 132 158 255 
-0.3 4.511946e-17 8.940658e-09 0.3015113 -0.9045341 0.3015113 126 132 158 255 
0.3 0.6 -8.940654e-09 -0.5773503 -0.5773503 0.5773504 178 186 223 255 
-0.3 0.6 8.940658e-09 0.5773503 -0.5773503 0.5773503 178 186 223 255 
0.35 0.75 -0.1 0.2971086 0.7172836 -0.6302625 191 200 239 255 
0.35 0.75 0.09999999 0.2971086 0.7172835 0.6302625 191 200 239 255 
-0.35 0.75 -0.09999999 -0.2971086 0.7172835 -0.6302625 191 200 239 255 
-0.35 0.75 0.1 -0.2971086 0.7172836 0.6302625 191 200 239 255 
-0.4 0 -0.09999999 -0.5773503 -0.5773503 -0.5773503 126 132 158 255 
0.4 0 -0.1 0.5773503 -0.5773503 -0.5773503 126 132 158 255 
-0.4 0.7 -0.09999999 -0.7172835 0.2971086 -0.6302625 186 195 233 255 
0.4 0.7 -0.1 0.7172836 0.2971086 -0.6302625 186 195 233 255 
-0.3 4.511946e-17 0.1 0.5773503 -0.5773503 0.5773503 126 132 158 255 
-0.4 0 0.1 -0.5773503 -0.5773503 0.5773503 126 132 158 255 
0.3 2.255973e-17 0.09999999 -0.5773501 -0.5773503 0.5773504 126 132 158 255 
0.4 0 0.09999999 0.5773503 -0.5773503 0.5773503 126 132 158 255 
-0.4 0.7 0.1 -0.7172835 0.2971086 0.6302625 186 195 233 255 
0.3 0.6 0.09999999 -0.3015113 -0.3015113 0.904534 178 186 223 255 
-0.3 0.6 0.1 0.3015113 -0.3015113 0.9045341 178 186 223 255 
0.4 0.7 0.09999999 0.7172835 0.2971086 0.6302626 186 195 233 255 
0.3000001 4.511946e-17 0.04999998 2.634178e-08 -0.7071068 0.7071068 126 132 158 255 
-0.3 4.511946e-17 0.05 2.634178e-08 -0.7071068 0.7071068 126 132 158 255 
0.3000001 0.1 0.04999998 2.634177e-08 0.7071069 0.7071066 157 164 197 255 
-0.3 0.1 0.05 2.634178e-08 0.7071066 0.7071069 157 164 197 255 
-0.3 0.1 0 0 1 0 157 164 197 255 
0.3000001 0.1 -1.788131e-08 0 1 0 157 164 197 255 
-0.3 4.511946e-17 0 0 -1 0 126 132 158 255 
0.3000001 4.511946e-17 -1.788131e-08 0 -1 0 126 132 158 255 
0.3000001 0.3 0.04999998 2.634178e-08 -0.7071068 0.7071068 126 132 158 255 
-0.3 0.3 0.05 2.634178e-08 -0.7071068 0.7071068 126 132 158 255 
0.3000001 0.4 0.04999998 2.634177e-08 0.7071069 0.7071066 157 164 197 255 
-0.3 0.4 0.05 2.634178e-08 0.7071066 0.7071069 157 164 197 255 
-0.3 0.4 0 0 1 0 157 164 197 255 
0.3000001 0.4 -1.788131e-08 0 1 0 157 164 197 255 
-0.3 0.3 0 0 -1 0 126 132 158 255 
0.3000001 0.3 -1.788131e-08 0 -1 0 126 132 158 255 
0.087 0.1787823 0.05000003 0.5773503 -0.4082483 0.7071068 135 141 169 255 
0.087 0.3043799 0.01634623 0.5773504 0.7071064 0.4082488 191 200 239 255 
0.087 0.1637708 -0.006023668 0.5773503 -0.7071067 -0.4082484 126 132 158 255 
0.087 0.2893685 -0.03967747 0.5773501 0.408249 -0.7071065 183 192 230 255 
-0.04302829 0.2212557 0.03861932 0.3015113 0.5253483 0.7956759 151 158 190 255 
-0.04302829 0.2062442 -0.01740438 0.3015113 0.05712698 -0.9517497 144 150 180 255 
0.04302829 0.2212557 0.03861932 -0.3015112 0.5253484 0.7956759 151 158 190 255 
0.04302829 0.2062442 -0.01740438 -0.3015114 0.05712701 -0.9517497 144 150 180 255 
-0.04302829 0.2893685 -0.03967746 0.5773502 0.408249 -0.7071065 183 192 230 255 
-0.087 0.2893685 -0.03967746 -0.5773503 0.408249 -0.7071064 183 192 230 255 
-0.087 0.1637708 -0.006023662 -0.5773504 -0.7071067 -0.4082482 126 132 158 255 
0.04302829 0.2893685 -0.03967746 -0.5773503 0.408249 -0.7071064 183 192 230 255 
-0.087 0.3043799 0.01634624 -0.5773504 0.7071064 0.4082488 191 200 239 255 
-0.04302829 0.3043799 0.01634624 0.5773504 0.7071064 0.4082488 191 200 239 255 
0.04302829 0.3043799 0.01634623 -0.5773504 0.7071064 0.4082488 191 200 239 255 
-0.087 0.1787823 0.05000004 -0.5773502 -0.4082482 0.7071069 135 141 169 255 
3 2 1 0 
3 1 2 3 
3 6 5 4 
3 5 6 7 
3 10 9 8 
3 9 10 11 
3 11 10 6 
3 11 6 4 
3 13 1 12 
3 8 1 13 
3 8 0 1 
3 9 0 8 
3 9 14 0 
3 14 9 15 
3 16 6 10 
3 6 16 7 
3 18 2 17 
3 2 18 3 
3 11 15 9 
3 15 11 19 
3 18 1 3 
3 1 18 12 
3 13 10 8 
3 10 13 16 
3 14 2 0 
3 2 14 17 
3 4 19 11 
3 19 4 5 
3 19 14 15 
3 14 19 17 
3 17 19 18 
3 16 18 19 
3 16 19 5 
3 16 5 7 
3 16 12 18 
3 12 16 13 
3 22 21 20 
3 21 22 23 
3 23 25 24 
3 25 23 22 
3 27 21 26 
3 21 27 20 
3 30 29 28 
3 29 30 31 
3 31 33 32 
3 33 31 30 
3 35 29 34 
3 29 35 28 
3 38 37 36 
3 37 38 39 
3 42 41 40 
3 41 42 43 
3 41 45 44 
3 41 46 45 
3 46 41 38 
3 43 38 41 
3 38 43 39 
3 39 43 47 
3 49 45 48 
3 45 49 44 
3 41 49 40 
3 49 41 44 
3 50 43 42 
3 43 50 47 
3 42 37 50 
3 42 36 37 
3 36 42 51 
3 40 51 42 
3 51 40 48 
3 48 40 49 
3 48 46 51 
3 46 48 45 
3 50 39 47 
3 39 50 37 
3 38 51 46 
3 51 38 36 
