ply
format ascii 1.0
comment VCGLIB generated
element vertex 64
property float x
property float y
property float z
property float nx
property float ny
property float nz
property uchar red
property uchar green
property uchar blue
property uchar alpha
element face 248
property list uchar int vertex_indices
end_header
-0.5 0.15 0.3125 -0.8918058 0.2612039 0.3693981 97 103 127 255 
-0.5 0 0.4625 -0.7172831 -0.630263 0.2971089 90 96 120 255 
-0.5 0.3 0.1625 -0.9737812 0.1313397 0.1857424 101 107 130 255 
-0.1625 0.3 0.35 -0.1429105 0.6998488 0.6998488 101 107 130 255 
-0.2375 0.225 0.35 0 0.200073 0.979781 101 107 130 255 
-0.2375 0.3 0.275 0 0.979781 0.2000732 101 107 130 255 
0.3125 0.6 0.05 -0.1429105 0.6998488 0.6998488 116 121 144 255 
0.2375 0.525 0.05 0 0.200073 0.979781 113 118 141 255 
0.2375 0.6 -0.025 0 0.979781 0.2000732 116 121 144 255 
-0.1625 0.9 -0.25 -0.1429104 0.6998488 0.6998488 131 136 158 255 
-0.2375 0.825 -0.25 0 0.2000731 0.979781 124 130 155 255 
-0.2375 0.9 -0.325 0 0.979781 0.2000731 131 136 158 255 
-0.3125 0.9 -0.25 0.1429104 0.6998488 0.6998488 131 136 158 255 
0.1625 0.6 0.05 0.1429105 0.6998488 0.6998487 116 121 144 255 
0.5 0.15 0.3125 0.8918058 0.2612039 0.3693981 97 103 127 255 
0.5 0.3 0.1625 0.8918059 0.2612038 0.369398 101 107 130 255 
0.5 0 0.4625 0.7172831 -0.630263 0.2971089 90 96 120 255 
-0.3125 0.3 0.35 0.1429105 0.6998488 0.6998488 101 107 130 255 
0.5 0.45 0.0125 0.8918059 0.2612039 0.3693981 110 115 138 255 
0.4625 0.45 0.05 0.2274583 0.8041865 0.5491328 110 115 138 255 
0.5 0.6 0.0125 0.7172836 0.6302625 0.2971085 116 121 144 255 
0.4625 0.6 0.05 0.2971087 0.6302624 0.7172836 116 121 144 255 
0.5 0.75 -0.2875 0.9737811 0.1313398 0.1857425 121 126 150 255 
0.5 0.75 -0.1375 0.7172836 0.6302625 0.2971085 121 126 150 255 
0.4625 0.75 -0.25 0.2274582 0.8041865 0.5491328 121 126 150 255 
0.4625 0.75 -0.1 0.2971086 0.6302625 0.7172835 121 126 150 255 
-0.4625 0.75 -0.25 -0.2274583 0.8041865 0.5491328 121 126 150 255 
-0.4625 0.75 -0.1 -0.2971086 0.6302625 0.7172835 121 126 150 255 
-0.5 0.75 -0.2875 -0.9737811 0.1313398 0.1857425 121 126 150 255 
-0.5 0.75 -0.1375 -0.7172836 0.6302625 0.2971085 121 126 150 255 
-0.5 0.3 0.3125 -0.7172836 0.6302625 0.2971086 101 107 130 255 
-0.4625 0.15 0.35 -0.2274583 0.8041865 0.5491328 97 103 127 255 
-0.4625 0.3 0.35 -0.2971086 0.6302625 0.7172836 101 107 130 255 
-0.5 0 -0.5 -0.5773506 -0.5773498 -0.5773506 90 96 120 255 
-0.5 0.9 -0.5 -0.5773482 0.5773514 -0.5773512 131 136 158 255 
-0.5 0.9 -0.2875 -0.7172836 0.6302625 0.2971086 131 136 158 255 
-0.5 0.6 -0.1375 -0.9737811 0.1313398 0.1857424 116 121 144 255 
-0.5 0.45 0.0125 0.3203773 0.5469182 0.7734591 110 115 138 255 
-0.5 0.6 0.0125 -0.7172836 0.6302625 0.2971085 116 121 144 255 
-0.5 0.45 0.1625 -0.7172836 0.6302626 0.2971085 110 115 138 255 
-0.5 0.15 0.4625 -0.7172836 0.6302624 0.2971086 97 103 127 255 
0.5 0 -0.5 0.5773503 -0.5773503 -0.5773503 90 96 120 255 
0.4625 0 0.5 0.2971086 -0.6302625 0.7172836 90 96 120 255 
-0.4625 0 0.5 -0.2971086 -0.6302625 0.7172836 90 96 120 255 
-0.4625 0.3 0.2 -0.2274583 0.8041865 0.5491328 101 107 130 255 
-0.4625 0.45 0.2 -0.2971087 0.6302624 0.7172836 110 115 138 255 
0.5 0.45 0.1625 0.7172836 0.6302626 0.2971085 110 115 138 255 
0.4625 0.45 0.2 0.2971087 0.6302625 0.7172835 110 115 138 255 
0.4625 0.3 0.2 0.2274583 0.8041865 0.5491328 101 107 130 255 
0.4625 0.9 -0.25 0.2971087 0.6302626 0.7172835 131 136 158 255 
-0.4625 0.9 -0.25 -0.2971086 0.6302626 0.7172836 131 136 158 255 
0.5 0.6 -0.1375 0.8918059 0.2612039 0.369398 116 121 144 255 
0.4625 0.6 -0.1 0.2274583 0.8041865 0.5491328 116 121 144 255 
-0.4625 0.6 -0.1 -0.2274583 0.8041865 0.5491328 116 121 144 255 
-0.4625 0.6 0.05 -0.2971087 0.6302625 0.7172835 116 121 144 255 
0.5 0.9 -0.5 0.5773503 0.5773503 -0.5773503 131 136 158 255 
0.5 0.9 -0.2875 0.7172836 0.6302625 0.2971086 131 136 158 255 
0.4625 0.15 0.35 0.2274583 0.8041865 0.5491329 97 103 127 255 
0.4625 0.3 0.35 0.2971087 0.6302624 0.7172835 101 107 130 255 
0.5 0.15 0.4625 0.7172836 0.6302624 0.2971086 97 103 127 255 
0.4625 0.15 0.5 0.2971086 0.6302625 0.7172836 97 103 127 255 
-0.4625 0.15 0.5 -0.2971086 0.6302625 0.7172836 97 103 127 255 
0.5 0.3 0.3125 0.7172836 0.6302625 0.2971086 101 107 130 255 
-0.4625 0.45 0.05 -0.2274583 0.8041865 0.5491328 110 115 138 255 
3 2 1 0 
3 5 4 3 
3 8 7 6 
3 11 10 9 
3 11 12 10 
3 8 13 7 
3 16 15 14 
3 5 17 4 
3 20 19 18 
3 19 20 21 
3 24 23 22 
3 23 24 25 
3 25 24 26 
3 25 26 27 
3 27 26 28 
3 27 28 29 
3 31 30 0 
3 30 31 32 
3 1 34 33 
3 34 1 2 
3 34 2 28 
3 35 34 28 
3 28 2 36 
3 29 28 36 
3 36 2 37 
3 38 36 37 
3 39 37 2 
3 0 1 40 
3 30 2 0 
3 16 33 41 
3 33 16 42 
3 33 42 43 
3 33 43 1 
3 44 39 2 
3 39 44 45 
3 47 15 46 
3 15 47 48 
3 49 26 24 
3 26 49 10 
3 10 49 9 
3 10 50 26 
3 50 10 12 
3 52 20 51 
3 20 52 21 
3 21 52 8 
3 21 8 6 
3 8 52 53 
3 8 53 13 
3 13 53 54 
3 54 53 36 
3 54 36 38 
3 34 56 55 
3 56 34 49 
3 49 34 11 
3 49 11 9 
3 11 34 12 
3 12 34 50 
3 50 34 35 
3 58 31 57 
3 31 58 4 
3 4 58 3 
3 4 32 31 
3 32 4 17 
3 23 52 51 
3 52 23 25 
3 57 59 14 
3 59 57 60 
3 60 57 31 
3 60 31 61 
3 61 31 0 
3 61 0 40 
3 48 62 15 
3 62 48 58 
3 58 48 44 
3 58 44 5 
3 58 5 3 
3 5 44 17 
3 17 44 32 
3 32 44 2 
3 32 2 30 
3 53 29 36 
3 29 53 27 
3 62 57 14 
3 57 62 58 
3 55 16 41 
3 16 55 22 
3 22 55 56 
3 16 22 51 
3 51 22 23 
3 16 51 18 
3 18 51 20 
3 16 18 15 
3 15 18 46 
3 16 14 59 
3 14 15 62 
3 19 46 18 
3 46 19 47 
3 47 19 63 
3 47 63 45 
3 45 63 37 
3 45 37 39 
3 49 22 56 
3 22 49 24 
3 7 21 6 
3 7 19 21 
3 19 7 63 
3 7 54 63 
3 54 7 13 
3 25 53 52 
3 53 25 27 
3 50 28 26 
3 28 50 35 
3 60 43 42 
3 43 60 61 
3 43 40 1 
3 40 43 61 
3 34 41 33 
3 41 34 55 
3 59 42 16 
3 42 59 60 
3 63 38 37 
3 38 63 54 
3 47 44 48 
3 44 47 45 
3 2 1 0 
3 5 4 3 
3 8 7 6 
3 11 10 9 
3 11 12 10 
3 8 13 7 
3 16 15 14 
3 5 17 4 
3 20 19 18 
3 19 20 21 
3 24 23 22 
3 23 24 25 
3 25 24 26 
3 25 26 27 
3 27 26 28 
3 27 28 29 
3 31 30 0 
3 30 31 32 
3 1 34 33 
3 34 1 2 
3 34 2 28 
3 35 34 28 
3 28 2 36 
3 29 28 36 
3 36 2 37 
3 38 36 37 
3 39 37 2 
3 0 1 40 
3 30 2 0 
3 16 33 41 
3 33 16 42 
3 33 42 43 
3 33 43 1 
3 44 39 2 
3 39 44 45 
3 47 15 46 
3 15 47 48 
3 49 26 24 
3 26 49 10 
3 10 49 9 
3 10 50 26 
3 50 10 12 
3 52 20 51 
3 20 52 21 
3 21 52 8 
3 21 8 6 
3 8 52 53 
3 8 53 13 
3 13 53 54 
3 54 53 36 
3 54 36 38 
3 34 56 55 
3 56 34 49 
3 49 34 11 
3 49 11 9 
3 11 34 12 
3 12 34 50 
3 50 34 35 
3 58 31 57 
3 31 58 4 
3 4 58 3 
3 4 32 31 
3 32 4 17 
3 23 52 51 
3 52 23 25 
3 57 59 14 
3 59 57 60 
3 60 57 31 
3 60 31 61 
3 61 31 0 
3 61 0 40 
3 48 62 15 
3 62 48 58 
3 58 48 44 
3 58 44 5 
3 58 5 3 
3 5 44 17 
3 17 44 32 
3 32 44 2 
3 32 2 30 
3 53 29 36 
3 29 53 27 
3 62 57 14 
3 57 62 58 
3 55 16 41 
3 16 55 22 
3 22 55 56 
3 16 22 51 
3 51 22 23 
3 16 51 18 
3 18 51 20 
3 16 18 15 
3 15 18 46 
3 16 14 59 
3 14 15 62 
3 19 46 18 
3 46 19 47 
3 47 19 63 
3 47 63 45 
3 45 63 37 
3 45 37 39 
3 49 22 56 
3 22 49 24 
3 7 21 6 
3 7 19 21 
3 19 7 63 
3 7 54 63 
3 54 7 13 
3 25 53 52 
3 53 25 27 
3 50 28 26 
3 28 50 35 
3 60 43 42 
3 43 60 61 
3 43 40 1 
3 40 43 61 
3 34 41 33 
3 41 34 55 
3 59 42 16 
3 42 59 60 
3 63 38 37 
3 38 63 54 
3 47 44 48 
3 44 47 45 
