ply
format ascii 1.0
comment VCGLIB generated
element vertex 140
property float x
property float y
property float z
property float nx
property float ny
property float nz
property uchar red
property uchar green
property uchar blue
property uchar alpha
element face 496
property list uchar int vertex_indices
end_header
-0.446208 3.609557e-16 0.1450789 -0.7782061 -0.4387789 -0.4492975 97 103 127 255 
-0.446208 3.609557e-16 0.2409589 -0.7782061 -0.4387789 0.4492975 97 103 127 255 
-0.3631735 3.609557e-16 0.09713891 -9.899671e-08 -0.4387788 -0.8985952 97 103 127 255 
-0.3631735 3.609557e-16 0.2888989 -4.949834e-08 -0.4387789 0.8985951 97 103 127 255 
-0.280139 3.609557e-16 0.1450789 0.7782061 -0.4387788 -0.4492977 97 103 127 255 
-0.280139 3.609557e-16 0.2409589 0.7782061 -0.4387789 0.4492976 97 103 127 255 
-0.4146549 0.07598691 0.2227417 -0.5512994 0.7712061 0.3182927 106 111 135 255 
-0.4146549 0.07598691 0.1632961 -0.5512994 0.771206 -0.3182927 106 111 135 255 
-0.3631735 0.07598691 0.2524645 -8.288266e-08 0.7712061 0.6365856 106 111 135 255 
-0.3631735 0.07598691 0.1335733 -7.956735e-08 0.7712061 -0.6365856 106 111 135 255 
-0.3116921 0.07598691 0.2227417 0.5512993 0.7712061 0.3182928 106 111 135 255 
-0.3116921 0.07598691 0.1632961 0.5512993 0.7712061 -0.3182928 106 111 135 255 
0.446208 3.158362e-16 0.007998139 0.8417315 -0.40549 0.3564633 93 99 123 255 
0.3983955 0.0822375 -0.0159081 0.5191177 0.8290225 0.2079387 128 133 155 255 
0.446208 3.158362e-16 -0.1832518 0.8417315 -0.40549 -0.3564631 93 99 123 255 
0.3983955 0.0822375 -0.1593456 0.5191178 0.8290225 -0.2079388 128 133 155 255 
0.350583 3.158362e-16 0.1036231 0.3564632 -0.4054902 0.8417314 93 99 123 255 
0.3266768 0.0822375 0.05581064 0.2079388 0.8290224 0.5191179 128 133 155 255 
0.159333 3.158362e-16 0.1036231 -0.3564633 -0.40549 0.8417314 93 99 123 255 
0.06370801 3.158362e-16 0.007998139 -0.8417314 -0.4054901 0.3564634 93 99 123 255 
0.1832393 0.0822375 0.05581064 -0.2079385 0.8290225 0.5191178 128 133 155 255 
0.1115205 0.0822375 -0.0159081 -0.5191178 0.8290225 0.2079388 128 133 155 255 
0.06370801 3.158362e-16 -0.1832518 -0.8417315 -0.4054902 -0.356463 93 99 123 255 
0.1115205 0.0822375 -0.1593456 -0.5191177 0.8290225 -0.2079387 128 133 155 255 
0.350583 3.158362e-16 -0.2788769 0.3564634 -0.4054897 -0.8417315 93 99 123 255 
0.3266768 0.0822375 -0.2310643 0.2079388 0.8290228 -0.5191174 128 133 155 255 
0.1832393 0.0822375 -0.2310643 -0.2079383 0.8290228 -0.5191174 128 133 155 255 
0.159333 3.158362e-16 -0.2788769 -0.3564633 -0.4054897 -0.8417315 93 99 123 255 
0.3569358 4.308909e-16 -0.1153914 0.7844403 -0.5258542 0.3288324 110 115 138 255 
0.3091232 0.19125 -0.1392976 0.6336114 0.729138 0.2586393 118 123 147 255 
0.3569358 4.308909e-16 -0.3066413 0.7844404 -0.5258542 -0.3288323 110 115 138 255 
0.3091232 0.19125 -0.2827351 0.6336114 0.7291381 -0.2586394 118 123 147 255 
0.2613107 4.308909e-16 -0.01976637 0.3288323 -0.5258545 0.7844402 110 115 138 255 
0.2374045 0.19125 -0.06757887 0.2586395 0.7291378 0.6336116 118 123 147 255 
0.07006075 4.308909e-16 -0.01976637 -0.3288324 -0.5258545 0.7844402 110 115 138 255 
-0.02556426 4.308909e-16 -0.1153914 -0.7844402 -0.5258545 0.3288322 110 115 138 255 
0.09396699 0.19125 -0.06757887 -0.2586394 0.7291379 0.6336116 118 123 147 255 
0.02224825 0.19125 -0.1392976 -0.6336116 0.7291379 0.2586395 118 123 147 255 
-0.02556426 4.308909e-16 -0.3066413 -0.7844402 -0.5258546 -0.3288321 110 115 138 255 
0.02224825 0.19125 -0.2827351 -0.6336116 0.7291379 -0.2586394 118 123 147 255 
0.2613107 4.308909e-16 -0.4022664 0.3288323 -0.5258542 -0.7844404 110 115 138 255 
0.2374045 0.19125 -0.3544538 0.2586394 0.7291381 -0.6336114 118 123 147 255 
0.09396699 0.19125 -0.3544538 -0.2586392 0.7291381 -0.6336115 118 123 147 255 
0.07006075 4.308909e-16 -0.4022664 -0.3288324 -0.5258542 -0.7844403 110 115 138 255 
-0.02978099 0 0.313098 -0.7782062 -0.4387792 -0.4492971 118 123 147 255 
-0.02978099 0 0.3725436 -0.7782061 -0.4387788 0.4492978 118 123 147 255 
0.02170041 0 0.2833752 1.515886e-07 -0.4387791 -0.898595 118 123 147 255 
0.02170041 0 0.4022664 -2.722413e-07 -0.4387784 0.8985953 118 123 147 255 
0.07318181 0 0.313098 0.7782062 -0.4387792 -0.4492973 118 123 147 255 
0.07318181 0 0.3725436 0.7782062 -0.4387789 0.4492976 118 123 147 255 
-0.01021806 0.04711188 0.3612489 -0.551299 0.7712062 0.318293 121 126 150 255 
-0.01021806 0.04711188 0.3243926 -0.5512993 0.7712059 -0.3182933 121 126 150 255 
0.02170041 0.04711188 0.379677 -2.884313e-07 0.7712067 0.6365848 121 126 150 255 
0.02170041 0.04711188 0.3059645 2.652245e-07 0.771206 -0.6365857 121 126 150 255 
0.05361888 0.04711188 0.3612489 0.5512992 0.7712062 0.3182927 121 126 150 255 
0.05361888 0.04711188 0.3243926 0.5512992 0.7712058 -0.3182937 121 126 150 255 
0.1435655 0.2383619 -0.2552307 1.422954e-08 1 0 113 118 141 255 
0.1435655 0.2383619 -0.292087 0 1 -1.422956e-08 113 118 141 255 
0.1754839 0.2383619 -0.2368025 -1.422958e-08 1 1.422958e-08 113 118 141 255 
0.1754839 0.2383619 -0.3105151 0 1 0 113 118 141 255 
0.2074024 0.2383619 -0.2552307 2.845911e-08 1 0 113 118 141 255 
0.2074024 0.2383619 -0.292087 0 1 0 113 118 141 255 
0.2269653 0.19125 -0.243936 0 0 0 97 103 127 255 
0.1754839 0.19125 -0.2142132 0 0 0 97 103 127 255 
0.2269653 0.19125 -0.3033816 -0.4082483 0.4082483 0.8164966 97 103 127 255 
0.1240025 0.19125 -0.243936 0 0 0 97 103 127 255 
0.1754839 0.19125 -0.3331044 -0.5773503 -0.5773503 0.5773503 97 103 127 255 
0.1240025 0.19125 -0.3033816 0 -1 0 97 103 127 255 
0.1068126 7.219114e-16 0.2025123 -0.7782061 -0.4387789 -0.4492975 97 103 127 255 
0.1068126 7.219114e-16 0.2983924 -0.7782061 -0.4387787 0.4492979 97 103 127 255 
0.1898471 7.219114e-16 0.1545723 2.474918e-08 -0.4387788 -0.8985951 97 103 127 255 
0.1898471 7.219114e-16 0.3463323 1.237459e-07 -0.4387789 0.8985951 97 103 127 255 
0.2728816 7.219114e-16 0.2025123 0.7782062 -0.4387789 -0.4492975 97 103 127 255 
0.2728816 7.219114e-16 0.2983924 0.7782061 -0.4387786 0.449298 97 103 127 255 
0.1383657 0.07598691 0.2801751 -0.5512993 0.7712063 0.3182924 128 133 155 255 
0.1383657 0.07598691 0.2207295 -0.5512993 0.7712061 -0.3182927 128 133 155 255 
0.1898471 0.07598691 0.3098979 1.889724e-07 0.7712062 0.6365854 128 133 155 255 
0.1898471 0.07598691 0.1910067 0 0.7712061 -0.6365855 128 133 155 255 
0.2413285 0.07598691 0.2801751 0.5512993 0.7712062 0.3182925 128 133 155 255 
0.2413285 0.07598691 0.2207295 0.5512993 0.7712061 -0.3182928 128 133 155 255 
-0.01509476 1.804779e-16 -0.094376 0.8417315 -0.4054899 0.3564633 101 107 130 255 
-0.06290731 0.0822375 -0.1182822 0.5191176 0.8290226 0.2079387 124 130 155 255 
-0.01509476 1.804779e-16 -0.285626 0.8417315 -0.4054899 -0.3564633 101 107 130 255 
-0.06290731 0.0822375 -0.2617197 0.5191175 0.8290228 -0.2079383 124 130 155 255 
-0.1107198 1.804779e-16 0.001249009 0.3564632 -0.4054901 0.8417314 101 107 130 255 
-0.134626 0.0822375 -0.04656349 0.2079388 0.8290225 0.5191177 124 130 155 255 
-0.3019698 1.804779e-16 0.001249009 -0.3564634 -0.4054899 0.8417315 101 107 130 255 
-0.3975948 1.804779e-16 -0.094376 -0.8417315 -0.4054899 0.3564633 101 107 130 255 
-0.2780635 0.0822375 -0.04656349 -0.2079385 0.8290226 0.5191178 124 130 155 255 
-0.3497823 0.0822375 -0.1182822 -0.5191176 0.8290225 0.2079389 124 130 155 255 
-0.3975948 1.804779e-16 -0.285626 -0.8417315 -0.4054899 -0.3564634 101 107 130 255 
-0.3497823 0.0822375 -0.2617197 -0.5191177 0.8290226 -0.2079386 124 130 155 255 
-0.1107198 1.804779e-16 -0.381251 0.3564631 -0.4054899 -0.8417316 101 107 130 255 
-0.134626 0.0822375 -0.3334385 0.2079387 0.8290226 -0.5191177 124 130 155 255 
-0.2780635 0.0822375 -0.3334385 -0.2079386 0.8290226 -0.5191177 124 130 155 255 
-0.3019698 1.804779e-16 -0.381251 -0.3564634 -0.4054899 -0.8417315 101 107 130 255 
0.1495214 3.158362e-16 -0.02174629 0.7382115 -0.6007053 0.3069153 110 115 138 255 
0.1176464 0.4539 -0.03768378 0.6949904 0.6593686 0.2867429 121 126 150 255 
0.1495214 3.158362e-16 -0.1492463 0.7382115 -0.6007053 -0.3069153 110 115 138 255 
0.1176464 0.4539 -0.1333088 0.6949904 0.6593686 -0.2867428 121 126 150 255 
0.08577137 3.158362e-16 0.04200372 0.3069152 -0.6007053 0.7382115 110 115 138 255 
0.06983389 0.4539 0.01012872 0.2867427 0.6593688 0.6949903 121 126 150 255 
-0.04172862 3.158362e-16 0.04200372 -0.3069153 -0.6007053 0.7382115 110 115 138 255 
-0.1054786 3.158362e-16 -0.02174629 -0.7382115 -0.6007053 0.3069153 110 115 138 255 
-0.02579112 0.4539 0.01012872 -0.2867428 0.6593685 0.6949905 121 126 150 255 
-0.07360363 0.4539 -0.03768378 -0.6949904 0.6593686 0.2867428 121 126 150 255 
-0.1054786 3.158362e-16 -0.1492463 -0.7382115 -0.6007054 -0.3069152 110 115 138 255 
-0.07360363 0.4539 -0.1333088 -0.6949904 0.6593686 -0.2867428 121 126 150 255 
0.08577137 3.158362e-16 -0.2129963 0.3069152 -0.6007054 -0.7382115 110 115 138 255 
0.06983389 0.4539 -0.1811213 0.2867428 0.6593686 -0.6949904 121 126 150 255 
-0.02579112 0.4539 -0.1811213 -0.2867427 0.6593686 -0.6949903 121 126 150 255 
-0.04172862 3.158362e-16 -0.2129963 -0.3069153 -0.6007053 -0.7382115 110 115 138 255 
-0.4065754 0.04711188 -0.257946 -0.5512996 0.7712062 0.3182921 124 129 152 255 
-0.4065754 0.04711188 -0.2948022 -0.5512995 0.7712061 -0.3182925 124 129 152 255 
-0.3746569 0.04711188 -0.2395178 1.074161e-06 0.7712057 0.6365861 124 129 152 255 
-0.3746569 0.04711188 -0.3132304 3.315308e-08 0.771206 -0.6365857 124 129 152 255 
-0.3427385 0.04711188 -0.257946 0.551299 0.7712067 0.318292 124 129 152 255 
-0.3427385 0.04711188 -0.2948022 0.551299 0.771207 -0.3182913 124 129 152 255 
-0.3231755 0 -0.2466513 0.7782065 -0.4387783 0.4492976 97 103 127 255 
-0.3746569 0 -0.2169285 5.568567e-07 -0.4387788 0.8985952 97 103 127 255 
-0.3231755 0 -0.3060969 0.7782066 -0.4387782 -0.4492975 97 103 127 255 
-0.4261383 0 -0.2466513 -0.7782061 -0.438779 0.4492975 97 103 127 255 
-0.3746569 0 -0.3358197 -1.454013e-07 -0.438779 -0.898595 97 103 127 255 
-0.4261383 0 -0.3060969 -0.778206 -0.4387788 -0.449298 97 103 127 255 
0.03614303 3.541878e-16 0.1364957 0.7615058 -0.564835 0.3179158 97 103 127 255 
-0.01166952 0.3075725 0.1125895 0.6664765 0.6935043 0.2736072 106 111 135 255 
0.03614303 3.541878e-16 -0.05475427 0.7615057 -0.5648351 -0.3179158 97 103 127 255 
-0.01166952 0.3075725 -0.03084804 0.6664765 0.6935043 -0.2736071 106 111 135 255 
-0.05948201 3.541878e-16 0.2321207 0.3179156 -0.5648351 0.7615058 97 103 127 255 
-0.08338824 0.3075725 0.1843082 0.2736071 0.6935043 0.6664765 106 111 135 255 
-0.250732 3.541878e-16 0.2321207 -0.3179159 -0.5648351 0.7615057 97 103 127 255 
-0.346357 3.541878e-16 0.1364957 -0.7615058 -0.564835 0.3179158 97 103 127 255 
-0.2268257 0.3075725 0.1843082 -0.273607 0.6935043 0.6664766 106 111 135 255 
-0.2985445 0.3075725 0.1125895 -0.6664765 0.6935042 0.2736075 106 111 135 255 
-0.346357 3.541878e-16 -0.05475427 -0.7615058 -0.5648351 -0.3179156 97 103 127 255 
-0.2985445 0.3075725 -0.03084804 -0.6664766 0.6935043 -0.2736072 106 111 135 255 
-0.05948201 3.541878e-16 -0.1503793 0.3179157 -0.5648351 -0.7615057 97 103 127 255 
-0.08338824 0.3075725 -0.1025668 0.2736072 0.6935043 -0.6664765 106 111 135 255 
-0.2268257 0.3075725 -0.1025668 -0.273607 0.6935043 -0.6664766 106 111 135 255 
-0.250732 3.541878e-16 -0.1503793 -0.3179158 -0.564835 -0.7615058 97 103 127 255 
3 2 1 0 
3 1 2 3 
3 3 2 4 
3 3 4 5 
3 8 7 6 
3 7 8 9 
3 9 8 10 
3 9 10 11 
3 10 3 5 
3 3 10 8 
3 4 10 5 
3 10 4 11 
3 8 1 3 
3 1 8 6 
3 9 4 2 
3 4 9 11 
3 6 0 1 
3 0 6 7 
3 7 2 0 
3 2 7 9 
3 14 13 12 
3 13 14 15 
3 13 16 12 
3 16 13 17 
3 20 19 18 
3 19 20 21 
3 21 22 19 
3 22 21 23 
3 25 14 24 
3 14 25 15 
3 20 23 21 
3 23 20 26 
3 26 20 17 
3 26 17 25 
3 25 17 13 
3 25 13 15 
3 27 19 22 
3 19 27 18 
3 18 27 24 
3 18 24 16 
3 16 24 14 
3 16 14 12 
3 26 24 27 
3 24 26 25 
3 23 27 22 
3 27 23 26 
3 17 18 16 
3 18 17 20 
3 30 29 28 
3 29 30 31 
3 29 32 28 
3 32 29 33 
3 36 35 34 
3 35 36 37 
3 37 38 35 
3 38 37 39 
3 41 30 40 
3 30 41 31 
3 36 39 37 
3 39 36 42 
3 42 36 33 
3 42 33 41 
3 41 33 29 
3 41 29 31 
3 43 35 38 
3 35 43 34 
3 34 43 40 
3 34 40 32 
3 32 40 30 
3 32 30 28 
3 42 40 43 
3 40 42 41 
3 39 43 38 
3 43 39 42 
3 33 34 32 
3 34 33 36 
3 46 45 44 
3 45 46 47 
3 47 46 48 
3 47 48 49 
3 52 51 50 
3 51 52 53 
3 53 52 54 
3 53 54 55 
3 54 47 49 
3 47 54 52 
3 48 54 49 
3 54 48 55 
3 52 45 47 
3 45 52 50 
3 53 48 46 
3 48 53 55 
3 50 44 45 
3 44 50 51 
3 51 46 44 
3 46 51 53 
3 58 57 56 
3 57 58 59 
3 59 58 60 
3 59 60 61 
3 60 63 62 
3 63 60 58 
3 62 63 60 
3 58 60 63 
3 64 60 62 
3 60 64 61 
3 62 60 64 
3 61 64 60 
3 58 65 63 
3 65 58 56 
3 63 65 58 
3 56 58 65 
3 59 64 66 
3 64 59 61 
3 66 64 59 
3 61 59 64 
3 56 67 65 
3 67 56 57 
3 65 67 56 
3 57 56 67 
3 57 66 67 
3 66 57 59 
3 67 66 57 
3 59 57 66 
3 70 69 68 
3 69 70 71 
3 71 70 72 
3 71 72 73 
3 76 75 74 
3 75 76 77 
3 77 76 78 
3 77 78 79 
3 78 71 73 
3 71 78 76 
3 72 78 73 
3 78 72 79 
3 76 69 71 
3 69 76 74 
3 77 72 70 
3 72 77 79 
3 74 68 69 
3 68 74 75 
3 75 70 68 
3 70 75 77 
3 82 81 80 
3 81 82 83 
3 81 84 80 
3 84 81 85 
3 88 87 86 
3 87 88 89 
3 89 90 87 
3 90 89 91 
3 93 82 92 
3 82 93 83 
3 88 91 89 
3 91 88 94 
3 94 88 85 
3 94 85 93 
3 93 85 81 
3 93 81 83 
3 94 92 95 
3 92 94 93 
3 91 95 90 
3 95 91 94 
3 85 86 84 
3 86 85 88 
3 95 87 90 
3 87 95 86 
3 86 95 92 
3 86 92 84 
3 84 92 82 
3 84 82 80 
3 98 97 96 
3 97 98 99 
3 97 100 96 
3 100 97 101 
3 104 103 102 
3 103 104 105 
3 105 106 103 
3 106 105 107 
3 109 98 108 
3 98 109 99 
3 104 107 105 
3 107 104 110 
3 110 104 101 
3 110 101 109 
3 109 101 97 
3 109 97 99 
3 111 103 106 
3 103 111 102 
3 102 111 108 
3 102 108 100 
3 100 108 98 
3 100 98 96 
3 110 108 111 
3 108 110 109 
3 107 111 106 
3 111 107 110 
3 101 102 100 
3 102 101 104 
3 114 113 112 
3 113 114 115 
3 115 114 116 
3 115 116 117 
3 116 119 118 
3 119 116 114 
3 120 116 118 
3 116 120 117 
3 114 121 119 
3 121 114 112 
3 115 120 122 
3 120 115 117 
3 112 123 121 
3 123 112 113 
3 113 122 123 
3 122 113 115 
3 122 121 123 
3 121 122 119 
3 119 122 120 
3 119 120 118 
3 126 125 124 
3 125 126 127 
3 125 128 124 
3 128 125 129 
3 132 131 130 
3 131 132 133 
3 133 134 131 
3 134 133 135 
3 137 126 136 
3 126 137 127 
3 132 135 133 
3 135 132 138 
3 138 132 129 
3 138 129 137 
3 137 129 125 
3 137 125 127 
3 139 131 134 
3 131 139 130 
3 130 139 136 
3 130 136 128 
3 128 136 126 
3 128 126 124 
3 138 136 139 
3 136 138 137 
3 135 139 134 
3 139 135 138 
3 129 130 128 
3 130 129 132 
3 2 1 0 
3 1 2 3 
3 3 2 4 
3 3 4 5 
3 8 7 6 
3 7 8 9 
3 9 8 10 
3 9 10 11 
3 10 3 5 
3 3 10 8 
3 4 10 5 
3 10 4 11 
3 8 1 3 
3 1 8 6 
3 9 4 2 
3 4 9 11 
3 6 0 1 
3 0 6 7 
3 7 2 0 
3 2 7 9 
3 14 13 12 
3 13 14 15 
3 13 16 12 
3 16 13 17 
3 20 19 18 
3 19 20 21 
3 21 22 19 
3 22 21 23 
3 25 14 24 
3 14 25 15 
3 20 23 21 
3 23 20 26 
3 26 20 17 
3 26 17 25 
3 25 17 13 
3 25 13 15 
3 27 19 22 
3 19 27 18 
3 18 27 24 
3 18 24 16 
3 16 24 14 
3 16 14 12 
3 26 24 27 
3 24 26 25 
3 23 27 22 
3 27 23 26 
3 17 18 16 
3 18 17 20 
3 30 29 28 
3 29 30 31 
3 29 32 28 
3 32 29 33 
3 36 35 34 
3 35 36 37 
3 37 38 35 
3 38 37 39 
3 41 30 40 
3 30 41 31 
3 36 39 37 
3 39 36 42 
3 42 36 33 
3 42 33 41 
3 41 33 29 
3 41 29 31 
3 43 35 38 
3 35 43 34 
3 34 43 40 
3 34 40 32 
3 32 40 30 
3 32 30 28 
3 42 40 43 
3 40 42 41 
3 39 43 38 
3 43 39 42 
3 33 34 32 
3 34 33 36 
3 46 45 44 
3 45 46 47 
3 47 46 48 
3 47 48 49 
3 52 51 50 
3 51 52 53 
3 53 52 54 
3 53 54 55 
3 54 47 49 
3 47 54 52 
3 48 54 49 
3 54 48 55 
3 52 45 47 
3 45 52 50 
3 53 48 46 
3 48 53 55 
3 50 44 45 
3 44 50 51 
3 51 46 44 
3 46 51 53 
3 58 57 56 
3 57 58 59 
3 59 58 60 
3 59 60 61 
3 60 63 62 
3 63 60 58 
3 62 63 60 
3 58 60 63 
3 64 60 62 
3 60 64 61 
3 62 60 64 
3 61 64 60 
3 58 65 63 
3 65 58 56 
3 63 65 58 
3 56 58 65 
3 59 64 66 
3 64 59 61 
3 66 64 59 
3 61 59 64 
3 56 67 65 
3 67 56 57 
3 65 67 56 
3 57 56 67 
3 57 66 67 
3 66 57 59 
3 67 66 57 
3 59 57 66 
3 70 69 68 
3 69 70 71 
3 71 70 72 
3 71 72 73 
3 76 75 74 
3 75 76 77 
3 77 76 78 
3 77 78 79 
3 78 71 73 
3 71 78 76 
3 72 78 73 
3 78 72 79 
3 76 69 71 
3 69 76 74 
3 77 72 70 
3 72 77 79 
3 74 68 69 
3 68 74 75 
3 75 70 68 
3 70 75 77 
3 82 81 80 
3 81 82 83 
3 81 84 80 
3 84 81 85 
3 88 87 86 
3 87 88 89 
3 89 90 87 
3 90 89 91 
3 93 82 92 
3 82 93 83 
3 88 91 89 
3 91 88 94 
3 94 88 85 
3 94 85 93 
3 93 85 81 
3 93 81 83 
3 94 92 95 
3 92 94 93 
3 91 95 90 
3 95 91 94 
3 85 86 84 
3 86 85 88 
3 95 87 90 
3 87 95 86 
3 86 95 92 
3 86 92 84 
3 84 92 82 
3 84 82 80 
3 98 97 96 
3 97 98 99 
3 97 100 96 
3 100 97 101 
3 104 103 102 
3 103 104 105 
3 105 106 103 
3 106 105 107 
3 109 98 108 
3 98 109 99 
3 104 107 105 
3 107 104 110 
3 110 104 101 
3 110 101 109 
3 109 101 97 
3 109 97 99 
3 111 103 106 
3 103 111 102 
3 102 111 108 
3 102 108 100 
3 100 108 98 
3 100 98 96 
3 110 108 111 
3 108 110 109 
3 107 111 106 
3 111 107 110 
3 101 102 100 
3 102 101 104 
3 114 113 112 
3 113 114 115 
3 115 114 116 
3 115 116 117 
3 116 119 118 
3 119 116 114 
3 120 116 118 
3 116 120 117 
3 114 121 119 
3 121 114 112 
3 115 120 122 
3 120 115 117 
3 112 123 121 
3 123 112 113 
3 113 122 123 
3 122 113 115 
3 122 121 123 
3 121 122 119 
3 119 122 120 
3 119 120 118 
3 126 125 124 
3 125 126 127 
3 125 128 124 
3 128 125 129 
3 132 131 130 
3 131 132 133 
3 133 134 131 
3 134 133 135 
3 137 126 136 
3 126 137 127 
3 132 135 133 
3 135 132 138 
3 138 132 129 
3 138 129 137 
3 137 129 125 
3 137 125 127 
3 139 131 134 
3 131 139 130 
3 130 139 136 
3 130 136 128 
3 128 136 126 
3 128 126 124 
3 138 136 139 
3 136 138 137 
3 135 139 134 
3 139 135 138 
3 129 130 128 
3 130 129 132 
