ply
format ascii 1.0
comment VCGLIB generated
element vertex 129
property float x
property float y
property float z
property float nx
property float ny
property float nz
property uchar red
property uchar green
property uchar blue
property uchar alpha
element face 400
property list uchar int vertex_indices
end_header
-0.5 0.9 0.3 -0.9701425 0.2425356 0 69 69 79 255 
-0.5 0.9 0 -0.7071069 0.7071067 0 69 69 79 255 
-0.4 0.9 0.3 0 1 0 69 69 79 255 
-0.4 0.9 0.2 0 1 0 69 69 79 255 
-0.4 0.9 0.25 0.9486833 0 -0.3162278 69 69 79 255 
0.5 0.9 0 0.7071069 0.7071066 0 69 69 79 255 
0.4 0.9 0.2 -0.3015113 0.904534 0.3015113 69 69 79 255 
0.4 0.9 0.25 -0.8017838 0.5345225 -0.2672612 69 69 79 255 
0.5 0.9 0.3 0.9701425 0.2425356 0 182 190 228 255 
0.4 0.9 0.3 0 1 0 182 190 228 255 
0.5 0 0.3 1 0 0 124 130 155 255 
0.5 0 0 1 0 0 54 54 58 255 
-0.5 0 0.3 -1 0 0 54 54 58 255 
-0.5 0 0 -1 0 0 54 54 58 255 
0.5 0.9 -0.3 0.9701425 0.2425356 0 69 69 79 255 
-0.5 0.9 -0.3 -0.9701425 0.2425356 0 69 69 79 255 
-0.5 0 -0.3 -1 0 0 54 54 58 255 
0.5 0 -0.3 1 0 0 124 130 155 255 
-0.1032303 0.9 -0.02673399 -0.2440161 0.3333334 -0.9106838 69 69 79 255 
-0.03914448 0.9 0.01026601 0.9106836 0.3333334 -0.2440169 69 69 79 255 
-0.09984462 0.937 -0.01409826 -0.1842491 0.702299 -0.6876252 69 69 79 255 
-0.05178021 0.937 0.01365174 0.6876252 0.7022992 -0.1842486 69 69 79 255 
-0.1402304 0.9 0.03735189 -0.9106833 0.3333346 0.2440163 69 69 79 255 
-0.1275946 0.937 0.03396615 -0.6876248 0.7022997 0.1842482 69 69 79 255 
-0.07953022 0.937 0.06171615 0.1842486 0.7022994 0.687625 69 69 79 255 
-0.07614448 0.9 0.07435189 0.244017 0.3333336 0.9106835 69 69 79 255 
-0.3255301 0.9 0.09838241 0.9106839 0.3333322 0.2440175 69 69 79 255 
-0.3381658 0.937 0.09499667 0.6876255 0.7022988 0.1842486 69 69 79 255 
-0.3625301 0.9 0.03429652 0.2440168 0.3333328 -0.9106839 69 69 79 255 
-0.3659158 0.937 0.04693226 0.1842493 0.7022992 -0.6876249 69 69 79 255 
-0.389616 0.9 0.1353824 -0.2440172 0.3333324 0.9106839 69 69 79 255 
-0.3862303 0.937 0.1227467 -0.1842488 0.7022989 0.6876253 69 69 79 255 
-0.426616 0.9 0.07129653 -0.9106838 0.3333327 -0.244017 69 69 79 255 
-0.4139803 0.937 0.07468226 -0.6876253 0.7022991 -0.1842487 69 69 79 255 
0.2665098 0.9 -0.05406632 0.7071068 0.5773505 0.4082481 69 69 79 255 
0.243852 0.937 -0.06714779 0.5202671 0.799435 0.3003765 69 69 79 255 
0.2282046 0.9 -0.1970233 0.408249 0.5773495 -0.7071071 69 69 79 255 
0.2151231 0.937 -0.1743656 0.3003764 0.7994345 -0.5202678 69 69 79 255 
0.1235528 0.9 -0.0157611 -0.4082482 0.5773497 0.7071073 69 69 79 255 
0.08524756 0.9 -0.1587181 -0.7071076 0.5773491 -0.4082485 69 69 79 255 
0.1366342 0.937 -0.03841888 -0.3003771 0.7994346 0.5202671 69 69 79 255 
0.1079053 0.937 -0.1456367 -0.5202675 0.7994344 -0.3003772 69 69 79 255 
0.3454011 0.9 -0.1453156 -0.4714048 0.3333341 -0.8164961 69 69 79 255 
0.4168797 0.9 -0.126163 0.816496 0.3333354 -0.4714041 69 69 79 255 
0.3519419 0.937 -0.1339867 -0.3559399 0.7022998 -0.6165077 69 69 79 255 
0.4055507 0.937 -0.1196222 0.6165065 0.7023007 -0.3559403 69 69 79 255 
0.397727 0.9 -0.05468444 0.4714041 0.333333 0.816497 69 69 79 255 
0.3911863 0.937 -0.06601333 0.3559408 0.7022993 0.6165078 69 69 79 255 
0.3262485 0.9 -0.07383705 -0.8164965 0.3333336 0.4714045 69 69 79 255 
0.3375774 0.937 -0.08037778 -0.6165076 0.7022994 0.355941 69 69 79 255 
-0.2144183 0.937 0.1244324 -0.6165077 0.7022995 -0.3559406 69 69 79 255 
-0.1608094 0.937 0.1100679 0.3559415 0.7022988 -0.616508 69 69 79 255 
-0.2000539 0.937 0.1780412 -0.3559417 0.7022992 0.6165075 69 69 79 255 
-0.146445 0.937 0.1636768 0.6165075 0.7022992 0.3559416 69 69 79 255 
-0.1351161 0.9 0.1702175 0.8164967 0.3333332 0.4714043 69 69 79 255 
-0.2065946 0.9 0.1893701 -0.4714046 0.3333326 0.8164968 69 69 79 255 
-0.2257472 0.9 0.1178916 -0.8164961 0.3333339 -0.4714051 69 69 79 255 
-0.1542687 0.9 0.09873903 0.4714046 0.3333333 -0.8164966 69 69 79 255 
-0.5 1.602965e-31 -0.5 -0.7071068 0 -0.7071068 124 130 155 255 
-0.5 0.9499999 -0.5 -0.6302626 0.2971084 -0.7172837 186 195 233 255 
-0.5 1.602965e-31 -0.3 -1 0 0 54 54 58 255 
-0.5 1 -0.45 -0.6302624 0.7172835 -0.2971088 189 198 237 255 
-0.5 1 -0.25 -0.5773503 0.5773503 0.5773503 189 198 237 255 
-0.5 0.9 -0.25 -0.7071068 0 0.7071068 69 69 79 255 
-0.4 1.602965e-31 -0.5 0.5773503 0.5773503 -0.5773503 124 130 155 255 
-0.4 0.9499999 -0.5 0.6302626 0.2971084 -0.7172836 186 195 233 255 
0.5 0.9 -0.25 0.7071068 0 0.7071068 69 69 79 255 
0.5 1 -0.25 0.5773503 0.5773503 0.5773503 189 198 237 255 
0.5 1 -0.45 0.6302624 0.7172835 -0.2971088 189 198 237 255 
0.5 1.602965e-31 -0.3 1 0 0 124 130 155 255 
0.5 1.602965e-31 -0.5 0.7071067 0 -0.7071068 124 130 155 255 
0.5 0.9499999 -0.5 0.6302626 0.2971084 -0.7172836 186 195 233 255 
0.4 1 -0.25 -0.5773503 0.5773503 0.5773503 189 198 237 255 
0.4 1 -0.45 -0.6302624 0.7172835 -0.2971088 189 198 237 255 
-0.4 1 -0.45 0.6302624 0.7172835 -0.2971088 189 198 237 255 
-0.4 1 -0.25 0.5773503 0.5773503 0.5773503 189 198 237 255 
-0.4 0.9 -0.25 0.7071068 0 0.7071068 69 69 79 255 
-0.4 0.9 -0.3 0.8944272 0.4472137 0 182 190 228 255 
-0.4 0.9 -0.4 0.8102876 0.5300863 -0.2498851 182 190 228 255 
-0.4 0.7 -0.4 0.8102876 -0.5300863 -0.2498852 169 177 213 255 
-0.4 1.602965e-31 0 0.7071068 0.7071068 0 124 130 155 255 
-0.4 0.7 0 0.7071067 -0.7071068 0 169 177 213 255 
0.4 0.7 0 -0.7071068 -0.7071068 0 169 177 213 255 
0.4 0.7 -0.4 -0.8102875 -0.5300864 -0.2498852 169 177 213 255 
0.35 0.7 -0.45 0.2971085 -0.6302626 -0.7172836 169 177 213 255 
-0.35 0.7 -0.45 -0.2971085 -0.6302626 -0.7172836 169 177 213 255 
0.4 1.602965e-31 -0.5 -0.5773503 0.5773503 -0.5773503 124 130 155 255 
0.4 1.602965e-31 0 -0.7071068 0.7071068 0 124 130 155 255 
-0.35 0.9 -0.45 -0.2971085 0.6302626 -0.7172836 182 190 228 255 
0.35 0.9 -0.45 0.2971085 0.6302626 -0.7172835 182 190 228 255 
0.4 0.9 -0.25 -0.7071068 0 0.7071068 69 69 79 255 
0.4 0.9499999 -0.5 -0.6302626 0.2971084 -0.7172837 186 195 233 255 
0.4 0.9 -0.4 -0.8102877 0.5300862 -0.2498851 182 190 228 255 
0.4 0.9 -0.3 -0.8944272 0.4472136 0 69 69 79 255 
0.5 0 0.5 0.7071068 0 0.7071068 124 130 155 255 
0.5 0.9499999 0.5 0.6302626 0.2971084 0.7172837 186 195 233 255 
0.5 1 0.45 0.6302624 0.7172835 0.2971088 189 198 237 255 
0.5 1 0.25 0.5773503 0.5773503 -0.5773503 189 198 237 255 
0.5 0.9 0.25 0.7071068 0 -0.7071068 69 69 79 255 
0.4 0 0.5 -0.5773503 0.5773503 0.5773503 124 130 155 255 
0.4 0.7 0.5 -0.09421629 -0.4825119 0.8708074 169 177 213 255 
0.4 0.9 0.5 -0.09421629 0.4825119 0.8708074 182 190 228 255 
0.4 0.9499999 0.5 -0.6302626 0.2971084 0.7172836 186 195 233 255 
-0.5 0.9 0.25 -0.7071068 0 -0.7071068 182 190 228 255 
-0.5 1 0.25 -0.5773503 0.5773503 -0.5773503 189 198 237 255 
-0.5 1 0.45 -0.6302624 0.7172835 0.2971088 189 198 237 255 
-0.5 0 0.5 -0.7071066 0 0.7071069 124 130 155 255 
-0.5 0.9499999 0.5 -0.6302626 0.2971084 0.7172835 186 195 233 255 
-0.4 1 0.25 0.5773503 0.5773503 -0.5773503 189 198 237 255 
-0.4 1 0.45 0.6302624 0.7172835 0.2971088 189 198 237 255 
0.4 1 0.25 -0.5773503 0.5773503 -0.5773503 189 198 237 255 
0.4 1 0.45 -0.6302624 0.7172835 0.2971088 189 198 237 255 
0.4 0.9 0.4 -0.904534 0.3015114 -0.3015113 182 190 228 255 
0.4 0.7 0.2 -0.9045341 -0.3015114 0.3015113 169 177 213 255 
0.4 0 0 -0.7071068 0.7071068 0 124 130 155 255 
0.4 0.7 0.4 -0.904534 -0.3015114 -0.3015113 169 177 213 255 
-0.4 0.7 0.2 0.904534 -0.3015113 0.3015113 169 177 213 255 
-0.4 0 0.5 0.5773503 0.5773503 0.5773503 124 130 155 255 
-0.4 0 0 0.7071068 0.7071067 0 124 130 155 255 
0.35 0.7 0.55 0.2971086 -0.6302625 0.7172836 169 177 213 255 
-0.35 0.7 0.55 -0.2971086 -0.6302625 0.7172836 169 177 213 255 
0.35 0.9 0.55 0.2971086 0.6302625 0.7172836 182 190 228 255 
-0.35 0.9 0.55 -0.2971086 0.6302625 0.7172836 182 190 228 255 
-0.4 0.7 0.5 0.09421629 -0.4825119 0.8708074 169 177 213 255 
-0.4 0.7 0.4 0.904534 -0.3015113 -0.3015114 169 177 213 255 
-0.4 0.9 0.4 0.904534 0.3015113 -0.3015113 182 190 228 255 
-0.4 0.9 0.2 0.7071068 0 0.7071068 69 69 79 255 
-0.4 0.9 0.5 0.09421632 0.4825119 0.8708074 182 190 228 255 
-0.4 0.9499999 0.5 0.6302626 0.2971083 0.7172836 186 195 233 255 
3 2 1 0 
3 1 2 3 
3 3 2 4 
3 3 5 1 
3 5 3 6 
3 5 6 7 
3 5 7 8 
3 8 7 9 
3 11 8 10 
3 8 11 5 
3 1 12 0 
3 12 1 13 
3 15 5 14 
3 5 15 1 
3 13 15 16 
3 15 13 1 
3 5 17 14 
3 17 5 11 
3 20 19 18 
3 19 20 21 
3 23 18 22 
3 18 23 20 
3 24 20 23 
3 20 24 21 
3 19 24 25 
3 24 19 21 
3 24 22 25 
3 22 24 23 
3 28 27 26 
3 27 28 29 
3 27 30 26 
3 30 27 31 
3 31 32 30 
3 32 31 33 
3 31 29 33 
3 29 31 27 
3 33 28 32 
3 28 33 29 
3 36 35 34 
3 35 36 37 
3 40 39 38 
3 39 40 41 
3 41 36 39 
3 36 41 37 
3 40 37 41 
3 37 40 35 
3 35 38 34 
3 38 35 40 
3 44 43 42 
3 43 44 45 
3 43 47 46 
3 47 43 45 
3 47 48 46 
3 48 47 49 
3 49 42 48 
3 42 49 44 
3 47 44 49 
3 44 47 45 
3 52 51 50 
3 51 52 53 
3 53 55 54 
3 55 53 52 
3 50 57 56 
3 57 50 51 
3 52 56 55 
3 56 52 50 
3 57 53 54 
3 53 57 51 
3 60 59 58 
3 59 60 61 
3 61 60 15 
3 61 15 62 
3 62 15 63 
3 59 64 58 
3 64 59 65 
3 14 67 66 
3 67 14 68 
3 69 68 14 
3 70 68 69 
3 68 70 71 
3 68 72 67 
3 72 68 73 
3 61 75 74 
3 75 61 62 
3 77 75 76 
3 78 75 77 
3 75 78 74 
3 79 74 78 
3 64 74 79 
3 74 64 65 
3 64 79 80 
3 80 79 81 
3 81 83 82 
3 83 81 84 
3 84 81 85 
3 85 81 79 
3 64 87 86 
3 87 64 80 
3 88 84 85 
3 84 88 89 
3 75 63 76 
3 63 75 62 
3 67 90 66 
3 90 67 72 
3 83 87 82 
3 83 86 87 
3 86 83 91 
3 91 83 73 
3 92 73 83 
3 73 92 72 
3 72 92 93 
3 72 93 90 
3 91 70 86 
3 70 91 71 
3 73 71 91 
3 71 73 68 
3 61 65 59 
3 65 61 74 
3 92 77 93 
3 77 92 89 
3 77 89 88 
3 77 88 78 
3 92 84 89 
3 84 92 83 
3 79 88 85 
3 88 79 78 
3 10 95 94 
3 95 10 96 
3 96 10 8 
3 96 8 97 
3 97 8 98 
3 95 99 94 
3 99 95 100 
3 100 95 101 
3 101 95 102 
3 0 104 103 
3 104 0 105 
3 12 105 0 
3 106 105 12 
3 105 106 107 
3 105 108 104 
3 108 105 109 
3 111 97 110 
3 97 111 96 
3 111 101 102 
3 101 111 112 
3 112 111 110 
3 7 112 110 
3 113 112 7 
3 6 113 7 
3 114 112 113 
3 114 113 82 
3 114 115 112 
3 114 100 115 
3 100 114 99 
3 81 113 116 
3 113 81 82 
3 99 118 117 
3 118 99 114 
3 121 120 119 
3 120 121 122 
3 110 98 7 
3 98 110 97 
3 104 4 103 
3 4 104 108 
3 118 123 117 
3 123 118 124 
3 124 118 125 
3 125 118 116 
3 116 118 81 
3 125 116 4 
3 126 4 116 
3 108 125 4 
3 109 125 108 
3 109 127 125 
3 127 109 128 
3 123 106 117 
3 106 123 107 
3 107 123 127 
3 107 127 128 
3 109 107 128 
3 107 109 105 
3 96 102 95 
3 102 96 111 
3 127 120 122 
3 120 127 123 
3 100 121 119 
3 121 100 101 
3 127 112 125 
3 112 127 122 
3 112 122 121 
3 112 121 101 
3 124 112 115 
3 112 124 125 
3 6 116 113 
3 116 6 126 
3 115 123 124 
3 123 115 120 
3 120 115 119 
3 119 115 100 
3 2 1 0 
3 1 2 3 
3 3 2 4 
3 3 5 1 
3 5 3 6 
3 5 6 7 
3 5 7 8 
3 8 7 9 
3 11 8 10 
3 8 11 5 
3 1 12 0 
3 12 1 13 
3 15 5 14 
3 5 15 1 
3 13 15 16 
3 15 13 1 
3 5 17 14 
3 17 5 11 
3 20 19 18 
3 19 20 21 
3 23 18 22 
3 18 23 20 
3 24 20 23 
3 20 24 21 
3 19 24 25 
3 24 19 21 
3 24 22 25 
3 22 24 23 
3 28 27 26 
3 27 28 29 
3 27 30 26 
3 30 27 31 
3 31 32 30 
3 32 31 33 
3 31 29 33 
3 29 31 27 
3 33 28 32 
3 28 33 29 
3 36 35 34 
3 35 36 37 
3 40 39 38 
3 39 40 41 
3 41 36 39 
3 36 41 37 
3 40 37 41 
3 37 40 35 
3 35 38 34 
3 38 35 40 
3 44 43 42 
3 43 44 45 
3 43 47 46 
3 47 43 45 
3 47 48 46 
3 48 47 49 
3 49 42 48 
3 42 49 44 
3 47 44 49 
3 44 47 45 
3 52 51 50 
3 51 52 53 
3 53 55 54 
3 55 53 52 
3 50 57 56 
3 57 50 51 
3 52 56 55 
3 56 52 50 
3 57 53 54 
3 53 57 51 
3 60 59 58 
3 59 60 61 
3 61 60 15 
3 61 15 62 
3 62 15 63 
3 59 64 58 
3 64 59 65 
3 14 67 66 
3 67 14 68 
3 69 68 14 
3 70 68 69 
3 68 70 71 
3 68 72 67 
3 72 68 73 
3 61 75 74 
3 75 61 62 
3 77 75 76 
3 78 75 77 
3 75 78 74 
3 79 74 78 
3 64 74 79 
3 74 64 65 
3 64 79 80 
3 80 79 81 
3 81 83 82 
3 83 81 84 
3 84 81 85 
3 85 81 79 
3 64 87 86 
3 87 64 80 
3 88 84 85 
3 84 88 89 
3 75 63 76 
3 63 75 62 
3 67 90 66 
3 90 67 72 
3 83 87 82 
3 83 86 87 
3 86 83 91 
3 91 83 73 
3 92 73 83 
3 73 92 72 
3 72 92 93 
3 72 93 90 
3 91 70 86 
3 70 91 71 
3 73 71 91 
3 71 73 68 
3 61 65 59 
3 65 61 74 
3 92 77 93 
3 77 92 89 
3 77 89 88 
3 77 88 78 
3 92 84 89 
3 84 92 83 
3 79 88 85 
3 88 79 78 
3 10 95 94 
3 95 10 96 
3 96 10 8 
3 96 8 97 
3 97 8 98 
3 95 99 94 
3 99 95 100 
3 100 95 101 
3 101 95 102 
3 0 104 103 
3 104 0 105 
3 12 105 0 
3 106 105 12 
3 105 106 107 
3 105 108 104 
3 108 105 109 
3 111 97 110 
3 97 111 96 
3 111 101 102 
3 101 111 112 
3 112 111 110 
3 7 112 110 
3 113 112 7 
3 6 113 7 
3 114 112 113 
3 114 113 82 
3 114 115 112 
3 114 100 115 
3 100 114 99 
3 81 113 116 
3 113 81 82 
3 99 118 117 
3 118 99 114 
3 121 120 119 
3 120 121 122 
3 110 98 7 
3 98 110 97 
3 104 4 103 
3 4 104 108 
3 118 123 117 
3 123 118 124 
3 124 118 125 
3 125 118 116 
3 116 118 81 
3 125 116 4 
3 126 4 116 
3 108 125 4 
3 109 125 108 
3 109 127 125 
3 127 109 128 
3 123 106 117 
3 106 123 107 
3 107 123 127 
3 107 127 128 
3 109 107 128 
3 107 109 105 
3 96 102 95 
3 102 96 111 
3 127 120 122 
3 120 127 123 
3 100 121 119 
3 121 100 101 
3 127 112 125 
3 112 127 122 
3 112 122 121 
3 112 121 101 
3 124 112 115 
3 112 124 125 
3 6 116 113 
3 116 6 126 
3 115 123 124 
3 123 115 120 
3 120 115 119 
3 119 115 100 
