ply
format ascii 1.0
comment VCGLIB generated
element vertex 156
property float x
property float y
property float z
property float nx
property float ny
property float nz
property uchar red
property uchar green
property uchar blue
property uchar alpha
element face 468
property list uchar int vertex_indices
end_header
-0.5 0.9 0.3 -0.9701425 0.2425356 0 183 192 230 255 
-0.5 0.9 0 -0.7071068 0.7071068 0 69 69 79 255 
0.5 0.9 0.3 0.9701425 0.2425356 0 183 192 230 255 
0.5 0.9 0 0.7071068 0.7071068 0 69 69 79 255 
0.5 0 0.3 1 0 0 54 54 58 255 
0.5 0 0 1 0 0 54 54 58 255 
-0.5 0 0.3 -1 0 0 54 54 58 255 
-0.5 0 0 -1 0 0 54 54 58 255 
0.5 0.9 -0.3 0.9701425 0.2425356 0 183 192 230 255 
-0.5 0.9 -0.3 -0.9701425 0.2425356 0 183 192 230 255 
-0.5 0 -0.3 -1 0 0 54 54 58 255 
0.5 0 -0.3 1 0 0 54 54 58 255 
-0.1032303 0.9 -0.02673399 -0.2440161 0.3333334 -0.9106838 61 61 68 255 
-0.03914448 0.9 0.01026601 0.9106836 0.3333334 -0.2440169 61 61 68 255 
-0.09984462 0.937 -0.01409826 -0.1842491 0.702299 -0.6876252 69 69 79 255 
-0.05178021 0.937 0.01365174 0.6876252 0.7022992 -0.1842486 69 69 79 255 
-0.1402304 0.9 0.03735189 -0.9106833 0.3333346 0.2440163 61 61 68 255 
-0.1275946 0.937 0.03396615 -0.6876248 0.7022997 0.1842482 69 69 79 255 
-0.07953022 0.937 0.06171615 0.1842486 0.7022994 0.687625 69 69 79 255 
-0.07614448 0.9 0.07435189 0.244017 0.3333336 0.9106835 61 61 68 255 
-0.3255301 0.9 0.09838241 0.9106839 0.3333322 0.2440175 61 61 68 255 
-0.3381658 0.937 0.09499667 0.6876255 0.7022988 0.1842486 69 69 79 255 
-0.3625301 0.9 0.03429652 0.2440168 0.3333328 -0.9106839 61 61 68 255 
-0.3659158 0.937 0.04693226 0.1842493 0.7022992 -0.6876249 69 69 79 255 
-0.389616 0.9 0.1353824 -0.2440172 0.3333324 0.9106839 61 61 68 255 
-0.3862303 0.937 0.1227467 -0.1842488 0.7022989 0.6876253 69 69 79 255 
-0.426616 0.9 0.07129653 -0.9106838 0.3333327 -0.244017 61 61 68 255 
-0.4139803 0.937 0.07468226 -0.6876253 0.7022991 -0.1842487 69 69 79 255 
0.2665098 0.9 -0.05406632 0.7071068 0.5773505 0.4082481 61 61 68 255 
0.243852 0.937 -0.06714779 0.5202671 0.799435 0.3003765 69 69 79 255 
0.2282046 0.9 -0.1970233 0.408249 0.5773495 -0.7071071 61 61 68 255 
0.2151231 0.937 -0.1743656 0.3003764 0.7994345 -0.5202678 69 69 79 255 
0.1235528 0.9 -0.0157611 -0.4082482 0.5773497 0.7071073 61 61 68 255 
0.08524756 0.9 -0.1587181 -0.7071076 0.5773491 -0.4082485 61 61 68 255 
0.1366342 0.937 -0.03841888 -0.3003771 0.7994346 0.5202671 69 69 79 255 
0.1079053 0.937 -0.1456367 -0.5202675 0.7994344 -0.3003772 69 69 79 255 
0.3454011 0.9 -0.1453156 -0.4714048 0.3333341 -0.8164961 61 61 68 255 
0.4168797 0.9 -0.126163 0.816496 0.3333354 -0.4714041 61 61 68 255 
0.3519419 0.937 -0.1339867 -0.3559399 0.7022998 -0.6165077 69 69 79 255 
0.4055507 0.937 -0.1196222 0.6165065 0.7023007 -0.3559403 69 69 79 255 
0.397727 0.9 -0.05468444 0.4714041 0.333333 0.816497 61 61 68 255 
0.3911863 0.937 -0.06601333 0.3559408 0.7022993 0.6165078 69 69 79 255 
0.3262485 0.9 -0.07383705 -0.8164965 0.3333336 0.4714045 61 61 68 255 
0.3375774 0.937 -0.08037778 -0.6165076 0.7022994 0.355941 69 69 79 255 
-0.2144183 0.937 0.1244324 -0.6165077 0.7022995 -0.3559406 69 69 79 255 
-0.1608094 0.937 0.1100679 0.3559415 0.7022988 -0.616508 69 69 79 255 
-0.2000539 0.937 0.1780412 -0.3559417 0.7022992 0.6165075 69 69 79 255 
-0.146445 0.937 0.1636768 0.6165075 0.7022992 0.3559416 69 69 79 255 
-0.1351161 0.9 0.1702175 0.8164967 0.3333332 0.4714043 61 61 68 255 
-0.2065946 0.9 0.1893701 -0.4714046 0.3333326 0.8164968 61 61 68 255 
-0.2257472 0.9 0.1178916 -0.8164961 0.3333339 -0.4714051 61 61 68 255 
-0.1542687 0.9 0.09873903 0.4714046 0.3333333 -0.8164966 61 61 68 255 
0.2 0.95 -0.45 0.7172836 0.6302626 -0.2971085 189 198 237 255 
0.2 0.95 -0.3 0.7172836 0.6302626 0.2971086 189 198 237 255 
0.15 0.95 -0.5 0.2971087 0.6302624 -0.7172835 189 198 237 255 
0.15 0.95 -0.25 0.2971086 0.6302625 0.7172835 189 198 237 255 
-0.15 0.95 -0.5 -0.2971087 0.6302626 -0.7172835 189 198 237 255 
-0.15 0.95 -0.25 -0.2971087 0.6302624 0.7172835 189 198 237 255 
-0.2 0.95 -0.45 -0.7172836 0.6302626 -0.2971085 189 198 237 255 
-0.2 0.95 -0.3 -0.7172836 0.6302626 0.2971086 189 198 237 255 
0.2 0.7 -0.45 0.6324556 -0.4472136 -0.6324555 126 132 158 255 
0.15 0.7 -0.5 0.2971086 -0.6302625 -0.7172835 126 132 158 255 
-0.2 0.7 -0.45 -0.6324556 -0.4472137 -0.6324554 126 132 158 255 
-0.15 0.7 -0.5 -0.2971087 -0.6302624 -0.7172836 126 132 158 255 
-0.2 0.8 -0.45 -1 0 0 151 158 190 255 
-0.2 0.8 -0.3 -0.9238796 0 0.3826834 151 158 190 255 
-0.15 0.8 -0.25 -0.3826835 0 0.9238795 151 158 190 255 
0.15 0.8 -0.25 0.3826835 0 0.9238795 151 158 190 255 
0.2 0.8 -0.3 0.9238796 0 0.3826834 151 158 190 255 
0.2 0.8 -0.45 1 0 -1.897275e-08 151 158 190 255 
-0.5 1.602965e-31 -0.5 -0.7071068 0 -0.7071068 126 132 158 255 
-0.5 0.9499999 -0.5 -0.6302626 0.2971084 -0.7172837 186 195 233 255 
-0.5 1.602965e-31 -0.3 -1 0 0 126 132 158 255 
-0.5 1 -0.45 -0.6302624 0.7172835 -0.2971088 189 198 237 255 
-0.5 1 -0.25 -0.5773503 0.5773503 0.5773503 189 198 237 255 
-0.5 0.9 -0.25 -0.7071068 0 0.7071068 183 192 230 255 
-0.4 1.602965e-31 -0.5 0.5773502 0.5773504 -0.5773503 126 132 158 255 
-0.4 0.9499999 -0.5 0.6302626 0.2971084 -0.7172836 186 195 233 255 
0.5 0.9 -0.25 0.7071068 0 0.7071068 183 192 230 255 
0.5 1 -0.25 0.5773503 0.5773503 0.5773503 189 198 237 255 
0.5 1 -0.45 0.6302624 0.7172835 -0.2971088 189 198 237 255 
0.5 1.602965e-31 -0.3 1 0 0 126 132 158 255 
0.5 1.602965e-31 -0.5 0.7071067 0 -0.7071068 126 132 158 255 
0.5 0.9499999 -0.5 0.6302626 0.2971084 -0.7172836 186 195 233 255 
0.4 1 -0.25 -0.5773503 0.5773503 0.5773503 189 198 237 255 
0.4 1 -0.45 -0.6302624 0.7172835 -0.2971088 189 198 237 255 
-0.4 1 -0.45 0.6302623 0.7172836 -0.2971089 189 198 237 255 
-0.4 1 -0.25 0.5773503 0.5773503 0.5773503 189 198 237 255 
-0.4 0.9 -0.25 0.7071068 0 0.7071068 183 192 230 255 
-0.4 0.9 -0.3 0.8944272 0.4472137 0 183 192 230 255 
-0.4 0.9 -0.4 0.8102876 0.5300863 -0.2498851 183 192 230 255 
-0.4 1.602965e-31 -0.4 0.5773502 0.5773503 -0.5773503 90 96 120 255 
-0.4 0.7 -0.4 -0.3693979 -0.2612038 -0.8918059 118 123 147 255 
0.4 0.7 -0.4 0.369398 -0.2612038 -0.8918059 118 123 147 255 
0.35 0.7 -0.45 0.2971085 -0.6302626 -0.7172835 169 177 213 255 
-0.35 0.7 -0.45 -0.2971085 -0.6302626 -0.7172836 169 177 213 255 
0.4 1.602965e-31 -0.5 -0.5773503 0.5773503 -0.5773503 126 132 158 255 
0.4 1.602965e-31 -0.4 -0.5773501 0.5773503 -0.5773504 90 96 120 255 
-0.35 0.9 -0.45 -0.2971085 0.6302626 -0.7172836 183 192 230 255 
0.35 0.9 -0.45 0.2971085 0.6302626 -0.7172835 183 192 230 255 
0.4 0.9 -0.25 -0.7071068 0 0.7071068 183 192 230 255 
0.4 0.9499999 -0.5 -0.6302626 0.2971084 -0.7172837 186 195 233 255 
0.4 0.9 -0.4 -0.8102877 0.5300862 -0.2498851 183 192 230 255 
0.4 0.9 -0.3 -0.8944272 0.4472136 0 183 192 230 255 
0.5 1.602965e-31 0.5 0.7071068 0 0.7071068 126 132 158 255 
0.5 0.9499999 0.5 0.6302626 0.2971084 0.7172837 186 195 233 255 
0.5 1.602965e-31 0.3 1 0 0 126 132 158 255 
0.5 1 0.45 0.6302624 0.7172835 0.2971088 189 198 237 255 
0.5 1 0.25 0.5773503 0.5773503 -0.5773503 189 198 237 255 
0.5 0.9 0.25 0.7071068 0 -0.7071068 183 192 230 255 
0.4 1.602965e-31 0.5 -0.5773502 0.5773504 0.5773503 126 132 158 255 
0.4 0.9499999 0.5 -0.6302626 0.2971084 0.7172836 186 195 233 255 
-0.5 0.9 0.25 -0.7071068 0 -0.7071068 183 192 230 255 
-0.5 1 0.25 -0.5773503 0.5773503 -0.5773503 189 198 237 255 
-0.5 1 0.45 -0.6302624 0.7172835 0.2971088 189 198 237 255 
-0.5 1.602965e-31 0.3 -1 0 0 126 132 158 255 
-0.5 1.602965e-31 0.5 -0.7071067 0 0.7071068 126 132 158 255 
-0.5 0.9499999 0.5 -0.6302626 0.2971084 0.7172836 186 195 233 255 
-0.4 1 0.25 0.5773503 0.5773503 -0.5773503 189 198 237 255 
-0.4 1 0.45 0.6302624 0.7172835 0.2971088 189 198 237 255 
0.4 1 0.45 -0.6302623 0.7172836 0.2971089 189 198 237 255 
0.4 1 0.25 -0.5773503 0.5773503 -0.5773503 189 198 237 255 
0.4 0.9 0.25 -0.7071068 0 -0.7071068 183 192 230 255 
0.4 0.9 0.3 -0.8944272 0.4472137 0 183 192 230 255 
0.4 0.9 0.4 -0.8102876 0.5300863 0.2498851 183 192 230 255 
0.4 1.602965e-31 0.4 -0.5773502 0.5773503 0.5773503 90 96 120 255 
0.4 0.7 0.4 0.3693979 -0.2612038 0.8918059 118 123 147 255 
-0.4 0.7 0.4 -0.369398 -0.2612038 0.8918059 118 123 147 255 
-0.35 0.7 0.45 -0.2971085 -0.6302626 0.7172835 169 177 213 255 
0.35 0.7 0.45 0.2971085 -0.6302626 0.7172836 169 177 213 255 
-0.4 1.602965e-31 0.5 0.5773503 0.5773503 0.5773503 126 132 158 255 
-0.4 1.602965e-31 0.4 0.5773501 0.5773503 0.5773504 90 96 120 255 
0.35 0.9 0.45 0.2971085 0.6302626 0.7172836 183 192 230 255 
-0.35 0.9 0.45 -0.2971085 0.6302626 0.7172835 183 192 230 255 
-0.4 0.9 0.25 0.7071068 0 -0.7071068 183 192 230 255 
-0.4 0.9499999 0.5 0.6302626 0.2971084 0.7172837 186 195 233 255 
-0.4 0.9 0.4 0.8102877 0.5300862 0.2498851 183 192 230 255 
-0.4 0.9 0.3 0.8944272 0.4472136 0 183 192 230 255 
-0.2 0.95 0.45 -0.7172836 0.6302626 0.2971085 189 198 237 255 
-0.2 0.95 0.3 -0.7172836 0.6302626 -0.2971086 189 198 237 255 
-0.15 0.95 0.5 -0.2971087 0.6302624 0.7172835 189 198 237 255 
-0.15 0.95 0.25 -0.2971086 0.6302625 -0.7172835 189 198 237 255 
0.15 0.95 0.5 0.2971087 0.6302626 0.7172835 189 198 237 255 
0.15 0.95 0.25 0.2971087 0.6302624 -0.7172835 189 198 237 255 
0.2 0.95 0.45 0.7172836 0.6302626 0.2971085 189 198 237 255 
0.2 0.95 0.3 0.7172836 0.6302626 -0.2971086 189 198 237 255 
-0.2 0.7 0.45 -0.6324556 -0.4472136 0.6324555 126 132 158 255 
-0.15 0.7 0.5 -0.2971086 -0.6302625 0.7172835 126 132 158 255 
0.2 0.7 0.45 0.6324556 -0.4472137 0.6324554 126 132 158 255 
0.15 0.7 0.5 0.2971087 -0.6302624 0.7172836 126 132 158 255 
0.2 0.8 0.45 1 0 0 151 158 190 255 
0.2 0.8 0.3 0.9238796 0 -0.3826834 151 158 190 255 
0.15 0.8 0.25 0.3826835 0 -0.9238795 151 158 190 255 
-0.15 0.8 0.25 -0.3826835 0 -0.9238795 151 158 190 255 
-0.2 0.8 0.3 -0.9238796 0 -0.3826834 151 158 190 255 
-0.2 0.8 0.45 -1 0 1.897275e-08 151 158 190 255 
3 2 1 0 
3 1 2 3 
3 5 2 4 
3 2 5 3 
3 1 6 0 
3 6 1 7 
3 9 3 8 
3 3 9 1 
3 7 9 10 
3 9 7 1 
3 3 11 8 
3 11 3 5 
3 14 13 12 
3 13 14 15 
3 17 12 16 
3 12 17 14 
3 18 14 17 
3 14 18 15 
3 13 18 19 
3 18 13 15 
3 18 16 19 
3 16 18 17 
3 22 21 20 
3 21 22 23 
3 21 24 20 
3 24 21 25 
3 25 26 24 
3 26 25 27 
3 25 23 27 
3 23 25 21 
3 27 22 26 
3 22 27 23 
3 30 29 28 
3 29 30 31 
3 34 33 32 
3 33 34 35 
3 35 30 33 
3 30 35 31 
3 34 31 35 
3 31 34 29 
3 29 32 28 
3 32 29 34 
3 38 37 36 
3 37 38 39 
3 37 41 40 
3 41 37 39 
3 41 42 40 
3 42 41 43 
3 43 36 42 
3 36 43 38 
3 41 38 43 
3 38 41 39 
3 46 45 44 
3 45 46 47 
3 47 49 48 
3 49 47 46 
3 44 51 50 
3 51 44 45 
3 46 50 49 
3 50 46 44 
3 51 47 48 
3 47 51 45 
3 54 53 52 
3 53 54 55 
3 55 54 56 
3 55 56 57 
3 57 56 58 
3 57 58 59 
3 62 61 60 
3 61 62 63 
3 64 59 58 
3 59 64 65 
3 66 59 65 
3 59 66 57 
3 55 66 67 
3 66 55 57 
3 55 68 53 
3 68 55 67 
3 53 69 52 
3 69 53 68 
3 52 61 54 
3 61 52 60 
3 60 52 69 
3 56 61 63 
3 61 56 54 
3 62 56 63 
3 56 62 58 
3 58 62 64 
3 69 62 60 
3 62 69 64 
3 60 62 69 
3 64 69 62 
3 72 71 70 
3 71 72 73 
3 73 72 9 
3 73 9 74 
3 74 9 75 
3 71 76 70 
3 76 71 77 
3 8 79 78 
3 79 8 80 
3 81 80 8 
3 82 80 81 
3 80 82 83 
3 80 84 79 
3 84 80 85 
3 73 87 86 
3 87 73 74 
3 89 87 88 
3 90 87 89 
3 87 90 86 
3 91 86 90 
3 91 90 92 
3 76 86 91 
3 86 76 77 
3 92 94 93 
3 94 92 95 
3 76 97 96 
3 97 76 91 
3 98 94 95 
3 94 98 99 
3 87 75 88 
3 75 87 74 
3 79 100 78 
3 100 79 84 
3 97 101 96 
3 101 97 85 
3 85 97 102 
3 102 97 93 
3 85 102 84 
3 84 102 103 
3 84 103 100 
3 101 82 96 
3 82 101 83 
3 85 83 101 
3 83 85 80 
3 73 77 71 
3 77 73 86 
3 102 89 103 
3 89 102 99 
3 89 99 98 
3 89 98 90 
3 102 94 99 
3 94 102 93 
3 92 98 95 
3 98 92 90 
3 106 105 104 
3 105 106 107 
3 107 106 2 
3 107 2 108 
3 108 2 109 
3 105 110 104 
3 110 105 111 
3 0 113 112 
3 113 0 114 
3 115 114 0 
3 116 114 115 
3 114 116 117 
3 114 118 113 
3 118 114 119 
3 107 121 120 
3 121 107 108 
3 123 121 122 
3 124 121 123 
3 121 124 120 
3 125 120 124 
3 125 124 126 
3 110 120 125 
3 120 110 111 
3 126 128 127 
3 128 126 129 
3 110 131 130 
3 131 110 125 
3 132 128 129 
3 128 132 133 
3 121 109 122 
3 109 121 108 
3 113 134 112 
3 134 113 118 
3 131 135 130 
3 135 131 119 
3 119 131 136 
3 136 131 127 
3 119 136 118 
3 118 136 137 
3 118 137 134 
3 135 116 130 
3 116 135 117 
3 119 117 135 
3 117 119 114 
3 107 111 105 
3 111 107 120 
3 136 123 137 
3 123 136 133 
3 123 133 132 
3 123 132 124 
3 136 128 133 
3 128 136 127 
3 126 132 129 
3 132 126 124 
3 140 139 138 
3 139 140 141 
3 141 140 142 
3 141 142 143 
3 143 142 144 
3 143 144 145 
3 148 147 146 
3 147 148 149 
3 150 145 144 
3 145 150 151 
3 152 145 151 
3 145 152 143 
3 141 152 153 
3 152 141 143 
3 141 154 139 
3 154 141 153 
3 139 155 138 
3 155 139 154 
3 138 147 140 
3 147 138 146 
3 146 138 155 
3 142 147 149 
3 147 142 140 
3 148 142 149 
3 142 148 144 
3 144 148 150 
3 155 148 146 
3 148 155 150 
3 146 148 155 
3 150 155 148 
3 92 97 91 
3 97 92 93 
3 126 131 125 
3 131 126 127 
3 2 1 0 
3 1 2 3 
3 5 2 4 
3 2 5 3 
3 1 6 0 
3 6 1 7 
3 9 3 8 
3 3 9 1 
3 7 9 10 
3 9 7 1 
3 3 11 8 
3 11 3 5 
3 14 13 12 
3 13 14 15 
3 17 12 16 
3 12 17 14 
3 18 14 17 
3 14 18 15 
3 13 18 19 
3 18 13 15 
3 18 16 19 
3 16 18 17 
3 22 21 20 
3 21 22 23 
3 21 24 20 
3 24 21 25 
3 25 26 24 
3 26 25 27 
3 25 23 27 
3 23 25 21 
3 27 22 26 
3 22 27 23 
3 30 29 28 
3 29 30 31 
3 34 33 32 
3 33 34 35 
3 35 30 33 
3 30 35 31 
3 34 31 35 
3 31 34 29 
3 29 32 28 
3 32 29 34 
3 38 37 36 
3 37 38 39 
3 37 41 40 
3 41 37 39 
3 41 42 40 
3 42 41 43 
3 43 36 42 
3 36 43 38 
3 41 38 43 
3 38 41 39 
3 46 45 44 
3 45 46 47 
3 47 49 48 
3 49 47 46 
3 44 51 50 
3 51 44 45 
3 46 50 49 
3 50 46 44 
3 51 47 48 
3 47 51 45 
3 54 53 52 
3 53 54 55 
3 55 54 56 
3 55 56 57 
3 57 56 58 
3 57 58 59 
3 62 61 60 
3 61 62 63 
3 64 59 58 
3 59 64 65 
3 66 59 65 
3 59 66 57 
3 55 66 67 
3 66 55 57 
3 55 68 53 
3 68 55 67 
3 53 69 52 
3 69 53 68 
3 52 61 54 
3 61 52 60 
3 60 52 69 
3 56 61 63 
3 61 56 54 
3 62 56 63 
3 56 62 58 
3 58 62 64 
3 69 62 60 
3 62 69 64 
3 60 62 69 
3 64 69 62 
3 72 71 70 
3 71 72 73 
3 73 72 9 
3 73 9 74 
3 74 9 75 
3 71 76 70 
3 76 71 77 
3 8 79 78 
3 79 8 80 
3 81 80 8 
3 82 80 81 
3 80 82 83 
3 80 84 79 
3 84 80 85 
3 73 87 86 
3 87 73 74 
3 89 87 88 
3 90 87 89 
3 87 90 86 
3 91 86 90 
3 91 90 92 
3 76 86 91 
3 86 76 77 
3 92 94 93 
3 94 92 95 
3 76 97 96 
3 97 76 91 
3 98 94 95 
3 94 98 99 
3 87 75 88 
3 75 87 74 
3 79 100 78 
3 100 79 84 
3 97 101 96 
3 101 97 85 
3 85 97 102 
3 102 97 93 
3 85 102 84 
3 84 102 103 
3 84 103 100 
3 101 82 96 
3 82 101 83 
3 85 83 101 
3 83 85 80 
3 73 77 71 
3 77 73 86 
3 102 89 103 
3 89 102 99 
3 89 99 98 
3 89 98 90 
3 102 94 99 
3 94 102 93 
3 92 98 95 
3 98 92 90 
3 106 105 104 
3 105 106 107 
3 107 106 2 
3 107 2 108 
3 108 2 109 
3 105 110 104 
3 110 105 111 
3 0 113 112 
3 113 0 114 
3 115 114 0 
3 116 114 115 
3 114 116 117 
3 114 118 113 
3 118 114 119 
3 107 121 120 
3 121 107 108 
3 123 121 122 
3 124 121 123 
3 121 124 120 
3 125 120 124 
3 125 124 126 
3 110 120 125 
3 120 110 111 
3 126 128 127 
3 128 126 129 
3 110 131 130 
3 131 110 125 
3 132 128 129 
3 128 132 133 
3 121 109 122 
3 109 121 108 
3 113 134 112 
3 134 113 118 
3 131 135 130 
3 135 131 119 
3 119 131 136 
3 136 131 127 
3 119 136 118 
3 118 136 137 
3 118 137 134 
3 135 116 130 
3 116 135 117 
3 119 117 135 
3 117 119 114 
3 107 111 105 
3 111 107 120 
3 136 123 137 
3 123 136 133 
3 123 133 132 
3 123 132 124 
3 136 128 133 
3 128 136 127 
3 126 132 129 
3 132 126 124 
3 140 139 138 
3 139 140 141 
3 141 140 142 
3 141 142 143 
3 143 142 144 
3 143 144 145 
3 148 147 146 
3 147 148 149 
3 150 145 144 
3 145 150 151 
3 152 145 151 
3 145 152 143 
3 141 152 153 
3 152 141 143 
3 141 154 139 
3 154 141 153 
3 139 155 138 
3 155 139 154 
3 138 147 140 
3 147 138 146 
3 146 138 155 
3 142 147 149 
3 147 142 140 
3 148 142 149 
3 142 148 144 
3 144 148 150 
3 155 148 146 
3 148 155 150 
3 146 148 155 
3 150 155 148 
3 92 97 91 
3 97 92 93 
3 126 131 125 
3 131 126 127 
