ply
format ascii 1.0
comment VCGLIB generated
element vertex 116
property float x
property float y
property float z
property float nx
property float ny
property float nz
property uchar red
property uchar green
property uchar blue
property uchar alpha
element face 372
property list uchar int vertex_indices
end_header
0.3 0.7 -0.4 -0.5773503 -0.5773503 -0.5773503 116 121 144 255 
0.3 0.7 -0.45 -0.9045341 -0.3015113 -0.3015113 166 174 209 255 
-0.3 0.7 -0.4 0.5773504 -0.5773503 -0.5773503 116 121 144 255 
-0.3 0.7 -0.45 0.904534 -0.3015113 -0.3015113 166 174 209 255 
-0.4 0.7 0.3 -0.5773503 -0.5773503 -0.5773503 116 121 144 255 
-0.4 0.7 -0.3 -0.5773503 -0.5773502 0.5773504 116 121 144 255 
-0.45 0.7 0.3 -0.3015113 -0.3015113 -0.9045341 166 174 209 255 
-0.45 0.7 -0.3 -0.3015113 -0.3015113 0.904534 166 174 209 255 
-0.45 0.9 -0.3 -0.5773503 -0.5773502 0.5773504 178 186 223 255 
-0.45 0.9 0.3 -0.5773503 -0.5773503 -0.5773503 178 186 223 255 
-0.4 0 0.3 -0.5773503 0.5773503 -0.5773503 90 96 120 255 
-0.5 1.237562e-15 0.3 -0.5773504 0.5773502 -0.5773503 126 132 158 255 
-0.5 0.9 0.3 -0.9045341 -0.3015113 -0.3015113 178 186 223 255 
0.3 0.7 0.4 -0.5773503 -0.5773503 0.5773503 116 121 144 255 
-0.3 0.7 0.4 0.5773503 -0.5773502 0.5773503 116 121 144 255 
0.3 0.7 0.45 -0.904534 -0.3015113 0.3015113 166 174 209 255 
-0.3 0.7 0.45 0.9045341 -0.3015114 0.3015113 166 174 209 255 
-0.4 0 -0.3 -0.5773503 0.5773501 0.5773503 90 96 120 255 
-0.5 1.237562e-15 -0.3 -0.5773503 0.5773503 0.5773503 126 132 158 255 
-0.5 0.9 -0.3 -0.5773502 -0.5773504 0.5773503 178 186 223 255 
0.3 0.9 0.45 -0.5773503 -0.5773503 0.5773503 178 186 223 255 
-0.3 0.9 0.45 0.5773503 -0.5773501 0.5773503 178 186 223 255 
0.3 0.9 0.5 -0.3015113 -0.3015113 0.9045341 178 186 223 255 
-0.3 0.9 0.5 0.3015113 -0.3015114 0.904534 178 186 223 255 
0.3 0 0.4 -0.5773503 0.5773503 0.5773503 90 96 120 255 
0.3 1.237562e-15 0.5 -0.5773503 0.5773502 0.5773503 126 132 158 255 
0.5 1.237562e-15 0.5 0.7071068 0 0.7071068 126 132 158 255 
0.5 1.1 0.5 0.5773503 0.5773503 0.5773503 189 198 237 255 
0.3 1 0.5 -0.3015113 0.3015113 0.904534 183 192 230 255 
0.3 1.1 0.5 -0.5773503 0.5773503 0.5773503 189 198 237 255 
-0.3 1 0.5 0.3015113 0.3015113 0.904534 183 192 230 255 
-0.5 1.1 0.5 -0.5773503 0.5773503 0.5773503 189 198 237 255 
-0.3 1.1 0.5 0.5773503 0.5773503 0.5773503 189 198 237 255 
-0.5 1.237562e-15 0.5 -0.7071064 0 0.7071072 126 132 158 255 
-0.3 1.237562e-15 0.5 0.5773503 0.5773503 0.5773503 126 132 158 255 
-0.3 0 0.4 0.5773504 0.5773502 0.5773503 90 96 120 255 
0.5 0.9 0.3 0.5773502 -0.5773504 -0.5773503 178 186 223 255 
0.5 0.9 -0.3 0.9045341 -0.3015113 0.3015113 178 186 223 255 
0.45 0.9 0.3 0.5773503 -0.5773502 -0.5773504 178 186 223 255 
0.45 0.9 -0.3 0.5773503 -0.5773503 0.5773503 178 186 223 255 
0.45 0.7 0.3 0.3015113 -0.3015113 -0.904534 166 174 209 255 
0.45 0.7 -0.3 0.3015113 -0.3015113 0.9045341 166 174 209 255 
0.4 0.7 0.3 0.5773503 -0.5773502 -0.5773504 116 121 144 255 
0.4 0.7 -0.3 0.5773503 -0.5773503 0.5773503 116 121 144 255 
0.5 1.1 0.3 0.5773503 0.5773503 -0.5773503 189 198 237 255 
0.5 1 0.3 0.904534 0.3015113 -0.3015113 183 192 230 255 
0.5 1.237562e-15 0.3 0.5773503 0.5773503 -0.5773503 126 132 158 255 
0.5 1 -0.3 0.5773502 0.5773503 0.5773504 183 192 230 255 
0.5 1.1 -0.3 0.5773503 0.5773503 0.5773503 189 198 237 255 
0.5 1.237562e-15 -0.5 0.7071068 0 -0.7071068 126 132 158 255 
0.5 1.237562e-15 -0.3 0.5773504 0.5773502 0.5773503 126 132 158 255 
0.5 1.1 -0.5 0.5773503 0.5773503 -0.5773503 189 198 237 255 
0.4 0 0.3 0.5773503 0.5773501 -0.5773503 90 96 120 255 
0.4 0 -0.3 0.5773503 0.5773503 0.5773503 90 96 120 255 
-0.3 0.9 -0.45 0.5773503 -0.5773502 -0.5773503 178 186 223 255 
0.3 0.9 -0.45 -0.5773503 -0.5773503 -0.5773503 178 186 223 255 
0.3 0.9 -0.5 -0.3015114 -0.3015113 -0.9045341 178 186 223 255 
-0.3 0.9 -0.5 0.3015113 -0.3015113 -0.904534 178 186 223 255 
0.3 1.263345e-15 -0.5 -0.5773504 0.5773502 -0.5773503 126 132 158 255 
0.3 2.578255e-17 -0.4 -0.5773503 0.5773504 -0.5773503 90 96 120 255 
-0.3 1.263345e-15 -0.5 0.5773498 0.5773505 -0.5773504 126 132 158 255 
-0.3 2.578255e-17 -0.4 0.5773503 0.5773501 -0.5773503 90 96 120 255 
-0.5 1.237562e-15 -0.5 -0.7071068 0 -0.7071068 126 132 158 255 
-0.5 1.1 -0.5 -0.5773503 0.5773503 -0.5773503 189 198 237 255 
-0.3 1 -0.5 0.3015114 0.3015113 -0.904534 183 192 230 255 
-0.3 1.1 -0.5 0.5773503 0.5773503 -0.5773503 189 198 237 255 
0.3 1 -0.5 -0.3015113 0.3015113 -0.904534 183 192 230 255 
0.3 1.1 -0.5 -0.5773503 0.5773503 -0.5773503 189 198 237 255 
0.3 1 -0.3 -0.5773503 0.5773503 0.5773503 183 192 230 255 
-0.3 1 -0.3 0.5773503 0.5773503 0.5773503 183 192 230 255 
-0.5 1 -0.3 -0.904534 0.3015113 0.3015113 183 192 230 255 
-0.5 1 0.3 -0.904534 0.3015113 -0.3015114 183 192 230 255 
-0.3 1 0.3 0.5773503 0.5773503 -0.5773503 183 192 230 255 
0.3 1 0.3 -0.5773503 0.5773503 -0.5773503 183 192 230 255 
0.3 0.9 -0.3 -0.5773503 0.5773503 0.5773503 124 129 152 255 
0.3 0.9 0.3 -0.5773502 0.5773504 -0.5773502 124 129 152 255 
-0.3 0.9 -0.3 0.5773502 0.5773504 0.5773502 124 129 152 255 
-0.3 0.9 0.3 0.5773503 0.5773503 -0.5773503 124 129 152 255 
0.3 1.1 0.3 -0.5773503 0.5773503 -0.5773503 189 198 237 255 
-0.3 1.1 0.3 0.5773503 0.5773503 -0.5773503 189 198 237 255 
-0.5 1.1 0.3 -0.5773503 0.5773503 -0.5773503 189 198 237 255 
-0.3 1.1 -0.3 0.5773503 0.5773503 0.5773503 189 198 237 255 
-0.5 1.1 -0.3 -0.5773503 0.5773503 0.5773503 189 198 237 255 
0.3 1.1 -0.3 -0.5773503 0.5773503 0.5773503 189 198 237 255 
-0.2 0.7 0.45 -0.6324557 -0.4472136 0.6324554 126 132 158 255 
-0.15 0.7 0.5 -0.2971087 -0.6302625 0.7172835 126 132 158 255 
0.2 0.7 0.45 0.6324556 -0.4472137 0.6324553 126 132 158 255 
0.15 0.7 0.5 0.2971087 -0.6302624 0.7172836 126 132 158 255 
-0.15 0.9 0.5 -0.3826835 0 0.9238796 189 198 237 255 
-0.2 0.9 0.45 -0.7071069 0 0.7071066 189 198 237 255 
0.15 0.9 0.5 0.3826836 0 0.9238795 189 198 237 255 
0.2 0.9 0.45 0.7071069 0 0.7071066 189 198 237 255 
-0.45 0.7 -0.2 -0.6324554 -0.4472136 -0.6324557 126 132 158 255 
-0.5 0.7 -0.15 -0.7172835 -0.6302625 -0.2971087 126 132 158 255 
-0.45 0.7 0.2 -0.6324553 -0.4472137 0.6324556 126 132 158 255 
-0.5 0.7 0.15 -0.7172836 -0.6302624 0.2971087 126 132 158 255 
-0.5 0.9 -0.15 -0.9238796 0 -0.3826835 189 198 237 255 
-0.45 0.9 -0.2 -0.7071066 0 -0.7071069 189 198 237 255 
-0.5 0.9 0.15 -0.9238795 0 0.3826836 189 198 237 255 
-0.45 0.9 0.2 -0.7071066 0 0.7071069 189 198 237 255 
0.2 0.7 -0.45 0.6324557 -0.4472136 -0.6324554 126 132 158 255 
0.15 0.7 -0.5 0.2971087 -0.6302625 -0.7172835 126 132 158 255 
-0.2 0.7 -0.45 -0.6324556 -0.4472137 -0.6324553 126 132 158 255 
-0.15 0.7 -0.5 -0.2971087 -0.6302624 -0.7172836 126 132 158 255 
0.15 0.9 -0.5 0.3826835 0 -0.9238796 189 198 237 255 
0.2 0.9 -0.45 0.7071069 0 -0.7071066 189 198 237 255 
-0.15 0.9 -0.5 -0.3826836 0 -0.9238795 189 198 237 255 
-0.2 0.9 -0.45 -0.7071069 0 -0.7071066 189 198 237 255 
0.45 0.7 0.2 0.6324554 -0.4472136 0.6324557 126 132 158 255 
0.5 0.7 0.15 0.7172835 -0.6302625 0.2971087 126 132 158 255 
0.45 0.7 -0.2 0.6324553 -0.4472137 -0.6324556 126 132 158 255 
0.5 0.7 -0.15 0.7172836 -0.6302624 -0.2971087 126 132 158 255 
0.5 0.9 0.15 0.9238796 0 0.3826835 189 198 237 255 
0.45 0.9 0.2 0.7071066 0 0.7071069 189 198 237 255 
0.5 0.9 -0.15 0.9238795 0 -0.3826836 189 198 237 255 
0.45 0.9 -0.2 0.7071066 0 -0.7071069 189 198 237 255 
3 2 1 0 
3 1 2 3 
3 6 5 4 
3 5 6 7 
3 6 8 7 
3 8 6 9 
3 11 4 10 
3 4 11 6 
3 6 11 12 
3 6 12 9 
3 15 14 13 
3 14 15 16 
3 5 18 17 
3 18 5 7 
3 18 7 19 
3 19 7 8 
3 20 16 15 
3 16 20 21 
3 22 21 20 
3 21 22 23 
3 25 13 24 
3 13 25 15 
3 22 15 25 
3 15 22 20 
3 27 25 26 
3 25 27 22 
3 22 27 28 
3 28 27 29 
3 22 28 23 
3 30 23 28 
3 31 23 30 
3 31 30 32 
3 33 23 31 
3 23 33 34 
3 23 16 21 
3 34 16 23 
3 35 16 34 
3 16 35 14 
3 38 37 36 
3 37 38 39 
3 42 41 40 
3 41 42 43 
3 38 41 39 
3 41 38 40 
3 27 45 44 
3 26 45 27 
3 46 45 26 
3 36 45 46 
3 36 47 45 
3 37 47 36 
3 37 48 47 
3 49 48 37 
3 50 49 37 
3 48 49 51 
3 42 46 52 
3 46 42 40 
3 46 40 36 
3 36 40 38 
3 50 43 53 
3 43 50 41 
3 41 50 37 
3 41 37 39 
3 54 1 3 
3 1 54 55 
3 54 56 55 
3 56 54 57 
3 59 56 58 
3 56 59 1 
3 1 59 0 
3 55 56 1 
3 54 60 57 
3 60 54 3 
3 3 61 60 
3 61 3 2 
3 63 60 62 
3 60 63 57 
3 57 63 64 
3 64 63 65 
3 57 64 56 
3 66 56 64 
3 51 56 66 
3 51 66 67 
3 51 58 56 
3 58 51 49 
3 64 68 66 
3 68 64 69 
3 71 69 70 
3 69 71 72 
3 28 72 30 
3 72 28 73 
3 73 47 68 
3 47 73 45 
3 75 68 74 
3 68 75 73 
3 68 76 74 
3 76 68 69 
3 72 76 69 
3 76 72 77 
3 72 75 77 
3 75 72 73 
3 78 27 44 
3 27 78 29 
3 78 45 73 
3 45 78 44 
3 28 78 73 
3 78 28 29 
3 80 32 79 
3 32 80 31 
3 32 72 79 
3 72 32 30 
3 80 72 71 
3 72 80 79 
3 63 81 65 
3 81 63 82 
3 81 70 69 
3 70 81 82 
3 81 64 65 
3 64 81 69 
3 67 48 51 
3 48 67 83 
3 68 67 66 
3 67 68 83 
3 48 68 47 
3 68 48 83 
3 33 12 11 
3 12 33 71 
3 71 19 12 
3 71 33 80 
3 80 33 31 
3 70 19 71 
3 70 18 19 
3 63 18 70 
3 82 63 70 
3 18 63 62 
3 12 8 9 
3 8 12 19 
3 17 11 10 
3 11 17 18 
3 58 61 59 
3 61 58 60 
3 50 52 46 
3 52 50 53 
3 35 25 24 
3 25 35 34 
3 86 85 84 
3 85 86 87 
3 89 85 88 
3 85 89 84 
3 90 85 87 
3 85 90 88 
3 91 87 86 
3 87 91 90 
3 94 93 92 
3 93 94 95 
3 97 93 96 
3 93 97 92 
3 98 93 95 
3 93 98 96 
3 99 95 94 
3 95 99 98 
3 102 101 100 
3 101 102 103 
3 105 101 104 
3 101 105 100 
3 106 101 103 
3 101 106 104 
3 107 103 102 
3 103 107 106 
3 110 109 108 
3 109 110 111 
3 113 109 112 
3 109 113 108 
3 114 109 111 
3 109 114 112 
3 115 111 110 
3 111 115 114 
3 2 59 61 
3 59 2 0 
3 13 35 24 
3 35 13 14 
3 10 5 17 
3 5 10 4 
3 42 53 43 
3 53 42 52 
3 74 77 75 
3 77 74 76 
3 2 1 0 
3 1 2 3 
3 6 5 4 
3 5 6 7 
3 6 8 7 
3 8 6 9 
3 11 4 10 
3 4 11 6 
3 6 11 12 
3 6 12 9 
3 15 14 13 
3 14 15 16 
3 5 18 17 
3 18 5 7 
3 18 7 19 
3 19 7 8 
3 20 16 15 
3 16 20 21 
3 22 21 20 
3 21 22 23 
3 25 13 24 
3 13 25 15 
3 22 15 25 
3 15 22 20 
3 27 25 26 
3 25 27 22 
3 22 27 28 
3 28 27 29 
3 22 28 23 
3 30 23 28 
3 31 23 30 
3 31 30 32 
3 33 23 31 
3 23 33 34 
3 23 16 21 
3 34 16 23 
3 35 16 34 
3 16 35 14 
3 38 37 36 
3 37 38 39 
3 42 41 40 
3 41 42 43 
3 38 41 39 
3 41 38 40 
3 27 45 44 
3 26 45 27 
3 46 45 26 
3 36 45 46 
3 36 47 45 
3 37 47 36 
3 37 48 47 
3 49 48 37 
3 50 49 37 
3 48 49 51 
3 42 46 52 
3 46 42 40 
3 46 40 36 
3 36 40 38 
3 50 43 53 
3 43 50 41 
3 41 50 37 
3 41 37 39 
3 54 1 3 
3 1 54 55 
3 54 56 55 
3 56 54 57 
3 59 56 58 
3 56 59 1 
3 1 59 0 
3 55 56 1 
3 54 60 57 
3 60 54 3 
3 3 61 60 
3 61 3 2 
3 63 60 62 
3 60 63 57 
3 57 63 64 
3 64 63 65 
3 57 64 56 
3 66 56 64 
3 51 56 66 
3 51 66 67 
3 51 58 56 
3 58 51 49 
3 64 68 66 
3 68 64 69 
3 71 69 70 
3 69 71 72 
3 28 72 30 
3 72 28 73 
3 73 47 68 
3 47 73 45 
3 75 68 74 
3 68 75 73 
3 68 76 74 
3 76 68 69 
3 72 76 69 
3 76 72 77 
3 72 75 77 
3 75 72 73 
3 78 27 44 
3 27 78 29 
3 78 45 73 
3 45 78 44 
3 28 78 73 
3 78 28 29 
3 80 32 79 
3 32 80 31 
3 32 72 79 
3 72 32 30 
3 80 72 71 
3 72 80 79 
3 63 81 65 
3 81 63 82 
3 81 70 69 
3 70 81 82 
3 81 64 65 
3 64 81 69 
3 67 48 51 
3 48 67 83 
3 68 67 66 
3 67 68 83 
3 48 68 47 
3 68 48 83 
3 33 12 11 
3 12 33 71 
3 71 19 12 
3 71 33 80 
3 80 33 31 
3 70 19 71 
3 70 18 19 
3 63 18 70 
3 82 63 70 
3 18 63 62 
3 12 8 9 
3 8 12 19 
3 17 11 10 
3 11 17 18 
3 58 61 59 
3 61 58 60 
3 50 52 46 
3 52 50 53 
3 35 25 24 
3 25 35 34 
3 86 85 84 
3 85 86 87 
3 89 85 88 
3 85 89 84 
3 90 85 87 
3 85 90 88 
3 91 87 86 
3 87 91 90 
3 94 93 92 
3 93 94 95 
3 97 93 96 
3 93 97 92 
3 98 93 95 
3 93 98 96 
3 99 95 94 
3 95 99 98 
3 102 101 100 
3 101 102 103 
3 105 101 104 
3 101 105 100 
3 106 101 103 
3 101 106 104 
3 107 103 102 
3 103 107 106 
3 110 109 108 
3 109 110 111 
3 113 109 112 
3 109 113 108 
3 114 109 111 
3 109 114 112 
3 115 111 110 
3 111 115 114 
3 2 59 61 
3 59 2 0 
3 13 35 24 
3 35 13 14 
3 10 5 17 
3 5 10 4 
3 42 53 43 
3 53 42 52 
3 74 77 75 
3 77 74 76 
