ply
format ascii 1.0
comment VCGLIB generated
element vertex 128
property float x
property float y
property float z
property float nx
property float ny
property float nz
property uchar red
property uchar green
property uchar blue
property uchar alpha
element face 288
property list uchar int vertex_indices
end_header
0.475 0.8 0.35 0.7071069 -0.7071067 1.204196e-07 214 134 91 255 
0.475 0.9 0.35 0.7071067 0.7071069 1.204195e-07 214 134 91 255 
0.4750001 0.8 -0.3500001 0.7071068 -0.7071068 1.204196e-07 214 134 91 255 
0.4750001 0.9 -0.3500001 0.7071069 0.7071066 1.204196e-07 214 134 91 255 
0.3749999 0.8 0.35 -0.7071068 -0.7071068 -9.031467e-08 214 134 91 255 
0.375 0.8 -0.3500001 -0.7071068 -0.7071068 -9.031466e-08 214 134 91 255 
0.3749999 0.9 0.35 -0.7071068 0.7071068 -9.031468e-08 214 134 91 255 
0.375 0.9 -0.3500001 -0.7071068 0.7071068 -9.031466e-08 214 134 91 255 
-0.375 0.8 0.35 0.7071068 -0.7071068 9.031467e-08 214 134 91 255 
-0.375 0.9 0.35 0.7071067 0.7071069 9.031466e-08 214 134 91 255 
-0.3749999 0.8 -0.3500001 0.7071068 -0.7071068 9.031466e-08 214 134 91 255 
-0.3749999 0.9 -0.3500001 0.7071069 0.7071067 9.031468e-08 214 134 91 255 
-0.475 0.8 0.35 -0.7071068 -0.7071068 -9.031467e-08 214 134 91 255 
-0.4749999 0.8 -0.3500001 -0.7071068 -0.7071068 -9.031466e-08 214 134 91 255 
-0.475 0.9 0.35 -0.7071068 0.7071068 -9.031467e-08 214 134 91 255 
-0.4749999 0.9 -0.3500001 -0.7071068 0.7071068 -9.031466e-08 214 134 91 255 
-0.35 0.8 -0.375 0 -0.7071068 0.7071068 214 134 91 255 
-0.35 0.9 -0.375 0 0.7071068 0.7071068 214 134 91 255 
0.35 0.8 -0.375 0 -0.7071068 0.7071068 214 134 91 255 
0.35 0.9 -0.375 0 0.7071068 0.7071068 214 134 91 255 
-0.35 0.8 -0.475 0 -0.7071068 -0.7071068 214 134 91 255 
0.35 0.8 -0.475 0 -0.7071068 -0.7071068 214 134 91 255 
-0.35 0.9 -0.475 0 0.7071068 -0.7071068 214 134 91 255 
0.35 0.9 -0.475 0 0.7071068 -0.7071068 214 134 91 255 
-0.35 0.8 0.375 0 -0.7071068 -0.7071068 214 134 91 255 
-0.35 0.8 0.475 0 -0.7071068 0.7071068 214 134 91 255 
0.35 0.8 0.375 0 -0.7071068 -0.7071068 214 134 91 255 
0.35 0.8 0.475 0 -0.7071068 0.7071068 214 134 91 255 
-0.35 0.9 0.375 0 0.7071068 -0.7071068 214 134 91 255 
0.35 0.9 0.375 0 0.7071068 -0.7071068 214 134 91 255 
-0.35 0.9 0.475 0 0.7071068 0.7071068 214 134 91 255 
0.35 0.9 0.475 0 0.7071068 0.7071068 214 134 91 255 
0.5 1.602965e-31 -0.35 0.5773503 -0.5773503 0.5773503 197 103 73 255 
0.5 1.602965e-31 -0.5 0.5773503 -0.5773503 -0.5773503 197 103 73 255 
0.35 1.602965e-31 -0.35 -0.5773503 -0.5773503 0.5773503 197 103 73 255 
0.35 1.602965e-31 -0.5 -0.5773503 -0.5773503 -0.5773503 197 103 73 255 
0.5 1 -0.5 0.5773503 0.5773503 -0.5773503 207 121 83 255 
0.5 1 -0.35 0.5773503 0.5773503 0.5773503 207 121 83 255 
0.35 1 -0.5 -0.5773503 0.5773503 -0.5773503 207 121 83 255 
0.35 1 -0.35 -0.5773503 0.5773503 0.5773503 207 121 83 255 
0.5 0 0.5 0.5773503 -0.5773503 0.5773503 197 103 73 255 
0.5 0 0.35 0.5773503 -0.5773503 -0.5773503 197 103 73 255 
0.35 0 0.5 -0.5773503 -0.5773503 0.5773503 197 103 73 255 
0.35 0 0.35 -0.5773503 -0.5773503 -0.5773503 197 103 73 255 
0.5 1 0.35 0.5773503 0.5773503 -0.5773503 207 121 83 255 
0.5 1 0.5 0.5773503 0.5773503 0.5773503 207 121 83 255 
0.35 1 0.35 -0.5773503 0.5773503 -0.5773503 207 121 83 255 
0.35 1 0.5 -0.5773503 0.5773503 0.5773503 207 121 83 255 
-0.35 0 0.5 0.5773503 -0.5773503 0.5773503 197 103 73 255 
-0.35 0 0.35 0.5773503 -0.5773503 -0.5773503 197 103 73 255 
-0.5 0 0.5 -0.5773503 -0.5773503 0.5773503 197 103 73 255 
-0.5 0 0.35 -0.5773503 -0.5773503 -0.5773503 197 103 73 255 
-0.35 1 0.35 0.5773503 0.5773503 -0.5773503 207 121 83 255 
-0.35 1 0.5 0.5773503 0.5773503 0.5773503 207 121 83 255 
-0.5 1 0.35 -0.5773503 0.5773503 -0.5773503 207 121 83 255 
-0.5 1 0.5 -0.5773503 0.5773503 0.5773503 207 121 83 255 
-0.35 0 -0.35 0.5773503 -0.5773503 0.5773503 197 103 73 255 
-0.35 0 -0.5 0.5773503 -0.5773503 -0.5773503 197 103 73 255 
-0.5 0 -0.35 -0.5773503 -0.5773503 0.5773503 197 103 73 255 
-0.5 0 -0.5 -0.5773503 -0.5773503 -0.5773503 197 103 73 255 
-0.35 1 -0.5 0.5773503 0.5773503 -0.5773503 207 121 83 255 
-0.35 1 -0.35 0.5773503 0.5773503 0.5773503 207 121 83 255 
-0.5 1 -0.5 -0.5773503 0.5773503 -0.5773503 207 121 83 255 
-0.5 1 -0.35 -0.5773503 0.5773503 0.5773503 207 121 83 255 
-0.35 0.4928932 -0.45 0.6324556 -0.6324555 -0.4472135 207 121 83 255 
-0.04289324 0.8 -0.45 0.6324555 -0.6324555 -0.4472138 197 103 73 255 
-0.35 0.6343146 -0.45 -0.3922323 0.3922323 -0.8320503 203 114 79 255 
-0.1843146 0.8 -0.45 -0.3922323 0.3922323 -0.8320503 197 103 73 255 
-0.35 0.6343146 -0.4 -0.3922323 0.3922323 0.8320503 203 114 79 255 
-0.1843146 0.8 -0.4 -0.3922323 0.3922323 0.8320503 197 103 73 255 
-0.35 0.4928932 -0.4 0.6324555 -0.6324555 0.4472137 207 121 83 255 
-0.04289324 0.8 -0.4 0.6324556 -0.6324555 0.4472136 197 103 73 255 
0.35 0.4928932 -0.45 -0.6324556 -0.6324555 -0.4472135 207 121 83 255 
0.04289323 0.8 -0.45 -0.6324555 -0.6324555 -0.4472138 197 103 73 255 
0.35 0.4928932 -0.4 -0.6324555 -0.6324555 0.4472137 207 121 83 255 
0.04289323 0.8 -0.4 -0.6324556 -0.6324555 0.4472136 197 103 73 255 
0.35 0.6343146 -0.45 0.3922323 0.3922323 -0.8320503 203 114 79 255 
0.1843146 0.8 -0.45 0.3922323 0.3922323 -0.8320503 197 103 73 255 
0.35 0.6343146 -0.4 0.3922323 0.3922323 0.8320503 203 114 79 255 
0.1843146 0.8 -0.4 0.3922323 0.3922323 0.8320503 197 103 73 255 
0.35 0.4928932 0.4 -0.6324556 -0.6324555 -0.4472135 207 121 83 255 
0.04289323 0.8 0.4 -0.6324555 -0.6324555 -0.4472138 197 103 73 255 
0.35 0.4928932 0.45 -0.6324555 -0.6324555 0.4472137 207 121 83 255 
0.04289323 0.8 0.45 -0.6324556 -0.6324555 0.4472136 197 103 73 255 
0.35 0.6343146 0.4 0.3922323 0.3922323 -0.8320503 203 114 79 255 
0.1843146 0.8 0.4 0.3922323 0.3922323 -0.8320503 197 103 73 255 
0.35 0.6343146 0.45 0.3922323 0.3922323 0.8320503 203 114 79 255 
0.1843146 0.8 0.45 0.3922323 0.3922323 0.8320503 197 103 73 255 
-0.35 0.4928932 0.4 0.6324556 -0.6324555 -0.4472135 207 121 83 255 
-0.04289324 0.8 0.4 0.6324555 -0.6324555 -0.4472138 197 103 73 255 
-0.35 0.6343146 0.4 -0.3922323 0.3922323 -0.8320503 203 114 79 255 
-0.1843146 0.8 0.4 -0.3922323 0.3922323 -0.8320503 197 103 73 255 
-0.35 0.6343146 0.45 -0.3922323 0.3922323 0.8320503 203 114 79 255 
-0.1843146 0.8 0.45 -0.3922323 0.3922323 0.8320503 197 103 73 255 
-0.35 0.4928932 0.45 0.6324555 -0.6324555 0.4472137 207 121 83 255 
-0.04289324 0.8 0.45 0.6324556 -0.6324555 0.4472136 197 103 73 255 
0.45 0.4928932 -0.35 0.4472135 -0.6324555 0.6324556 207 121 83 255 
0.45 0.8 -0.04289324 0.4472136 -0.6324554 0.6324556 197 103 73 255 
0.45 0.6343146 -0.35 0.8320503 0.3922322 -0.3922323 203 114 79 255 
0.45 0.8 -0.1843146 0.8320503 0.3922323 -0.3922323 197 103 73 255 
0.4 0.6343146 -0.35 -0.8320504 0.3922323 -0.3922323 203 114 79 255 
0.4 0.8 -0.1843146 -0.8320503 0.3922322 -0.3922323 197 103 73 255 
0.4 0.4928932 -0.35 -0.4472136 -0.6324556 0.6324556 207 121 83 255 
0.4 0.8 -0.04289325 -0.447214 -0.6324553 0.6324555 197 103 73 255 
-0.4 0.4928932 0.35 0.4472135 -0.6324555 -0.6324556 207 121 83 255 
-0.4 0.8 0.0428932 0.4472138 -0.6324555 -0.6324555 197 103 73 255 
-0.45 0.4928932 0.35 -0.4472137 -0.6324555 -0.6324555 207 121 83 255 
-0.45 0.8 0.0428932 -0.4472136 -0.6324555 -0.6324556 197 103 73 255 
-0.4 0.6343146 0.35 0.8320503 0.3922322 0.3922323 203 114 79 255 
-0.4 0.8 0.1843146 0.8320503 0.3922323 0.3922323 197 103 73 255 
-0.45 0.6343146 0.35 -0.8320503 0.3922323 0.3922323 203 114 79 255 
-0.45 0.8 0.1843146 -0.8320503 0.3922322 0.3922323 197 103 73 255 
-0.4 0.4928932 -0.35 0.4472135 -0.6324555 0.6324556 207 121 83 255 
-0.4 0.8 -0.04289324 0.4472136 -0.6324554 0.6324556 197 103 73 255 
-0.4 0.6343146 -0.35 0.8320503 0.3922322 -0.3922323 203 114 79 255 
-0.4 0.8 -0.1843146 0.8320503 0.3922323 -0.3922323 197 103 73 255 
-0.45 0.6343146 -0.35 -0.8320504 0.3922323 -0.3922323 203 114 79 255 
-0.45 0.8 -0.1843146 -0.8320503 0.3922322 -0.3922323 197 103 73 255 
-0.45 0.4928932 -0.35 -0.4472136 -0.6324556 0.6324556 207 121 83 255 
-0.45 0.8 -0.04289325 -0.447214 -0.6324553 0.6324555 197 103 73 255 
0.45 0.4928932 0.35 0.4472135 -0.6324555 -0.6324556 207 121 83 255 
0.45 0.8 0.0428932 0.4472138 -0.6324555 -0.6324555 197 103 73 255 
0.4 0.4928932 0.35 -0.4472137 -0.6324555 -0.6324555 207 121 83 255 
0.4 0.8 0.0428932 -0.4472136 -0.6324555 -0.6324556 197 103 73 255 
0.45 0.6343146 0.35 0.8320503 0.3922322 0.3922323 203 114 79 255 
0.45 0.8 0.1843146 0.8320503 0.3922323 0.3922323 197 103 73 255 
0.4 0.6343146 0.35 -0.8320503 0.3922323 0.3922323 203 114 79 255 
0.4 0.8 0.1843146 -0.8320503 0.3922322 0.3922323 197 103 73 255 
3 2 1 0 
3 1 2 3 
3 5 0 4 
3 0 5 2 
3 6 5 4 
3 5 6 7 
3 3 6 1 
3 6 3 7 
3 10 9 8 
3 9 10 11 
3 13 8 12 
3 8 13 10 
3 14 13 12 
3 13 14 15 
3 11 14 9 
3 14 11 15 
3 18 17 16 
3 17 18 19 
3 21 16 20 
3 16 21 18 
3 22 21 20 
3 21 22 23 
3 19 22 17 
3 22 19 23 
3 26 25 24 
3 25 26 27 
3 28 26 24 
3 26 28 29 
3 27 30 25 
3 30 27 31 
3 30 29 28 
3 29 30 31 
3 34 33 32 
3 33 34 35 
3 38 37 36 
3 37 38 39 
3 34 38 35 
3 38 34 39 
3 38 33 35 
3 33 38 36 
3 37 33 36 
3 33 37 32 
3 37 34 32 
3 34 37 39 
3 42 41 40 
3 41 42 43 
3 46 45 44 
3 45 46 47 
3 42 46 43 
3 46 42 47 
3 46 41 43 
3 41 46 44 
3 45 41 44 
3 41 45 40 
3 45 42 40 
3 42 45 47 
3 50 49 48 
3 49 50 51 
3 54 53 52 
3 53 54 55 
3 50 54 51 
3 54 50 55 
3 54 49 51 
3 49 54 52 
3 53 49 52 
3 49 53 48 
3 53 50 48 
3 50 53 55 
3 58 57 56 
3 57 58 59 
3 62 61 60 
3 61 62 63 
3 58 62 59 
3 62 58 63 
3 62 57 59 
3 57 62 60 
3 61 57 60 
3 57 61 56 
3 61 58 56 
3 58 61 63 
3 66 65 64 
3 65 66 67 
3 68 67 66 
3 67 68 69 
3 71 68 70 
3 68 71 69 
3 65 70 64 
3 70 65 71 
3 74 73 72 
3 73 74 75 
3 73 76 72 
3 76 73 77 
3 78 75 74 
3 75 78 79 
3 77 78 76 
3 78 77 79 
3 82 81 80 
3 81 82 83 
3 81 84 80 
3 84 81 85 
3 86 83 82 
3 83 86 87 
3 85 86 84 
3 86 85 87 
3 90 89 88 
3 89 90 91 
3 92 91 90 
3 91 92 93 
3 95 92 94 
3 92 95 93 
3 89 94 88 
3 94 89 95 
3 98 97 96 
3 97 98 99 
3 100 99 98 
3 99 100 101 
3 103 100 102 
3 100 103 101 
3 97 102 96 
3 102 97 103 
3 106 105 104 
3 105 106 107 
3 105 108 104 
3 108 105 109 
3 110 107 106 
3 107 110 111 
3 109 110 108 
3 110 109 111 
3 114 113 112 
3 113 114 115 
3 116 115 114 
3 115 116 117 
3 119 116 118 
3 116 119 117 
3 113 118 112 
3 118 113 119 
3 122 121 120 
3 121 122 123 
3 121 124 120 
3 124 121 125 
3 126 123 122 
3 123 126 127 
3 125 126 124 
3 126 125 127 
3 2 1 0 
3 1 2 3 
3 5 0 4 
3 0 5 2 
3 6 5 4 
3 5 6 7 
3 3 6 1 
3 6 3 7 
3 10 9 8 
3 9 10 11 
3 13 8 12 
3 8 13 10 
3 14 13 12 
3 13 14 15 
3 11 14 9 
3 14 11 15 
3 18 17 16 
3 17 18 19 
3 21 16 20 
3 16 21 18 
3 22 21 20 
3 21 22 23 
3 19 22 17 
3 22 19 23 
3 26 25 24 
3 25 26 27 
3 28 26 24 
3 26 28 29 
3 27 30 25 
3 30 27 31 
3 30 29 28 
3 29 30 31 
3 34 33 32 
3 33 34 35 
3 38 37 36 
3 37 38 39 
3 34 38 35 
3 38 34 39 
3 38 33 35 
3 33 38 36 
3 37 33 36 
3 33 37 32 
3 37 34 32 
3 34 37 39 
3 42 41 40 
3 41 42 43 
3 46 45 44 
3 45 46 47 
3 42 46 43 
3 46 42 47 
3 46 41 43 
3 41 46 44 
3 45 41 44 
3 41 45 40 
3 45 42 40 
3 42 45 47 
3 50 49 48 
3 49 50 51 
3 54 53 52 
3 53 54 55 
3 50 54 51 
3 54 50 55 
3 54 49 51 
3 49 54 52 
3 53 49 52 
3 49 53 48 
3 53 50 48 
3 50 53 55 
3 58 57 56 
3 57 58 59 
3 62 61 60 
3 61 62 63 
3 58 62 59 
3 62 58 63 
3 62 57 59 
3 57 62 60 
3 61 57 60 
3 57 61 56 
3 61 58 56 
3 58 61 63 
3 66 65 64 
3 65 66 67 
3 68 67 66 
3 67 68 69 
3 71 68 70 
3 68 71 69 
3 65 70 64 
3 70 65 71 
3 74 73 72 
3 73 74 75 
3 73 76 72 
3 76 73 77 
3 78 75 74 
3 75 78 79 
3 77 78 76 
3 78 77 79 
3 82 81 80 
3 81 82 83 
3 81 84 80 
3 84 81 85 
3 86 83 82 
3 83 86 87 
3 85 86 84 
3 86 85 87 
3 90 89 88 
3 89 90 91 
3 92 91 90 
3 91 92 93 
3 95 92 94 
3 92 95 93 
3 89 94 88 
3 94 89 95 
3 98 97 96 
3 97 98 99 
3 100 99 98 
3 99 100 101 
3 103 100 102 
3 100 103 101 
3 97 102 96 
3 102 97 103 
3 106 105 104 
3 105 106 107 
3 105 108 104 
3 108 105 109 
3 110 107 106 
3 107 110 111 
3 109 110 108 
3 110 109 111 
3 114 113 112 
3 113 114 115 
3 116 115 114 
3 115 116 117 
3 119 116 118 
3 116 119 117 
3 113 118 112 
3 118 113 119 
3 122 121 120 
3 121 122 123 
3 121 124 120 
3 124 121 125 
3 126 123 122 
3 123 126 127 
3 125 126 124 
3 126 125 127 
